M48
;Layer_Color=9474304
;FILE_FORMAT=2:5
INCH,LZ
;TYPE=PLATED
T1F00S00C0.02800
T2F00S00C0.03800
T3F00S00C0.03937
T4F00S00C0.04000
T5F00S00C0.06500
T6F00S00C0.10000
T7F00S00C0.11811
%
T01
X0162205Y0096063
T02
X0147087Y0016378
X0157087
Y0026378
Y0036378
Y0046378
X0147087
Y0036378
Y0026378
X004811Y0131102
X000874
T03
X0030394Y0058268
X0040394
X0050394
T04
X0078189Y0194882
X0088189
T05
X0096457Y0096063
X0010457
T06
X001Y001
X018685
X018685Y0206535
X001Y0206535
T07
X0059055Y0174016
X0033465
X0047244Y0155512
M30
