G04*
G04 #@! TF.GenerationSoftware,Altium Limited,Altium Designer,19.1.8 (144)*
G04*
G04 Layer_Color=65535*
%FSLAX25Y25*%
%MOIN*%
G70*
G01*
G75*
%ADD10C,0.02500*%
%ADD11C,0.01500*%
%ADD12C,0.00606*%
%ADD13C,0.00787*%
%ADD14C,0.00800*%
%ADD15C,0.00500*%
%ADD16C,0.00984*%
%ADD17C,0.01000*%
%ADD18C,0.01200*%
%ADD19C,0.00700*%
G36*
X75394Y163354D02*
Y162354D01*
X86109D01*
Y163354D01*
X75394D01*
D02*
G37*
D10*
X112200Y142400D02*
G03*
X112200Y142400I-1200J0D01*
G01*
D11*
X16003Y65768D02*
G03*
X16003Y65768I-700J0D01*
G01*
D12*
X114016Y144606D02*
Y150173D01*
X114764Y178173D02*
Y184488D01*
X128307Y198031D01*
X182516D01*
Y177890D02*
Y198031D01*
Y130315D02*
Y150173D01*
X128307Y130315D02*
X182516D01*
X114016Y144606D02*
X128307Y130315D01*
D13*
X180532Y108189D02*
Y119382D01*
X140134D02*
X149884D01*
X127839Y107882D02*
Y119382D01*
X137560D02*
X140134D01*
X127839Y70382D02*
Y81882D01*
Y119382D02*
X137560D01*
X127839Y70382D02*
X179134D01*
X149884Y119382D02*
X180532D01*
X73189Y189882D02*
Y199882D01*
X93189D01*
Y189882D02*
Y199882D01*
X73189Y189882D02*
X93189D01*
X106693Y24803D02*
X115354D01*
X106693D02*
X106693Y48031D01*
X110630Y51575D02*
X115354D01*
X124803D02*
X129528D01*
X133465Y24803D02*
Y48031D01*
X124803Y24803D02*
X133465Y24803D01*
X129528Y51575D02*
X129921D01*
X133465Y48031D01*
X110236Y51575D02*
X110630D01*
X106693Y48031D02*
X110236Y51575D01*
X176575Y43110D02*
X176969D01*
X176575Y48228D02*
X176969D01*
X67913Y128150D02*
X68307D01*
X67913Y133268D02*
X68307D01*
X142087Y11378D02*
Y51378D01*
Y11378D02*
X162087D01*
Y51378D01*
X142087D02*
X162087D01*
D14*
X180839Y70382D02*
Y81882D01*
X179134Y70382D02*
X180839D01*
X77189Y187881D02*
Y185215D01*
X78522Y183882D01*
X79855Y185215D01*
Y187881D01*
X81188D02*
X82521D01*
X81854D01*
Y183882D01*
X81188D01*
X82521D01*
X84520D02*
Y187881D01*
X87186Y183882D01*
Y187881D01*
X176088Y30077D02*
X173622D01*
Y28227D01*
X174855Y28844D01*
X175471D01*
X176088Y28227D01*
Y26994D01*
X175471Y26378D01*
X174239D01*
X173622Y26994D01*
X177321Y30077D02*
Y27611D01*
X178554Y26378D01*
X179787Y27611D01*
Y30077D01*
X78740Y139526D02*
Y137060D01*
X79973Y135827D01*
X81206Y137060D01*
Y139526D01*
X82439D02*
X83672D01*
X83055D01*
Y135827D01*
X82439D01*
X83672D01*
X85521D02*
Y139526D01*
X87987Y135827D01*
Y139526D01*
X4110Y139102D02*
Y142601D01*
X5277Y141435D01*
X6443Y142601D01*
Y139102D01*
X9358Y142601D02*
X8192D01*
X7609Y142018D01*
Y139685D01*
X8192Y139102D01*
X9358D01*
X9942Y139685D01*
Y142018D01*
X9358Y142601D01*
X11108D02*
Y140269D01*
X12274Y139102D01*
X13441Y140269D01*
Y142601D01*
X14607Y139102D02*
X15773D01*
X15190D01*
Y142601D01*
X14607Y142018D01*
D15*
X84709Y173819D02*
X85909D01*
X75590D02*
X76772D01*
X75590Y156854D02*
X76772D01*
X84709D02*
X85909D01*
X75394D02*
Y173799D01*
X86109Y156854D02*
Y173799D01*
X176065Y34433D02*
X176815D01*
X176065Y35433D02*
X176815Y34433D01*
X176065Y35433D02*
X177115Y34933D01*
X176065Y36433D02*
X177115Y34933D01*
X176065Y36433D02*
X177315Y35183D01*
X176065Y37433D02*
X177315Y35183D01*
X176065Y37433D02*
X177615Y35433D01*
X176815Y34433D02*
X177615Y35433D01*
X176065Y33433D02*
X176815Y34433D01*
X176065Y33433D02*
Y34433D01*
Y35433D01*
Y36433D01*
Y37433D01*
X170565Y38933D02*
X183115D01*
X170565Y31933D02*
Y38933D01*
Y31933D02*
X183115D01*
Y38933D01*
X82715Y129709D02*
X83465D01*
X82715Y130709D02*
X83465Y129709D01*
X82715Y130709D02*
X83765Y130209D01*
X82715Y131709D02*
X83765Y130209D01*
X82715Y131709D02*
X83965Y130459D01*
X82715Y132709D02*
X83965Y130459D01*
X82715Y132709D02*
X84265Y130709D01*
X83465Y129709D02*
X84265Y130709D01*
X82715Y128709D02*
X83465Y129709D01*
X82715Y128709D02*
Y129709D01*
Y130709D01*
Y131709D01*
Y132709D01*
X77215Y134209D02*
X89765D01*
X77215Y127209D02*
Y134209D01*
Y127209D02*
X89765D01*
Y134209D01*
X17756Y66732D02*
X63032D01*
Y31299D02*
Y66732D01*
X17756Y31299D02*
X63032D01*
X17756D02*
Y66732D01*
X66579Y61268D02*
X73579D01*
X66579Y46768D02*
X73579D01*
Y61268D01*
X66579Y46768D02*
Y61268D01*
X5000Y61400D02*
X12000D01*
X5000Y46900D02*
X12000D01*
Y61400D01*
X5000Y46900D02*
Y61400D01*
X52740Y124602D02*
Y137602D01*
X3740Y124602D02*
Y137602D01*
X52740D01*
X3740Y124602D02*
X52740D01*
D16*
X81890Y19842D02*
X88189D01*
X81890Y37638D02*
X88189D01*
D17*
X3937Y155315D02*
Y191732D01*
X61614D01*
X15748Y155315D02*
Y191732D01*
X3937Y155315D02*
X35630D01*
X58858D02*
X61614D01*
Y162401D01*
X61614Y185630D02*
Y191732D01*
X3457Y76063D02*
Y116063D01*
X103457Y76063D02*
Y116063D01*
X3457Y76063D02*
X103457D01*
X3457Y116063D02*
X103457D01*
X144463Y57273D02*
X141797D01*
Y55274D01*
X143130Y55940D01*
X143796D01*
X144463Y55274D01*
Y53941D01*
X143796Y53275D01*
X142463D01*
X141797Y53941D01*
X145796Y57273D02*
Y54607D01*
X147128Y53275D01*
X148461Y54607D01*
Y57273D01*
X155199Y56607D02*
X154532Y57273D01*
X153199D01*
X152533Y56607D01*
Y53941D01*
X153199Y53275D01*
X154532D01*
X155199Y53941D01*
Y55274D01*
X153866D01*
X156532Y53275D02*
Y57273D01*
X159197Y53275D01*
Y57273D01*
X160530D02*
Y53275D01*
X162530D01*
X163196Y53941D01*
Y56607D01*
X162530Y57273D01*
X160530D01*
X120339Y118381D02*
Y114382D01*
X123004D01*
X124337D02*
X125670D01*
X125004D01*
Y118381D01*
X124337Y117714D01*
X108571Y57269D02*
X107905Y57936D01*
X106572D01*
X105905Y57269D01*
Y54603D01*
X106572Y53937D01*
X107905D01*
X108571Y54603D01*
X109904Y57936D02*
X112570D01*
Y57269D01*
X109904Y54603D01*
Y53937D01*
X53937Y29589D02*
Y26923D01*
X55270Y25591D01*
X56603Y26923D01*
Y29589D01*
X57936Y25591D02*
Y29589D01*
X59935D01*
X60602Y28923D01*
Y27590D01*
X59935Y26923D01*
X57936D01*
X59269D02*
X60602Y25591D01*
X61934D02*
X63267D01*
X62601D01*
Y29589D01*
X61934Y28923D01*
X81496Y16597D02*
Y12598D01*
X84162D01*
X88161D02*
X85495D01*
X88161Y15264D01*
Y15931D01*
X87494Y16597D01*
X86161D01*
X85495Y15931D01*
X6430Y121715D02*
X3764D01*
Y119716D01*
X5097D01*
X3764D01*
Y117717D01*
X7762D02*
X9095D01*
X8429D01*
Y121715D01*
X7762Y121049D01*
X69744Y66600D02*
X69078Y67266D01*
X67745D01*
X67079Y66600D01*
Y63934D01*
X67745Y63268D01*
X69078D01*
X69744Y63934D01*
X73743Y63268D02*
X71077D01*
X73743Y65934D01*
Y66600D01*
X73077Y67266D01*
X71744D01*
X71077Y66600D01*
X8666Y66732D02*
X7999Y67399D01*
X6667D01*
X6000Y66732D01*
Y64066D01*
X6667Y63400D01*
X7999D01*
X8666Y64066D01*
X9999Y63400D02*
X11332D01*
X10665D01*
Y67399D01*
X9999Y66732D01*
X115591Y194506D02*
X114925Y195172D01*
X113592D01*
X112925Y194506D01*
Y191840D01*
X113592Y191173D01*
X114925D01*
X115591Y191840D01*
X116924Y194506D02*
X117590Y195172D01*
X118923D01*
X119590Y194506D01*
Y191840D01*
X118923Y191173D01*
X117590D01*
X116924Y191840D01*
Y194506D01*
D18*
X88940Y202582D02*
Y207580D01*
X86441Y205081D02*
X91439D01*
X78440Y202582D02*
Y207580D01*
X147335Y3378D02*
Y8376D01*
X149835Y5877D02*
X144836D01*
X157335Y3378D02*
Y8376D01*
D19*
X70079Y161373D02*
Y157874D01*
X71828D01*
X72411Y158457D01*
Y160790D01*
X71828Y161373D01*
X70079D01*
X73578Y157874D02*
X74744D01*
X74161D01*
Y161373D01*
X73578Y160790D01*
X173622Y50000D02*
Y53499D01*
X175372D01*
X175955Y52916D01*
Y51749D01*
X175372Y51166D01*
X173622D01*
X174788D02*
X175955Y50000D01*
X179454D02*
X177121D01*
X179454Y52333D01*
Y52916D01*
X178870Y53499D01*
X177704D01*
X177121Y52916D01*
X66000Y135800D02*
Y139299D01*
X67749D01*
X68333Y138716D01*
Y137549D01*
X67749Y136966D01*
X66000D01*
X67166D02*
X68333Y135800D01*
X69499D02*
X70665D01*
X70082D01*
Y139299D01*
X69499Y138716D01*
M02*
