G04*
G04 #@! TF.GenerationSoftware,Altium Limited,Altium Designer,19.1.8 (144)*
G04*
G04 Layer_Color=47300*
%FSLAX25Y25*%
%MOIN*%
G70*
G01*
G75*
G36*
X85497Y51046D02*
X85700Y50990D01*
X85848Y50916D01*
X85996Y50861D01*
X86089Y50805D01*
X86163Y50750D01*
X86219Y50713D01*
X86237Y50694D01*
X86256Y50676D01*
X86348Y50509D01*
X86404Y50324D01*
Y50250D01*
X86422Y50176D01*
Y50139D01*
Y50121D01*
X86404Y49972D01*
X86385Y49861D01*
X86293Y49658D01*
X86256Y49584D01*
X86219Y49528D01*
X86200Y49491D01*
X86181Y49473D01*
X86089Y49380D01*
X85996Y49325D01*
X85811Y49251D01*
X85719Y49232D01*
X85663Y49213D01*
X85608D01*
X85423Y49232D01*
X85237Y49269D01*
X85163D01*
X85089Y49288D01*
X85052Y49306D01*
X85034D01*
X83442Y49713D01*
Y42346D01*
X85219D01*
X85441Y42328D01*
X85645Y42309D01*
X85811Y42272D01*
X85941Y42217D01*
X86033Y42161D01*
X86107Y42124D01*
X86145Y42106D01*
X86163Y42087D01*
X86256Y41995D01*
X86311Y41884D01*
X86385Y41680D01*
X86404Y41587D01*
X86422Y41532D01*
Y41476D01*
Y41458D01*
X86404Y41328D01*
X86385Y41199D01*
X86293Y40995D01*
X86237Y40921D01*
X86200Y40865D01*
X86181Y40847D01*
X86163Y40828D01*
X86033Y40754D01*
X85904Y40699D01*
X85589Y40625D01*
X85441Y40606D01*
X85330Y40588D01*
X79907D01*
X79685Y40606D01*
X79481Y40625D01*
X79333Y40662D01*
X79203Y40717D01*
X79111Y40754D01*
X79037Y40791D01*
X79000Y40810D01*
X78981Y40828D01*
X78889Y40921D01*
X78815Y41032D01*
X78777Y41143D01*
X78741Y41236D01*
X78722Y41328D01*
X78703Y41402D01*
Y41439D01*
Y41458D01*
X78722Y41606D01*
X78741Y41717D01*
X78833Y41921D01*
X78889Y41995D01*
X78944Y42050D01*
X78963Y42069D01*
X78981Y42087D01*
X79092Y42180D01*
X79240Y42235D01*
X79555Y42309D01*
X79685Y42328D01*
X79796Y42346D01*
X81684D01*
Y52027D01*
X85497Y51046D01*
D02*
G37*
G36*
X117593Y46622D02*
X117575Y46455D01*
X117556Y46326D01*
X117519Y46196D01*
X117463Y46104D01*
X117426Y46011D01*
X117389Y45956D01*
X117371Y45919D01*
X117352Y45900D01*
X117241Y45808D01*
X117149Y45752D01*
X116927Y45678D01*
X116834Y45660D01*
X116760Y45641D01*
X116704D01*
X116538Y45660D01*
X116390Y45715D01*
X116260Y45771D01*
X116242Y45789D01*
X116223D01*
X115779Y45993D01*
X115372Y46159D01*
X115002Y46270D01*
X114687Y46345D01*
X114428Y46382D01*
X114224Y46418D01*
X114058D01*
X113743Y46400D01*
X113447Y46326D01*
X113206Y46233D01*
X112984Y46122D01*
X112817Y45993D01*
X112706Y45900D01*
X112614Y45826D01*
X112595Y45808D01*
X112410Y45567D01*
X112262Y45308D01*
X112170Y45030D01*
X112095Y44771D01*
X112058Y44530D01*
X112022Y44345D01*
Y44271D01*
Y44234D01*
Y44197D01*
Y44179D01*
X112040Y43809D01*
X112114Y43475D01*
X112207Y43198D01*
X112318Y42976D01*
X112429Y42809D01*
X112521Y42680D01*
X112595Y42606D01*
X112614Y42587D01*
X112743Y42494D01*
X112873Y42420D01*
X113206Y42291D01*
X113576Y42217D01*
X113928Y42143D01*
X114280Y42106D01*
X114428D01*
X114557Y42087D01*
X115113D01*
X115390Y42106D01*
X115631Y42143D01*
X115835Y42161D01*
X116001Y42198D01*
X116131Y42217D01*
X116205Y42235D01*
X116223D01*
X116501Y42346D01*
X116742Y42476D01*
X116834Y42550D01*
X116908Y42587D01*
X116945Y42624D01*
X116964Y42643D01*
X117093Y42735D01*
X117204Y42809D01*
X117315Y42865D01*
X117426Y42902D01*
X117500Y42920D01*
X117556Y42939D01*
X117612D01*
X117741Y42920D01*
X117871Y42902D01*
X118056Y42809D01*
X118130Y42753D01*
X118185Y42698D01*
X118222Y42680D01*
X118241Y42661D01*
X118333Y42568D01*
X118389Y42457D01*
X118463Y42254D01*
X118482Y42180D01*
X118500Y42106D01*
Y42069D01*
Y42050D01*
X118463Y41846D01*
X118389Y41661D01*
X118296Y41495D01*
X118167Y41347D01*
X118037Y41236D01*
X117945Y41143D01*
X117871Y41088D01*
X117834Y41069D01*
X117612Y40940D01*
X117371Y40828D01*
X116853Y40643D01*
X116334Y40514D01*
X115835Y40421D01*
X115612Y40384D01*
X115390Y40366D01*
X115205Y40347D01*
X115039D01*
X114891Y40329D01*
X114705D01*
X114298Y40347D01*
X113909Y40366D01*
X113558Y40421D01*
X113225Y40495D01*
X112928Y40569D01*
X112651Y40643D01*
X112410Y40736D01*
X112188Y40847D01*
X111985Y40940D01*
X111818Y41032D01*
X111670Y41106D01*
X111559Y41180D01*
X111466Y41254D01*
X111411Y41310D01*
X111374Y41328D01*
X111355Y41347D01*
X111170Y41550D01*
X110985Y41772D01*
X110855Y41995D01*
X110726Y42235D01*
X110615Y42457D01*
X110522Y42698D01*
X110393Y43161D01*
X110356Y43364D01*
X110319Y43549D01*
X110300Y43735D01*
X110282Y43883D01*
X110263Y44012D01*
Y44105D01*
Y44160D01*
Y44179D01*
X110282Y44493D01*
X110319Y44808D01*
X110356Y45104D01*
X110430Y45363D01*
X110522Y45623D01*
X110615Y45863D01*
X110707Y46085D01*
X110800Y46270D01*
X110911Y46455D01*
X111003Y46604D01*
X111096Y46733D01*
X111189Y46844D01*
X111263Y46937D01*
X111300Y46992D01*
X111337Y47029D01*
X111355Y47048D01*
X111559Y47251D01*
X111781Y47418D01*
X112003Y47566D01*
X112225Y47696D01*
X112466Y47807D01*
X112688Y47899D01*
X113114Y48029D01*
X113299Y48084D01*
X113484Y48121D01*
X113650Y48140D01*
X113780Y48158D01*
X113891Y48177D01*
X114058D01*
X114354Y48158D01*
X114668Y48121D01*
X114965Y48084D01*
X115242Y48029D01*
X115483Y47955D01*
X115668Y47918D01*
X115742Y47899D01*
X115797Y47881D01*
X115816Y47862D01*
X115835D01*
Y49972D01*
X112188D01*
X111966Y49991D01*
X111781Y50009D01*
X111633Y50046D01*
X111503Y50102D01*
X111411Y50139D01*
X111337Y50176D01*
X111300Y50195D01*
X111281Y50213D01*
X111189Y50306D01*
X111115Y50417D01*
X111077Y50528D01*
X111040Y50620D01*
X111022Y50713D01*
X111003Y50787D01*
Y50824D01*
Y50842D01*
X111022Y50990D01*
X111040Y51101D01*
X111133Y51305D01*
X111189Y51379D01*
X111244Y51435D01*
X111263Y51453D01*
X111281Y51472D01*
X111392Y51564D01*
X111540Y51620D01*
X111836Y51694D01*
X111966Y51712D01*
X112077Y51731D01*
X117593D01*
Y46622D01*
D02*
G37*
G36*
X96843Y44790D02*
X89458Y44790D01*
Y46400D01*
X96843Y46400D01*
Y44790D01*
D02*
G37*
G36*
X108468Y51009D02*
X108653Y50990D01*
X108819Y50954D01*
X108949Y50898D01*
X109041Y50842D01*
X109097Y50805D01*
X109134Y50787D01*
X109152Y50768D01*
X109245Y50676D01*
X109319Y50565D01*
X109356Y50472D01*
X109393Y50361D01*
X109412Y50269D01*
X109430Y50213D01*
Y50157D01*
Y50139D01*
X109412Y49991D01*
X109375Y49861D01*
X109245Y49639D01*
X109171Y49547D01*
X109115Y49473D01*
X109078Y49436D01*
X109060Y49417D01*
X108967Y49362D01*
X108856Y49325D01*
X108727Y49306D01*
X108597Y49288D01*
X108468Y49269D01*
X108246D01*
X104599Y40588D01*
X102915D01*
X99287Y49269D01*
X99064D01*
X98879Y49288D01*
X98731Y49325D01*
X98620Y49343D01*
X98546Y49380D01*
X98491Y49399D01*
X98454Y49417D01*
X98324Y49547D01*
X98232Y49676D01*
X98176Y49787D01*
X98120Y49898D01*
X98102Y49991D01*
X98084Y50065D01*
Y50121D01*
Y50139D01*
X98102Y50287D01*
X98120Y50398D01*
X98213Y50602D01*
X98269Y50676D01*
X98324Y50731D01*
X98343Y50750D01*
X98361Y50768D01*
X98472Y50861D01*
X98620Y50916D01*
X98935Y50990D01*
X99064Y51009D01*
X99176Y51028D01*
X101619D01*
X101841Y51009D01*
X102045Y50990D01*
X102211Y50954D01*
X102341Y50898D01*
X102433Y50842D01*
X102507Y50805D01*
X102544Y50787D01*
X102563Y50768D01*
X102655Y50676D01*
X102711Y50565D01*
X102785Y50361D01*
X102804Y50269D01*
X102822Y50213D01*
Y50157D01*
Y50139D01*
X102804Y50009D01*
X102785Y49880D01*
X102692Y49676D01*
X102637Y49602D01*
X102600Y49547D01*
X102581Y49528D01*
X102563Y49510D01*
X102433Y49436D01*
X102304Y49380D01*
X101989Y49306D01*
X101841Y49288D01*
X101730Y49269D01*
X101212D01*
X103766Y43161D01*
X106320Y49269D01*
X105913D01*
X105691Y49288D01*
X105488Y49306D01*
X105339Y49343D01*
X105210Y49399D01*
X105117Y49436D01*
X105043Y49473D01*
X105006Y49491D01*
X104988Y49510D01*
X104895Y49602D01*
X104821Y49713D01*
X104784Y49824D01*
X104747Y49917D01*
X104729Y50009D01*
X104710Y50084D01*
Y50121D01*
Y50139D01*
X104729Y50287D01*
X104747Y50398D01*
X104840Y50602D01*
X104895Y50676D01*
X104951Y50731D01*
X104969Y50750D01*
X104988Y50768D01*
X105099Y50861D01*
X105247Y50916D01*
X105561Y50990D01*
X105691Y51009D01*
X105802Y51028D01*
X108246D01*
X108468Y51009D01*
D02*
G37*
G36*
X75038Y51009D02*
X75242Y50990D01*
X75390Y50953D01*
X75520Y50898D01*
X75612Y50842D01*
X75686Y50805D01*
X75723Y50787D01*
X75742Y50768D01*
X75835Y50676D01*
X75890Y50565D01*
X75964Y50361D01*
X75982Y50269D01*
X76001Y50213D01*
Y50157D01*
Y50139D01*
X75982Y50009D01*
X75964Y49880D01*
X75871Y49676D01*
X75816Y49602D01*
X75779Y49547D01*
X75760Y49528D01*
X75742Y49510D01*
X75631Y49436D01*
X75483Y49380D01*
X75168Y49306D01*
X75038Y49288D01*
X74928Y49269D01*
X73669D01*
X76464Y42346D01*
X76686Y42328D01*
X76871Y42309D01*
X77038Y42272D01*
X77167Y42217D01*
X77260Y42161D01*
X77315Y42124D01*
X77352Y42106D01*
X77371Y42087D01*
X77463Y41995D01*
X77537Y41884D01*
X77574Y41791D01*
X77611Y41680D01*
X77630Y41587D01*
X77648Y41532D01*
Y41476D01*
Y41458D01*
X77630Y41328D01*
X77611Y41199D01*
X77500Y40995D01*
X77463Y40921D01*
X77408Y40865D01*
X77389Y40847D01*
X77371Y40828D01*
X77260Y40754D01*
X77112Y40699D01*
X76815Y40625D01*
X76686Y40606D01*
X76575Y40588D01*
X74132D01*
X73909Y40606D01*
X73706Y40625D01*
X73558Y40662D01*
X73428Y40717D01*
X73336Y40754D01*
X73262Y40791D01*
X73225Y40810D01*
X73206Y40828D01*
X73114Y40921D01*
X73039Y41032D01*
X73002Y41143D01*
X72965Y41236D01*
X72947Y41328D01*
X72928Y41402D01*
Y41439D01*
Y41458D01*
X72947Y41606D01*
X72965Y41717D01*
X73058Y41921D01*
X73114Y41995D01*
X73169Y42050D01*
X73188Y42069D01*
X73206Y42087D01*
X73317Y42180D01*
X73465Y42235D01*
X73780Y42309D01*
X73909Y42328D01*
X74020Y42346D01*
X74557D01*
X74113Y43438D01*
X69856D01*
X69411Y42346D01*
X69837D01*
X70059Y42328D01*
X70263Y42309D01*
X70411Y42272D01*
X70541Y42217D01*
X70633Y42161D01*
X70707Y42124D01*
X70744Y42106D01*
X70763Y42087D01*
X70855Y41995D01*
X70911Y41884D01*
X70985Y41680D01*
X71003Y41587D01*
X71022Y41532D01*
Y41476D01*
Y41458D01*
X71003Y41328D01*
X70985Y41199D01*
X70892Y40995D01*
X70837Y40921D01*
X70800Y40865D01*
X70781Y40847D01*
X70763Y40828D01*
X70652Y40754D01*
X70504Y40699D01*
X70189Y40625D01*
X70059Y40606D01*
X69948Y40588D01*
X67505D01*
X67283Y40606D01*
X67079Y40625D01*
X66931Y40662D01*
X66802Y40717D01*
X66709Y40754D01*
X66635Y40791D01*
X66598Y40810D01*
X66579Y40828D01*
X66487Y40921D01*
X66413Y41032D01*
X66376Y41143D01*
X66339Y41236D01*
X66320Y41328D01*
X66302Y41402D01*
Y41439D01*
Y41458D01*
X66320Y41606D01*
X66357Y41736D01*
X66487Y41958D01*
X66561Y42050D01*
X66616Y42124D01*
X66654Y42161D01*
X66672Y42180D01*
X66764Y42235D01*
X66876Y42272D01*
X67153Y42328D01*
X67283Y42346D01*
X67505D01*
X71040Y51028D01*
X74816D01*
X75038Y51009D01*
D02*
G37*
G36*
X103137Y38222D02*
X103600Y38148D01*
X104007Y38037D01*
X104358Y37926D01*
X104673Y37797D01*
X104784Y37741D01*
X104895Y37704D01*
X104988Y37648D01*
X105043Y37630D01*
X105080Y37593D01*
X105099D01*
X105506Y37334D01*
X105858Y37038D01*
X106154Y36723D01*
X106413Y36427D01*
X106617Y36149D01*
X106765Y35945D01*
X106802Y35853D01*
X106839Y35798D01*
X106876Y35760D01*
Y35742D01*
X107079Y35298D01*
X107246Y34835D01*
X107357Y34409D01*
X107431Y34021D01*
X107449Y33835D01*
X107468Y33669D01*
X107487Y33521D01*
Y33410D01*
X107505Y33299D01*
Y33225D01*
Y33188D01*
Y33169D01*
Y31966D01*
X107468Y31485D01*
X107394Y31022D01*
X107283Y30615D01*
X107153Y30244D01*
X107024Y29948D01*
X106968Y29819D01*
X106913Y29726D01*
X106857Y29634D01*
X106839Y29578D01*
X106802Y29541D01*
Y29523D01*
X106524Y29134D01*
X106228Y28801D01*
X105932Y28523D01*
X105654Y28301D01*
X105413Y28116D01*
X105228Y27986D01*
X105154Y27949D01*
X105099Y27912D01*
X105080Y27894D01*
X105062D01*
X104580Y27690D01*
X104099Y27523D01*
X103618Y27412D01*
X103174Y27338D01*
X102989Y27320D01*
X102804Y27301D01*
X102655Y27283D01*
X102507D01*
X102396Y27264D01*
X102248D01*
X101749Y27283D01*
X101286Y27338D01*
X100879Y27412D01*
X100508Y27505D01*
X100212Y27579D01*
X100083Y27616D01*
X99971Y27653D01*
X99897Y27690D01*
X99842Y27709D01*
X99805Y27727D01*
X99786D01*
X99490Y27857D01*
X99231Y28023D01*
X98990Y28171D01*
X98805Y28319D01*
X98639Y28468D01*
X98528Y28579D01*
X98454Y28653D01*
X98435Y28671D01*
X98306Y28819D01*
X98213Y28967D01*
X98158Y29097D01*
X98102Y29208D01*
X98084Y29319D01*
X98065Y29393D01*
Y29430D01*
Y29449D01*
X98084Y29578D01*
X98102Y29708D01*
X98194Y29911D01*
X98250Y29985D01*
X98306Y30041D01*
X98324Y30059D01*
X98343Y30078D01*
X98435Y30170D01*
X98546Y30244D01*
X98657Y30281D01*
X98750Y30318D01*
X98824Y30337D01*
X98898Y30356D01*
X98953D01*
X99102Y30337D01*
X99213Y30318D01*
X99287Y30281D01*
X99324Y30263D01*
X99379Y30226D01*
X99453Y30170D01*
X99583Y30059D01*
X99694Y29948D01*
X99731Y29930D01*
X99749Y29911D01*
X99916Y29745D01*
X100064Y29615D01*
X100212Y29504D01*
X100323Y29430D01*
X100434Y29356D01*
X100508Y29319D01*
X100564Y29282D01*
X100582D01*
X100841Y29189D01*
X101138Y29134D01*
X101415Y29078D01*
X101674Y29060D01*
X101897Y29041D01*
X102082Y29023D01*
X102248D01*
X102544Y29041D01*
X102822Y29060D01*
X103340Y29152D01*
X103581Y29226D01*
X103785Y29300D01*
X103970Y29375D01*
X104155Y29449D01*
X104303Y29523D01*
X104432Y29597D01*
X104562Y29671D01*
X104655Y29745D01*
X104729Y29800D01*
X104784Y29837D01*
X104803Y29874D01*
X104821D01*
X104988Y30041D01*
X105117Y30207D01*
X105247Y30393D01*
X105358Y30559D01*
X105525Y30929D01*
X105635Y31262D01*
X105691Y31559D01*
X105710Y31688D01*
X105728Y31799D01*
X105747Y31873D01*
Y31947D01*
Y31984D01*
Y32003D01*
Y33151D01*
X105728Y33539D01*
X105673Y33891D01*
X105580Y34206D01*
X105488Y34483D01*
X105413Y34705D01*
X105321Y34872D01*
X105265Y34964D01*
X105247Y35002D01*
X105043Y35279D01*
X104840Y35501D01*
X104655Y35705D01*
X104469Y35853D01*
X104321Y35983D01*
X104192Y36057D01*
X104118Y36112D01*
X104081Y36131D01*
X103822Y36242D01*
X103562Y36334D01*
X103322Y36390D01*
X103100Y36445D01*
X102896Y36464D01*
X102748Y36482D01*
X102618D01*
X102378Y36464D01*
X102137Y36445D01*
X101934Y36408D01*
X101730Y36371D01*
X101582Y36316D01*
X101452Y36279D01*
X101360Y36260D01*
X101341Y36242D01*
X101119Y36149D01*
X100916Y36038D01*
X100749Y35945D01*
X100619Y35835D01*
X100508Y35742D01*
X100416Y35686D01*
X100379Y35631D01*
X100360Y35612D01*
X100249Y35446D01*
X100157Y35261D01*
X100138Y35187D01*
X100120Y35113D01*
X100101Y35076D01*
Y35057D01*
X100064Y34872D01*
X100008Y34724D01*
X99953Y34594D01*
X99916Y34483D01*
X99860Y34409D01*
X99823Y34354D01*
X99786Y34335D01*
Y34317D01*
X99620Y34206D01*
X99435Y34150D01*
X99361D01*
X99287Y34132D01*
X99231D01*
X99083Y34150D01*
X98972Y34169D01*
X98768Y34261D01*
X98694Y34317D01*
X98639Y34354D01*
X98620Y34372D01*
X98602Y34391D01*
X98509Y34502D01*
X98454Y34650D01*
X98380Y34946D01*
X98361Y35076D01*
X98343Y35187D01*
Y35279D01*
Y35298D01*
Y36797D01*
X98361Y37019D01*
X98380Y37204D01*
X98417Y37371D01*
X98472Y37500D01*
X98528Y37593D01*
X98565Y37648D01*
X98583Y37685D01*
X98602Y37704D01*
X98694Y37797D01*
X98805Y37871D01*
X98898Y37908D01*
X99009Y37945D01*
X99102Y37963D01*
X99157Y37982D01*
X99231D01*
X99398Y37963D01*
X99527Y37926D01*
X99620Y37871D01*
X99638Y37852D01*
X99657D01*
X99786Y37760D01*
X99897Y37648D01*
X99971Y37556D01*
X99990Y37537D01*
Y37519D01*
X100434Y37760D01*
X100656Y37852D01*
X100841Y37926D01*
X101008Y37982D01*
X101138Y38019D01*
X101212Y38056D01*
X101249D01*
X101749Y38167D01*
X101989Y38204D01*
X102211Y38222D01*
X102396Y38241D01*
X102674D01*
X103137Y38222D01*
D02*
G37*
G36*
X71373Y38222D02*
X71836Y38148D01*
X72243Y38037D01*
X72595Y37926D01*
X72910Y37797D01*
X73021Y37741D01*
X73132Y37704D01*
X73225Y37648D01*
X73280Y37630D01*
X73317Y37593D01*
X73336D01*
X73743Y37334D01*
X74094Y37038D01*
X74391Y36723D01*
X74650Y36427D01*
X74853Y36149D01*
X75002Y35945D01*
X75038Y35853D01*
X75076Y35798D01*
X75113Y35760D01*
Y35742D01*
X75316Y35298D01*
X75483Y34835D01*
X75594Y34409D01*
X75668Y34021D01*
X75686Y33835D01*
X75705Y33669D01*
X75723Y33521D01*
Y33410D01*
X75742Y33299D01*
Y33225D01*
Y33187D01*
Y33169D01*
Y31966D01*
X75705Y31485D01*
X75631Y31022D01*
X75520Y30615D01*
X75390Y30244D01*
X75261Y29948D01*
X75205Y29819D01*
X75150Y29726D01*
X75094Y29634D01*
X75076Y29578D01*
X75038Y29541D01*
Y29523D01*
X74761Y29134D01*
X74465Y28801D01*
X74169Y28523D01*
X73891Y28301D01*
X73650Y28116D01*
X73465Y27986D01*
X73391Y27949D01*
X73336Y27912D01*
X73317Y27894D01*
X73299D01*
X72817Y27690D01*
X72336Y27523D01*
X71855Y27412D01*
X71411Y27338D01*
X71226Y27320D01*
X71040Y27301D01*
X70892Y27283D01*
X70744D01*
X70633Y27264D01*
X70485D01*
X69985Y27283D01*
X69523Y27338D01*
X69115Y27412D01*
X68745Y27505D01*
X68449Y27579D01*
X68319Y27616D01*
X68208Y27653D01*
X68134Y27690D01*
X68079Y27709D01*
X68042Y27727D01*
X68023D01*
X67727Y27857D01*
X67468Y28023D01*
X67227Y28171D01*
X67042Y28319D01*
X66876Y28468D01*
X66764Y28579D01*
X66690Y28653D01*
X66672Y28671D01*
X66542Y28819D01*
X66450Y28967D01*
X66394Y29097D01*
X66339Y29208D01*
X66320Y29319D01*
X66302Y29393D01*
Y29430D01*
Y29449D01*
X66320Y29578D01*
X66339Y29708D01*
X66431Y29911D01*
X66487Y29985D01*
X66542Y30041D01*
X66561Y30059D01*
X66579Y30078D01*
X66672Y30170D01*
X66783Y30244D01*
X66894Y30281D01*
X66987Y30318D01*
X67061Y30337D01*
X67135Y30356D01*
X67190D01*
X67338Y30337D01*
X67449Y30318D01*
X67523Y30281D01*
X67560Y30263D01*
X67616Y30226D01*
X67690Y30170D01*
X67820Y30059D01*
X67931Y29948D01*
X67968Y29930D01*
X67986Y29911D01*
X68153Y29745D01*
X68301Y29615D01*
X68449Y29504D01*
X68560Y29430D01*
X68671Y29356D01*
X68745Y29319D01*
X68801Y29282D01*
X68819D01*
X69078Y29189D01*
X69375Y29134D01*
X69652Y29078D01*
X69911Y29060D01*
X70133Y29041D01*
X70319Y29023D01*
X70485D01*
X70781Y29041D01*
X71059Y29060D01*
X71577Y29152D01*
X71818Y29226D01*
X72021Y29300D01*
X72206Y29375D01*
X72392Y29449D01*
X72540Y29523D01*
X72669Y29597D01*
X72799Y29671D01*
X72891Y29745D01*
X72965Y29800D01*
X73021Y29837D01*
X73039Y29874D01*
X73058D01*
X73225Y30041D01*
X73354Y30207D01*
X73484Y30393D01*
X73595Y30559D01*
X73761Y30929D01*
X73872Y31262D01*
X73928Y31559D01*
X73946Y31688D01*
X73965Y31799D01*
X73984Y31873D01*
Y31947D01*
Y31984D01*
Y32003D01*
Y33151D01*
X73965Y33539D01*
X73909Y33891D01*
X73817Y34206D01*
X73724Y34483D01*
X73650Y34705D01*
X73558Y34872D01*
X73502Y34964D01*
X73484Y35002D01*
X73280Y35279D01*
X73076Y35501D01*
X72891Y35705D01*
X72706Y35853D01*
X72558Y35983D01*
X72429Y36057D01*
X72355Y36112D01*
X72318Y36131D01*
X72058Y36242D01*
X71799Y36334D01*
X71559Y36390D01*
X71337Y36445D01*
X71133Y36464D01*
X70985Y36482D01*
X70855D01*
X70615Y36464D01*
X70374Y36445D01*
X70170Y36408D01*
X69967Y36371D01*
X69819Y36316D01*
X69689Y36279D01*
X69597Y36260D01*
X69578Y36242D01*
X69356Y36149D01*
X69152Y36038D01*
X68986Y35945D01*
X68856Y35835D01*
X68745Y35742D01*
X68653Y35686D01*
X68616Y35631D01*
X68597Y35612D01*
X68486Y35446D01*
X68393Y35261D01*
X68375Y35187D01*
X68356Y35113D01*
X68338Y35076D01*
Y35057D01*
X68301Y34872D01*
X68245Y34724D01*
X68190Y34594D01*
X68153Y34483D01*
X68097Y34409D01*
X68060Y34354D01*
X68023Y34335D01*
Y34317D01*
X67857Y34206D01*
X67672Y34150D01*
X67598D01*
X67523Y34132D01*
X67468D01*
X67320Y34150D01*
X67209Y34169D01*
X67005Y34261D01*
X66931Y34317D01*
X66876Y34354D01*
X66857Y34372D01*
X66839Y34391D01*
X66746Y34502D01*
X66690Y34650D01*
X66616Y34946D01*
X66598Y35076D01*
X66579Y35187D01*
Y35279D01*
Y35298D01*
Y36797D01*
X66598Y37019D01*
X66616Y37204D01*
X66654Y37371D01*
X66709Y37500D01*
X66764Y37593D01*
X66802Y37648D01*
X66820Y37685D01*
X66839Y37704D01*
X66931Y37797D01*
X67042Y37871D01*
X67135Y37908D01*
X67246Y37945D01*
X67338Y37963D01*
X67394Y37982D01*
X67468D01*
X67634Y37963D01*
X67764Y37926D01*
X67857Y37871D01*
X67875Y37852D01*
X67894D01*
X68023Y37760D01*
X68134Y37648D01*
X68208Y37556D01*
X68227Y37537D01*
Y37519D01*
X68671Y37760D01*
X68893Y37852D01*
X69078Y37926D01*
X69245Y37982D01*
X69375Y38019D01*
X69449Y38056D01*
X69485D01*
X69985Y38167D01*
X70226Y38204D01*
X70448Y38222D01*
X70633Y38241D01*
X70911D01*
X71373Y38222D01*
D02*
G37*
G36*
X95862Y31744D02*
X88477Y31744D01*
Y33354D01*
X95862Y33354D01*
Y31744D01*
D02*
G37*
G36*
X117519Y37963D02*
X117723Y37945D01*
X117889Y37908D01*
X118019Y37852D01*
X118111Y37797D01*
X118185Y37760D01*
X118222Y37741D01*
X118241Y37723D01*
X118333Y37630D01*
X118389Y37519D01*
X118463Y37315D01*
X118482Y37223D01*
X118500Y37167D01*
Y37112D01*
Y37093D01*
X118482Y36964D01*
X118463Y36834D01*
X118370Y36630D01*
X118315Y36556D01*
X118278Y36501D01*
X118259Y36482D01*
X118241Y36464D01*
X118111Y36390D01*
X117982Y36334D01*
X117667Y36260D01*
X117519Y36242D01*
X117408Y36223D01*
X117297D01*
Y29300D01*
X117519Y29282D01*
X117723Y29263D01*
X117889Y29226D01*
X118019Y29171D01*
X118111Y29115D01*
X118185Y29078D01*
X118222Y29060D01*
X118241Y29041D01*
X118333Y28949D01*
X118389Y28838D01*
X118463Y28634D01*
X118482Y28542D01*
X118500Y28486D01*
Y28431D01*
Y28412D01*
X118482Y28282D01*
X118463Y28153D01*
X118370Y27949D01*
X118315Y27875D01*
X118278Y27820D01*
X118259Y27801D01*
X118241Y27783D01*
X118111Y27709D01*
X117982Y27653D01*
X117667Y27579D01*
X117519Y27560D01*
X117408Y27542D01*
X113724D01*
X113225Y27560D01*
X112780Y27597D01*
X112410Y27672D01*
X112077Y27746D01*
X111818Y27801D01*
X111633Y27875D01*
X111577Y27894D01*
X111522Y27912D01*
X111503Y27931D01*
X111485D01*
X111281Y28042D01*
X111059Y28171D01*
X110874Y28301D01*
X110689Y28431D01*
X110541Y28542D01*
X110430Y28634D01*
X110337Y28708D01*
X110319Y28727D01*
X110097Y28949D01*
X109893Y29189D01*
X109726Y29430D01*
X109578Y29652D01*
X109449Y29856D01*
X109375Y30004D01*
X109319Y30115D01*
X109300Y30133D01*
Y30152D01*
X109171Y30485D01*
X109078Y30837D01*
X109004Y31170D01*
X108967Y31466D01*
X108930Y31744D01*
X108912Y31947D01*
Y32021D01*
Y32077D01*
Y32114D01*
Y32133D01*
Y32984D01*
Y33317D01*
X108949Y33613D01*
X108986Y33891D01*
X109023Y34113D01*
X109060Y34298D01*
X109097Y34428D01*
X109115Y34502D01*
X109134Y34539D01*
X109227Y34779D01*
X109319Y35002D01*
X109430Y35224D01*
X109523Y35409D01*
X109615Y35575D01*
X109689Y35705D01*
X109745Y35779D01*
X109763Y35816D01*
X109911Y36038D01*
X110059Y36242D01*
X110189Y36427D01*
X110300Y36575D01*
X110393Y36686D01*
X110467Y36760D01*
X110522Y36816D01*
X110541Y36834D01*
X110744Y37019D01*
X110966Y37167D01*
X111189Y37315D01*
X111411Y37426D01*
X111596Y37519D01*
X111744Y37593D01*
X111855Y37630D01*
X111873Y37648D01*
X111892D01*
X112207Y37760D01*
X112503Y37834D01*
X112780Y37889D01*
X113040Y37926D01*
X113262Y37945D01*
X113428Y37963D01*
X113576D01*
X117297Y37982D01*
X117519Y37963D01*
D02*
G37*
G36*
X85756Y37963D02*
X85959Y37945D01*
X86126Y37908D01*
X86256Y37852D01*
X86348Y37797D01*
X86422Y37760D01*
X86459Y37741D01*
X86478Y37723D01*
X86570Y37630D01*
X86626Y37519D01*
X86700Y37315D01*
X86718Y37223D01*
X86737Y37167D01*
Y37112D01*
Y37093D01*
X86718Y36964D01*
X86700Y36834D01*
X86607Y36630D01*
X86552Y36556D01*
X86515Y36501D01*
X86496Y36482D01*
X86478Y36464D01*
X86348Y36390D01*
X86219Y36334D01*
X85904Y36260D01*
X85756Y36242D01*
X85645Y36223D01*
X85534D01*
Y29300D01*
X85756Y29282D01*
X85959Y29263D01*
X86126Y29226D01*
X86256Y29171D01*
X86348Y29115D01*
X86422Y29078D01*
X86459Y29060D01*
X86478Y29041D01*
X86570Y28949D01*
X86626Y28838D01*
X86700Y28634D01*
X86718Y28541D01*
X86737Y28486D01*
Y28431D01*
Y28412D01*
X86718Y28282D01*
X86700Y28153D01*
X86607Y27949D01*
X86552Y27875D01*
X86515Y27820D01*
X86496Y27801D01*
X86478Y27783D01*
X86348Y27709D01*
X86219Y27653D01*
X85904Y27579D01*
X85756Y27560D01*
X85645Y27542D01*
X81961D01*
X81462Y27560D01*
X81017Y27597D01*
X80647Y27672D01*
X80314Y27746D01*
X80055Y27801D01*
X79870Y27875D01*
X79814Y27894D01*
X79759Y27912D01*
X79740Y27931D01*
X79722D01*
X79518Y28042D01*
X79296Y28171D01*
X79111Y28301D01*
X78926Y28431D01*
X78777Y28541D01*
X78667Y28634D01*
X78574Y28708D01*
X78555Y28727D01*
X78333Y28949D01*
X78130Y29189D01*
X77963Y29430D01*
X77815Y29652D01*
X77685Y29856D01*
X77611Y30004D01*
X77556Y30115D01*
X77537Y30133D01*
Y30152D01*
X77408Y30485D01*
X77315Y30837D01*
X77241Y31170D01*
X77204Y31466D01*
X77167Y31744D01*
X77149Y31947D01*
Y32021D01*
Y32077D01*
Y32114D01*
Y32133D01*
Y32984D01*
Y33317D01*
X77186Y33613D01*
X77223Y33891D01*
X77260Y34113D01*
X77297Y34298D01*
X77334Y34428D01*
X77352Y34502D01*
X77371Y34539D01*
X77463Y34779D01*
X77556Y35002D01*
X77667Y35224D01*
X77759Y35409D01*
X77852Y35575D01*
X77926Y35705D01*
X77982Y35779D01*
X78000Y35816D01*
X78148Y36038D01*
X78296Y36242D01*
X78426Y36427D01*
X78537Y36575D01*
X78629Y36686D01*
X78703Y36760D01*
X78759Y36816D01*
X78777Y36834D01*
X78981Y37019D01*
X79203Y37167D01*
X79425Y37315D01*
X79647Y37426D01*
X79833Y37519D01*
X79981Y37593D01*
X80092Y37630D01*
X80110Y37648D01*
X80129D01*
X80443Y37760D01*
X80740Y37834D01*
X81017Y37889D01*
X81276Y37926D01*
X81498Y37945D01*
X81665Y37963D01*
X81813D01*
X85534Y37982D01*
X85756Y37963D01*
D02*
G37*
G36*
X114132Y25158D02*
X114594Y25084D01*
X115002Y24973D01*
X115353Y24862D01*
X115668Y24732D01*
X115779Y24677D01*
X115890Y24640D01*
X115983Y24584D01*
X116038Y24566D01*
X116075Y24529D01*
X116094D01*
X116501Y24269D01*
X116853Y23973D01*
X117149Y23659D01*
X117408Y23362D01*
X117612Y23085D01*
X117760Y22881D01*
X117797Y22789D01*
X117834Y22733D01*
X117871Y22696D01*
Y22678D01*
X118074Y22233D01*
X118241Y21771D01*
X118352Y21345D01*
X118426Y20956D01*
X118445Y20771D01*
X118463Y20605D01*
X118482Y20456D01*
Y20345D01*
X118500Y20234D01*
Y20160D01*
Y20123D01*
Y20105D01*
Y18902D01*
X118463Y18420D01*
X118389Y17957D01*
X118278Y17550D01*
X118148Y17180D01*
X118019Y16884D01*
X117963Y16754D01*
X117908Y16662D01*
X117852Y16569D01*
X117834Y16514D01*
X117797Y16477D01*
Y16458D01*
X117519Y16070D01*
X117223Y15736D01*
X116927Y15459D01*
X116649Y15237D01*
X116408Y15052D01*
X116223Y14922D01*
X116149Y14885D01*
X116094Y14848D01*
X116075Y14829D01*
X116057D01*
X115575Y14626D01*
X115094Y14459D01*
X114613Y14348D01*
X114169Y14274D01*
X113984Y14255D01*
X113798Y14237D01*
X113650Y14219D01*
X113502D01*
X113391Y14200D01*
X113243D01*
X112743Y14219D01*
X112281Y14274D01*
X111873Y14348D01*
X111503Y14441D01*
X111207Y14515D01*
X111077Y14552D01*
X110966Y14589D01*
X110892Y14626D01*
X110837Y14644D01*
X110800Y14663D01*
X110781D01*
X110485Y14792D01*
X110226Y14959D01*
X109985Y15107D01*
X109800Y15255D01*
X109634Y15403D01*
X109523Y15514D01*
X109449Y15588D01*
X109430Y15607D01*
X109300Y15755D01*
X109208Y15903D01*
X109152Y16033D01*
X109097Y16143D01*
X109078Y16255D01*
X109060Y16329D01*
Y16366D01*
Y16384D01*
X109078Y16514D01*
X109097Y16643D01*
X109189Y16847D01*
X109245Y16921D01*
X109300Y16976D01*
X109319Y16995D01*
X109338Y17014D01*
X109430Y17106D01*
X109541Y17180D01*
X109652Y17217D01*
X109745Y17254D01*
X109819Y17273D01*
X109893Y17291D01*
X109948D01*
X110097Y17273D01*
X110207Y17254D01*
X110282Y17217D01*
X110319Y17199D01*
X110374Y17162D01*
X110448Y17106D01*
X110578Y16995D01*
X110689Y16884D01*
X110726Y16865D01*
X110744Y16847D01*
X110911Y16680D01*
X111059Y16551D01*
X111207Y16440D01*
X111318Y16366D01*
X111429Y16292D01*
X111503Y16255D01*
X111559Y16218D01*
X111577D01*
X111836Y16125D01*
X112133Y16070D01*
X112410Y16014D01*
X112669Y15995D01*
X112891Y15977D01*
X113077Y15958D01*
X113243D01*
X113539Y15977D01*
X113817Y15995D01*
X114335Y16088D01*
X114576Y16162D01*
X114779Y16236D01*
X114965Y16310D01*
X115150Y16384D01*
X115298Y16458D01*
X115427Y16532D01*
X115557Y16606D01*
X115649Y16680D01*
X115724Y16736D01*
X115779Y16773D01*
X115797Y16810D01*
X115816D01*
X115983Y16976D01*
X116112Y17143D01*
X116242Y17328D01*
X116353Y17495D01*
X116519Y17865D01*
X116630Y18198D01*
X116686Y18494D01*
X116704Y18624D01*
X116723Y18735D01*
X116742Y18809D01*
Y18883D01*
Y18920D01*
Y18939D01*
Y20086D01*
X116723Y20475D01*
X116667Y20827D01*
X116575Y21141D01*
X116482Y21419D01*
X116408Y21641D01*
X116316Y21808D01*
X116260Y21900D01*
X116242Y21937D01*
X116038Y22215D01*
X115835Y22437D01*
X115649Y22641D01*
X115464Y22789D01*
X115316Y22918D01*
X115187Y22992D01*
X115113Y23048D01*
X115076Y23066D01*
X114816Y23177D01*
X114557Y23270D01*
X114317Y23325D01*
X114095Y23381D01*
X113891Y23400D01*
X113743Y23418D01*
X113613D01*
X113373Y23400D01*
X113132Y23381D01*
X112928Y23344D01*
X112725Y23307D01*
X112577Y23251D01*
X112447Y23214D01*
X112355Y23196D01*
X112336Y23177D01*
X112114Y23085D01*
X111910Y22974D01*
X111744Y22881D01*
X111614Y22770D01*
X111503Y22678D01*
X111411Y22622D01*
X111374Y22567D01*
X111355Y22548D01*
X111244Y22381D01*
X111152Y22196D01*
X111133Y22122D01*
X111115Y22048D01*
X111096Y22011D01*
Y21993D01*
X111059Y21808D01*
X111003Y21659D01*
X110948Y21530D01*
X110911Y21419D01*
X110855Y21345D01*
X110818Y21289D01*
X110781Y21271D01*
Y21252D01*
X110615Y21141D01*
X110430Y21086D01*
X110356D01*
X110282Y21067D01*
X110226D01*
X110078Y21086D01*
X109967Y21104D01*
X109763Y21197D01*
X109689Y21252D01*
X109634Y21289D01*
X109615Y21308D01*
X109597Y21326D01*
X109504Y21437D01*
X109449Y21586D01*
X109375Y21882D01*
X109356Y22011D01*
X109338Y22122D01*
Y22215D01*
Y22233D01*
Y23733D01*
X109356Y23955D01*
X109375Y24140D01*
X109412Y24306D01*
X109467Y24436D01*
X109523Y24529D01*
X109560Y24584D01*
X109578Y24621D01*
X109597Y24640D01*
X109689Y24732D01*
X109800Y24806D01*
X109893Y24843D01*
X110004Y24880D01*
X110097Y24899D01*
X110152Y24917D01*
X110226D01*
X110393Y24899D01*
X110522Y24862D01*
X110615Y24806D01*
X110633Y24788D01*
X110652D01*
X110781Y24695D01*
X110892Y24584D01*
X110966Y24492D01*
X110985Y24473D01*
Y24454D01*
X111429Y24695D01*
X111651Y24788D01*
X111836Y24862D01*
X112003Y24917D01*
X112133Y24954D01*
X112207Y24991D01*
X112244D01*
X112743Y25102D01*
X112984Y25139D01*
X113206Y25158D01*
X113391Y25176D01*
X113669D01*
X114132Y25158D01*
D02*
G37*
G36*
X43720Y24899D02*
X43923Y24880D01*
X44090Y24843D01*
X44219Y24788D01*
X44312Y24732D01*
X44386Y24695D01*
X44423Y24677D01*
X44442Y24658D01*
X44534Y24566D01*
X44590Y24454D01*
X44664Y24251D01*
X44682Y24158D01*
X44701Y24103D01*
Y24047D01*
Y24029D01*
X44682Y23899D01*
X44664Y23770D01*
X44571Y23566D01*
X44515Y23492D01*
X44478Y23437D01*
X44460Y23418D01*
X44442Y23400D01*
X44312Y23325D01*
X44182Y23270D01*
X43868Y23196D01*
X43720Y23177D01*
X43608Y23159D01*
X43220D01*
Y16236D01*
X43497D01*
X43720Y16218D01*
X43923Y16199D01*
X44090Y16162D01*
X44219Y16106D01*
X44312Y16051D01*
X44386Y16014D01*
X44423Y15995D01*
X44442Y15977D01*
X44534Y15884D01*
X44590Y15773D01*
X44664Y15570D01*
X44682Y15477D01*
X44701Y15422D01*
Y15366D01*
Y15348D01*
X44682Y15218D01*
X44664Y15089D01*
X44571Y14885D01*
X44515Y14811D01*
X44478Y14755D01*
X44460Y14737D01*
X44442Y14718D01*
X44312Y14644D01*
X44182Y14589D01*
X43868Y14515D01*
X43720Y14496D01*
X43608Y14478D01*
X35186D01*
Y17199D01*
X35205Y17421D01*
X35223Y17624D01*
X35260Y17772D01*
X35316Y17902D01*
X35372Y17995D01*
X35409Y18069D01*
X35427Y18106D01*
X35446Y18124D01*
X35538Y18217D01*
X35649Y18291D01*
X35742Y18328D01*
X35853Y18365D01*
X35945Y18383D01*
X36001Y18402D01*
X36075D01*
X36204Y18383D01*
X36334Y18365D01*
X36538Y18272D01*
X36612Y18217D01*
X36667Y18161D01*
X36686Y18143D01*
X36704Y18124D01*
X36778Y18013D01*
X36834Y17865D01*
X36908Y17550D01*
X36926Y17421D01*
X36945Y17310D01*
Y17236D01*
Y17199D01*
Y16236D01*
X41461D01*
Y18827D01*
X39906D01*
Y18605D01*
X39888Y18420D01*
X39851Y18272D01*
X39832Y18161D01*
X39796Y18069D01*
X39777Y18013D01*
X39759Y17995D01*
Y17976D01*
X39629Y17865D01*
X39499Y17772D01*
X39388Y17717D01*
X39277Y17661D01*
X39185Y17643D01*
X39111Y17624D01*
X39037D01*
X38888Y17643D01*
X38759Y17680D01*
X38537Y17809D01*
X38444Y17865D01*
X38370Y17921D01*
X38333Y17957D01*
X38315Y17976D01*
X38259Y18069D01*
X38222Y18180D01*
X38167Y18476D01*
X38148Y18605D01*
Y18716D01*
Y18790D01*
Y18827D01*
Y20586D01*
X38167Y20808D01*
X38185Y21012D01*
X38222Y21160D01*
X38278Y21289D01*
X38333Y21382D01*
X38370Y21456D01*
X38389Y21493D01*
X38407Y21511D01*
X38500Y21604D01*
X38611Y21678D01*
X38703Y21715D01*
X38814Y21752D01*
X38907Y21771D01*
X38963Y21789D01*
X39037D01*
X39185Y21771D01*
X39314Y21734D01*
X39536Y21604D01*
X39629Y21530D01*
X39703Y21474D01*
X39740Y21437D01*
X39759Y21419D01*
X39814Y21326D01*
X39851Y21215D01*
X39888Y20938D01*
X39906Y20808D01*
Y20697D01*
Y20623D01*
Y20586D01*
X41461D01*
Y23159D01*
X37315D01*
Y22233D01*
X37297Y22011D01*
X37278Y21808D01*
X37241Y21641D01*
X37186Y21511D01*
X37149Y21419D01*
X37111Y21345D01*
X37093Y21308D01*
X37075Y21289D01*
X36982Y21197D01*
X36871Y21141D01*
X36667Y21067D01*
X36575Y21049D01*
X36501Y21030D01*
X36445D01*
X36297Y21049D01*
X36186Y21067D01*
X35982Y21160D01*
X35908Y21215D01*
X35853Y21252D01*
X35834Y21271D01*
X35816Y21289D01*
X35723Y21419D01*
X35668Y21549D01*
X35594Y21863D01*
X35575Y22011D01*
X35557Y22122D01*
Y22196D01*
Y22233D01*
Y24899D01*
X43497Y24917D01*
X43720Y24899D01*
D02*
G37*
G36*
X54826Y21493D02*
X54807Y21271D01*
X54789Y21067D01*
X54752Y20901D01*
X54696Y20771D01*
X54659Y20678D01*
X54622Y20604D01*
X54603Y20567D01*
X54585Y20549D01*
X54492Y20456D01*
X54381Y20401D01*
X54178Y20327D01*
X54085Y20308D01*
X54011Y20290D01*
X53956D01*
X53808Y20308D01*
X53697Y20327D01*
X53493Y20419D01*
X53419Y20475D01*
X53363Y20512D01*
X53345Y20530D01*
X53326Y20549D01*
X53234Y20678D01*
X53178Y20808D01*
X53104Y21123D01*
X53086Y21271D01*
X53067Y21382D01*
Y21456D01*
Y21493D01*
Y23159D01*
X51142D01*
Y16236D01*
X52327D01*
X52549Y16218D01*
X52753Y16199D01*
X52919Y16162D01*
X53049Y16106D01*
X53141Y16051D01*
X53215Y16014D01*
X53252Y15995D01*
X53271Y15977D01*
X53363Y15884D01*
X53419Y15773D01*
X53493Y15570D01*
X53511Y15477D01*
X53530Y15422D01*
Y15366D01*
Y15348D01*
X53511Y15218D01*
X53493Y15089D01*
X53400Y14885D01*
X53345Y14811D01*
X53308Y14755D01*
X53289Y14737D01*
X53271Y14718D01*
X53141Y14644D01*
X53012Y14589D01*
X52697Y14515D01*
X52549Y14496D01*
X52438Y14478D01*
X48199D01*
X47977Y14496D01*
X47773Y14515D01*
X47625Y14552D01*
X47496Y14607D01*
X47403Y14644D01*
X47329Y14681D01*
X47292Y14700D01*
X47273Y14718D01*
X47181Y14811D01*
X47107Y14922D01*
X47070Y15033D01*
X47033Y15125D01*
X47014Y15218D01*
X46996Y15292D01*
Y15329D01*
Y15348D01*
X47014Y15496D01*
X47033Y15607D01*
X47125Y15810D01*
X47181Y15884D01*
X47236Y15940D01*
X47255Y15958D01*
X47273Y15977D01*
X47385Y16070D01*
X47533Y16125D01*
X47847Y16199D01*
X47977Y16218D01*
X48088Y16236D01*
X49384D01*
Y23159D01*
X47440D01*
Y21493D01*
X47422Y21271D01*
X47403Y21067D01*
X47366Y20901D01*
X47311Y20771D01*
X47273Y20678D01*
X47236Y20604D01*
X47218Y20567D01*
X47199Y20549D01*
X47107Y20456D01*
X46996Y20401D01*
X46792Y20327D01*
X46700Y20308D01*
X46626Y20290D01*
X46570D01*
X46422Y20308D01*
X46311Y20327D01*
X46107Y20419D01*
X46033Y20475D01*
X45978Y20512D01*
X45959Y20530D01*
X45941Y20549D01*
X45848Y20678D01*
X45793Y20808D01*
X45719Y21123D01*
X45700Y21271D01*
X45682Y21382D01*
Y21456D01*
Y21493D01*
Y24917D01*
X54826D01*
Y21493D01*
D02*
G37*
G36*
X97084Y24899D02*
X97287Y24880D01*
X97454Y24843D01*
X97584Y24788D01*
X97676Y24732D01*
X97750Y24695D01*
X97787Y24677D01*
X97806Y24658D01*
X97898Y24566D01*
X97954Y24454D01*
X98028Y24251D01*
X98046Y24158D01*
X98065Y24103D01*
Y24047D01*
Y24029D01*
X98046Y23899D01*
X98028Y23770D01*
X97935Y23566D01*
X97880Y23492D01*
X97843Y23437D01*
X97824Y23418D01*
X97806Y23400D01*
X97676Y23325D01*
X97547Y23270D01*
X97232Y23196D01*
X97084Y23177D01*
X96973Y23159D01*
X96584D01*
Y16236D01*
X96806Y16218D01*
X97010Y16199D01*
X97176Y16162D01*
X97306Y16106D01*
X97399Y16051D01*
X97473Y16014D01*
X97510Y15995D01*
X97528Y15977D01*
X97621Y15884D01*
X97676Y15773D01*
X97750Y15570D01*
X97769Y15477D01*
X97787Y15422D01*
Y15366D01*
Y15348D01*
X97769Y15218D01*
X97750Y15089D01*
X97658Y14885D01*
X97602Y14811D01*
X97565Y14755D01*
X97547Y14737D01*
X97528Y14718D01*
X97399Y14644D01*
X97269Y14589D01*
X96954Y14515D01*
X96806Y14496D01*
X96695Y14478D01*
X94196D01*
X93974Y14496D01*
X93771Y14515D01*
X93623Y14552D01*
X93493Y14607D01*
X93400Y14644D01*
X93326Y14681D01*
X93289Y14700D01*
X93271Y14718D01*
X93178Y14811D01*
X93104Y14922D01*
X93067Y15033D01*
X93030Y15125D01*
X93012Y15218D01*
X92993Y15292D01*
Y15329D01*
Y15348D01*
X93012Y15496D01*
X93030Y15607D01*
X93123Y15810D01*
X93178Y15884D01*
X93234Y15940D01*
X93252Y15958D01*
X93271Y15977D01*
X93382Y16070D01*
X93530Y16125D01*
X93845Y16199D01*
X93974Y16218D01*
X94085Y16236D01*
X94826D01*
Y21567D01*
X90235Y14478D01*
X88514Y14478D01*
Y23159D01*
X88292Y23177D01*
X88088Y23196D01*
X87940Y23233D01*
X87810Y23288D01*
X87718Y23325D01*
X87644Y23362D01*
X87607Y23381D01*
X87588Y23400D01*
X87496Y23492D01*
X87482Y23512D01*
X87422Y23437D01*
X87366Y23362D01*
X87329Y23325D01*
X87311Y23307D01*
X87218Y23251D01*
X87107Y23214D01*
X86977Y23196D01*
X86848Y23177D01*
X86718Y23159D01*
X86496D01*
X82850Y14478D01*
X81165D01*
X77537Y23159D01*
X77315D01*
X77130Y23177D01*
X76982Y23214D01*
X76871Y23233D01*
X76797Y23270D01*
X76741Y23288D01*
X76704Y23307D01*
X76575Y23437D01*
X76482Y23566D01*
X76427Y23677D01*
X76405Y23721D01*
X76334Y23566D01*
X76279Y23492D01*
X76242Y23437D01*
X76223Y23418D01*
X76205Y23400D01*
X76075Y23325D01*
X75946Y23270D01*
X75631Y23196D01*
X75483Y23177D01*
X75372Y23159D01*
X74983D01*
Y16236D01*
X75261D01*
X75483Y16218D01*
X75686Y16199D01*
X75853Y16162D01*
X75982Y16106D01*
X76075Y16051D01*
X76149Y16014D01*
X76186Y15995D01*
X76205Y15977D01*
X76297Y15884D01*
X76353Y15773D01*
X76427Y15570D01*
X76445Y15477D01*
X76464Y15422D01*
Y15366D01*
Y15348D01*
X76445Y15218D01*
X76427Y15089D01*
X76334Y14885D01*
X76279Y14811D01*
X76242Y14755D01*
X76223Y14737D01*
X76205Y14718D01*
X76075Y14644D01*
X75946Y14589D01*
X75631Y14515D01*
X75483Y14496D01*
X75372Y14478D01*
X66950D01*
Y17199D01*
X66968Y17421D01*
X66987Y17624D01*
X67024Y17772D01*
X67079Y17902D01*
X67135Y17995D01*
X67172Y18069D01*
X67190Y18106D01*
X67209Y18124D01*
X67301Y18217D01*
X67412Y18291D01*
X67505Y18328D01*
X67616Y18365D01*
X67709Y18383D01*
X67764Y18402D01*
X67838D01*
X67968Y18383D01*
X68097Y18365D01*
X68301Y18272D01*
X68375Y18217D01*
X68430Y18161D01*
X68449Y18143D01*
X68467Y18124D01*
X68542Y18013D01*
X68597Y17865D01*
X68671Y17550D01*
X68690Y17421D01*
X68708Y17310D01*
Y17236D01*
Y17199D01*
Y16236D01*
X73225D01*
Y18827D01*
X71670D01*
Y18605D01*
X71651Y18420D01*
X71614Y18272D01*
X71596Y18161D01*
X71559Y18069D01*
X71540Y18013D01*
X71522Y17995D01*
Y17976D01*
X71392Y17865D01*
X71263Y17772D01*
X71151Y17717D01*
X71040Y17661D01*
X70948Y17643D01*
X70874Y17624D01*
X70800D01*
X70652Y17643D01*
X70522Y17680D01*
X70300Y17809D01*
X70207Y17865D01*
X70133Y17921D01*
X70096Y17957D01*
X70078Y17976D01*
X70022Y18069D01*
X69985Y18180D01*
X69930Y18476D01*
X69911Y18605D01*
Y18716D01*
Y18790D01*
Y18827D01*
Y20586D01*
X69930Y20808D01*
X69948Y21012D01*
X69985Y21160D01*
X70041Y21289D01*
X70096Y21382D01*
X70133Y21456D01*
X70152Y21493D01*
X70170Y21511D01*
X70263Y21604D01*
X70374Y21678D01*
X70467Y21715D01*
X70578Y21752D01*
X70670Y21771D01*
X70726Y21789D01*
X70800D01*
X70948Y21771D01*
X71077Y21734D01*
X71299Y21604D01*
X71392Y21530D01*
X71466Y21474D01*
X71503Y21437D01*
X71522Y21419D01*
X71577Y21326D01*
X71614Y21215D01*
X71651Y20938D01*
X71670Y20808D01*
Y20697D01*
Y20623D01*
Y20586D01*
X73225D01*
Y23159D01*
X69078D01*
Y22233D01*
X69060Y22011D01*
X69041Y21808D01*
X69004Y21641D01*
X68949Y21511D01*
X68912Y21419D01*
X68875Y21345D01*
X68856Y21308D01*
X68838Y21289D01*
X68745Y21197D01*
X68634Y21141D01*
X68430Y21067D01*
X68338Y21049D01*
X68264Y21030D01*
X68208D01*
X68060Y21049D01*
X67949Y21067D01*
X67746Y21160D01*
X67672Y21215D01*
X67616Y21252D01*
X67598Y21271D01*
X67579Y21289D01*
X67486Y21419D01*
X67431Y21549D01*
X67357Y21863D01*
X67338Y22011D01*
X67320Y22122D01*
Y22196D01*
Y22233D01*
Y24899D01*
X75261Y24917D01*
X75483Y24899D01*
X75686Y24880D01*
X75853Y24843D01*
X75982Y24788D01*
X76075Y24732D01*
X76149Y24695D01*
X76186Y24677D01*
X76205Y24658D01*
X76297Y24566D01*
X76353Y24454D01*
X76395Y24339D01*
X76464Y24492D01*
X76519Y24566D01*
X76575Y24621D01*
X76593Y24640D01*
X76612Y24658D01*
X76723Y24751D01*
X76871Y24806D01*
X77186Y24880D01*
X77315Y24899D01*
X77426Y24917D01*
X79870D01*
X80092Y24899D01*
X80295Y24880D01*
X80462Y24843D01*
X80591Y24788D01*
X80684Y24732D01*
X80758Y24695D01*
X80795Y24677D01*
X80814Y24658D01*
X80906Y24566D01*
X80962Y24454D01*
X81036Y24251D01*
X81054Y24158D01*
X81073Y24103D01*
Y24047D01*
Y24029D01*
X81054Y23899D01*
X81036Y23770D01*
X80943Y23566D01*
X80888Y23492D01*
X80851Y23437D01*
X80832Y23418D01*
X80814Y23400D01*
X80684Y23325D01*
X80554Y23270D01*
X80240Y23196D01*
X80092Y23177D01*
X79981Y23159D01*
X79462D01*
X82017Y17051D01*
X84571Y23159D01*
X84164D01*
X83942Y23177D01*
X83738Y23196D01*
X83590Y23233D01*
X83461Y23288D01*
X83368Y23325D01*
X83294Y23362D01*
X83257Y23381D01*
X83239Y23400D01*
X83146Y23492D01*
X83072Y23603D01*
X83035Y23714D01*
X82998Y23807D01*
X82979Y23899D01*
X82961Y23973D01*
Y24010D01*
Y24029D01*
X82979Y24177D01*
X82998Y24288D01*
X83090Y24492D01*
X83146Y24566D01*
X83201Y24621D01*
X83220Y24640D01*
X83239Y24658D01*
X83350Y24751D01*
X83498Y24806D01*
X83812Y24880D01*
X83942Y24899D01*
X84053Y24917D01*
X86496D01*
X86718Y24899D01*
X86903Y24880D01*
X87070Y24843D01*
X87200Y24788D01*
X87292Y24732D01*
X87348Y24695D01*
X87385Y24677D01*
X87403Y24658D01*
X87496Y24566D01*
X87551Y24621D01*
X87570Y24640D01*
X87588Y24658D01*
X87699Y24751D01*
X87847Y24806D01*
X88162Y24880D01*
X88292Y24899D01*
X88403Y24917D01*
X90902Y24917D01*
X91124Y24899D01*
X91327Y24880D01*
X91494Y24843D01*
X91624Y24788D01*
X91716Y24732D01*
X91790Y24695D01*
X91827Y24677D01*
X91846Y24658D01*
X91938Y24566D01*
X91994Y24454D01*
X92068Y24251D01*
X92086Y24158D01*
X92105Y24103D01*
Y24047D01*
Y24029D01*
X92086Y23899D01*
X92068Y23770D01*
X91975Y23566D01*
X91920Y23492D01*
X91883Y23437D01*
X91864Y23418D01*
X91846Y23400D01*
X91716Y23325D01*
X91587Y23270D01*
X91272Y23196D01*
X91124Y23177D01*
X91013Y23159D01*
X90272D01*
Y17828D01*
X94863Y24917D01*
X96862D01*
X97084Y24899D01*
D02*
G37*
G36*
X64913Y24899D02*
X65117Y24880D01*
X65284Y24843D01*
X65413Y24788D01*
X65506Y24732D01*
X65580Y24695D01*
X65617Y24677D01*
X65635Y24658D01*
X65728Y24566D01*
X65784Y24454D01*
X65858Y24251D01*
X65876Y24158D01*
X65895Y24103D01*
Y24047D01*
Y24029D01*
X65876Y23899D01*
X65858Y23770D01*
X65765Y23566D01*
X65710Y23492D01*
X65672Y23437D01*
X65654Y23418D01*
X65635Y23400D01*
X65506Y23325D01*
X65376Y23270D01*
X65062Y23196D01*
X64913Y23177D01*
X64802Y23159D01*
X64414D01*
Y16236D01*
X64691D01*
X64913Y16218D01*
X65117Y16199D01*
X65284Y16162D01*
X65413Y16106D01*
X65506Y16051D01*
X65580Y16014D01*
X65617Y15995D01*
X65635Y15977D01*
X65728Y15884D01*
X65784Y15773D01*
X65858Y15570D01*
X65876Y15477D01*
X65895Y15422D01*
Y15366D01*
Y15348D01*
X65876Y15218D01*
X65858Y15089D01*
X65765Y14885D01*
X65710Y14811D01*
X65672Y14755D01*
X65654Y14737D01*
X65635Y14718D01*
X65506Y14644D01*
X65376Y14589D01*
X65062Y14515D01*
X64913Y14496D01*
X64802Y14478D01*
X62026D01*
X61804Y14496D01*
X61600Y14515D01*
X61452Y14552D01*
X61323Y14607D01*
X61230Y14644D01*
X61156Y14681D01*
X61119Y14700D01*
X61101Y14718D01*
X61008Y14811D01*
X60934Y14922D01*
X60897Y15033D01*
X60860Y15125D01*
X60841Y15218D01*
X60823Y15292D01*
Y15329D01*
Y15348D01*
X60841Y15496D01*
X60860Y15607D01*
X60952Y15810D01*
X61008Y15884D01*
X61063Y15940D01*
X61082Y15958D01*
X61101Y15977D01*
X61212Y16070D01*
X61360Y16125D01*
X61674Y16199D01*
X61804Y16218D01*
X61915Y16236D01*
X62655D01*
Y18476D01*
X60915D01*
X60638Y18328D01*
X60360Y18106D01*
X60064Y17846D01*
X59768Y17569D01*
X59472Y17254D01*
X59175Y16902D01*
X58602Y16218D01*
X58361Y15884D01*
X58120Y15570D01*
X57898Y15274D01*
X57713Y15014D01*
X57565Y14792D01*
X57454Y14626D01*
X57380Y14515D01*
X57362Y14496D01*
Y14478D01*
X56454D01*
X56232Y14496D01*
X56029Y14515D01*
X55881Y14552D01*
X55751Y14607D01*
X55659Y14644D01*
X55585Y14681D01*
X55547Y14700D01*
X55529Y14718D01*
X55436Y14811D01*
X55362Y14922D01*
X55325Y15033D01*
X55288Y15125D01*
X55270Y15218D01*
X55251Y15292D01*
Y15329D01*
Y15348D01*
X55270Y15496D01*
X55307Y15625D01*
X55418Y15847D01*
X55492Y15940D01*
X55547Y16014D01*
X55585Y16051D01*
X55603Y16070D01*
X55696Y16125D01*
X55825Y16162D01*
X56103Y16218D01*
X56232Y16236D01*
X56454D01*
X56695Y16606D01*
X56917Y16921D01*
X57102Y17180D01*
X57250Y17402D01*
X57362Y17569D01*
X57454Y17680D01*
X57510Y17754D01*
X57528Y17772D01*
X57769Y18050D01*
X57991Y18291D01*
X58194Y18513D01*
X58380Y18679D01*
X58528Y18827D01*
X58639Y18939D01*
X58713Y19013D01*
X58731Y19031D01*
X58380Y19235D01*
X58083Y19438D01*
X57843Y19642D01*
X57639Y19827D01*
X57472Y19975D01*
X57362Y20105D01*
X57287Y20179D01*
X57269Y20216D01*
X57102Y20475D01*
X56973Y20734D01*
X56899Y20993D01*
X56825Y21234D01*
X56788Y21437D01*
X56769Y21586D01*
Y21697D01*
Y21734D01*
X56788Y21974D01*
X56806Y22215D01*
X56936Y22640D01*
X57102Y23029D01*
X57287Y23362D01*
X57472Y23622D01*
X57565Y23733D01*
X57639Y23825D01*
X57713Y23899D01*
X57769Y23955D01*
X57787Y23973D01*
X57806Y23992D01*
X58009Y24158D01*
X58231Y24306D01*
X58454Y24418D01*
X58694Y24529D01*
X59175Y24695D01*
X59638Y24806D01*
X59860Y24843D01*
X60064Y24862D01*
X60249Y24899D01*
X60397D01*
X60527Y24917D01*
X64691D01*
X64913Y24899D01*
D02*
G37*
G36*
X33150D02*
X33354Y24880D01*
X33521Y24843D01*
X33650Y24788D01*
X33743Y24732D01*
X33817Y24695D01*
X33854Y24677D01*
X33872Y24658D01*
X33965Y24566D01*
X34020Y24454D01*
X34094Y24251D01*
X34113Y24158D01*
X34131Y24103D01*
Y24047D01*
Y24029D01*
X34113Y23899D01*
X34094Y23770D01*
X34002Y23566D01*
X33946Y23492D01*
X33909Y23437D01*
X33891Y23418D01*
X33872Y23400D01*
X33743Y23325D01*
X33613Y23270D01*
X33299Y23196D01*
X33150Y23177D01*
X33039Y23159D01*
X32651Y23159D01*
Y16236D01*
X32928Y16236D01*
X33150Y16218D01*
X33354Y16199D01*
X33521Y16162D01*
X33650Y16106D01*
X33743Y16051D01*
X33817Y16014D01*
X33854Y15995D01*
X33872Y15977D01*
X33965Y15884D01*
X34020Y15773D01*
X34094Y15570D01*
X34113Y15477D01*
X34131Y15422D01*
Y15366D01*
Y15348D01*
X34113Y15218D01*
X34094Y15089D01*
X34002Y14885D01*
X33946Y14811D01*
X33909Y14755D01*
X33891Y14737D01*
X33872Y14718D01*
X33743Y14644D01*
X33613Y14589D01*
X33299Y14515D01*
X33150Y14496D01*
X33039Y14478D01*
X30263Y14478D01*
X30041Y14496D01*
X29837Y14515D01*
X29689Y14552D01*
X29559Y14607D01*
X29467Y14644D01*
X29393Y14681D01*
X29356Y14700D01*
X29337Y14718D01*
X29245Y14811D01*
X29171Y14922D01*
X29134Y15033D01*
X29097Y15125D01*
X29078Y15218D01*
X29060Y15292D01*
Y15329D01*
Y15348D01*
X29078Y15496D01*
X29097Y15607D01*
X29189Y15810D01*
X29245Y15884D01*
X29300Y15940D01*
X29319Y15958D01*
X29337Y15977D01*
X29448Y16070D01*
X29596Y16125D01*
X29911Y16199D01*
X30041Y16218D01*
X30152Y16236D01*
X30892D01*
Y18476D01*
X29152D01*
X28875Y18328D01*
X28597Y18106D01*
X28301Y17846D01*
X28005Y17569D01*
X27708Y17254D01*
X27412Y16902D01*
X26838Y16218D01*
X26598Y15884D01*
X26357Y15570D01*
X26135Y15274D01*
X25950Y15014D01*
X25802Y14792D01*
X25691Y14626D01*
X25617Y14515D01*
X25598Y14496D01*
Y14478D01*
X24691D01*
X24469Y14496D01*
X24266Y14515D01*
X24117Y14552D01*
X23988Y14607D01*
X23895Y14644D01*
X23821Y14681D01*
X23784Y14700D01*
X23766Y14718D01*
X23673Y14811D01*
X23599Y14922D01*
X23562Y15033D01*
X23525Y15125D01*
X23507Y15218D01*
X23488Y15292D01*
Y15329D01*
Y15348D01*
X23507Y15496D01*
X23544Y15625D01*
X23655Y15847D01*
X23729Y15940D01*
X23784Y16014D01*
X23821Y16051D01*
X23840Y16070D01*
X23932Y16125D01*
X24062Y16162D01*
X24340Y16218D01*
X24469Y16236D01*
X24691D01*
X24932Y16606D01*
X25154Y16921D01*
X25339Y17180D01*
X25487Y17402D01*
X25598Y17569D01*
X25691Y17680D01*
X25746Y17754D01*
X25765Y17772D01*
X26006Y18050D01*
X26228Y18291D01*
X26431Y18513D01*
X26616Y18679D01*
X26764Y18827D01*
X26875Y18938D01*
X26950Y19013D01*
X26968Y19031D01*
X26616Y19235D01*
X26320Y19438D01*
X26080Y19642D01*
X25876Y19827D01*
X25709Y19975D01*
X25598Y20105D01*
X25524Y20179D01*
X25506Y20216D01*
X25339Y20475D01*
X25210Y20734D01*
X25136Y20993D01*
X25062Y21234D01*
X25025Y21437D01*
X25006Y21586D01*
Y21697D01*
Y21734D01*
X25025Y21974D01*
X25043Y22215D01*
X25173Y22640D01*
X25339Y23029D01*
X25524Y23362D01*
X25709Y23622D01*
X25802Y23733D01*
X25876Y23825D01*
X25950Y23899D01*
X26006Y23955D01*
X26024Y23973D01*
X26043Y23992D01*
X26246Y24158D01*
X26468Y24306D01*
X26690Y24418D01*
X26931Y24529D01*
X27412Y24695D01*
X27875Y24806D01*
X28097Y24843D01*
X28301Y24862D01*
X28486Y24899D01*
X28634D01*
X28763Y24917D01*
X32928Y24917D01*
X33150Y24899D01*
D02*
G37*
G36*
X103525Y25158D02*
X103840Y25121D01*
X104136Y25047D01*
X104432Y24973D01*
X104969Y24769D01*
X105210Y24640D01*
X105450Y24529D01*
X105654Y24399D01*
X105839Y24269D01*
X105987Y24158D01*
X106117Y24066D01*
X106228Y23992D01*
X106302Y23918D01*
X106357Y23881D01*
X106376Y23862D01*
X106691Y23548D01*
X106950Y23214D01*
X107190Y22881D01*
X107376Y22530D01*
X107542Y22178D01*
X107690Y21826D01*
X107801Y21493D01*
X107894Y21160D01*
X107968Y20864D01*
X108023Y20586D01*
X108060Y20327D01*
X108079Y20105D01*
X108097Y19920D01*
X108116Y19790D01*
Y19716D01*
Y19679D01*
X108097Y19216D01*
X108042Y18754D01*
X107949Y18346D01*
X107838Y17939D01*
X107709Y17569D01*
X107561Y17217D01*
X107413Y16903D01*
X107246Y16625D01*
X107079Y16366D01*
X106931Y16143D01*
X106783Y15940D01*
X106654Y15792D01*
X106543Y15662D01*
X106450Y15570D01*
X106395Y15514D01*
X106376Y15496D01*
X106098Y15274D01*
X105821Y15070D01*
X105561Y14903D01*
X105284Y14755D01*
X105006Y14626D01*
X104747Y14515D01*
X104488Y14422D01*
X104247Y14367D01*
X104025Y14311D01*
X103822Y14274D01*
X103637Y14237D01*
X103488Y14219D01*
X103359Y14200D01*
X103192D01*
X102822Y14219D01*
X102470Y14274D01*
X102137Y14348D01*
X101822Y14441D01*
X101526Y14570D01*
X101230Y14700D01*
X100971Y14829D01*
X100730Y14977D01*
X100508Y15125D01*
X100305Y15255D01*
X100138Y15403D01*
X99990Y15514D01*
X99879Y15607D01*
X99805Y15681D01*
X99749Y15736D01*
X99731Y15755D01*
X99472Y16051D01*
X99231Y16384D01*
X99028Y16699D01*
X98861Y17032D01*
X98713Y17365D01*
X98602Y17680D01*
X98491Y18013D01*
X98417Y18309D01*
X98361Y18587D01*
X98306Y18846D01*
X98269Y19087D01*
X98250Y19290D01*
Y19457D01*
X98232Y19568D01*
Y19660D01*
Y19679D01*
X98250Y20105D01*
X98287Y20530D01*
X98361Y20919D01*
X98472Y21289D01*
X98583Y21622D01*
X98713Y21956D01*
X98842Y22252D01*
X98972Y22530D01*
X99120Y22770D01*
X99250Y22974D01*
X99379Y23159D01*
X99490Y23325D01*
X99583Y23437D01*
X99657Y23529D01*
X99712Y23585D01*
X99731Y23603D01*
X100008Y23881D01*
X100305Y24121D01*
X100601Y24325D01*
X100897Y24510D01*
X101193Y24658D01*
X101489Y24788D01*
X101767Y24899D01*
X102026Y24973D01*
X102267Y25047D01*
X102489Y25102D01*
X102692Y25121D01*
X102859Y25158D01*
X103007D01*
X103100Y25176D01*
X103192D01*
X103525Y25158D01*
D02*
G37*
%LPC*%
G36*
X71984Y48695D02*
X70559Y45197D01*
X73410D01*
X71984Y48695D01*
D02*
G37*
G36*
X115538Y36223D02*
X113687D01*
X113354Y36205D01*
X113040Y36168D01*
X112780Y36112D01*
X112558Y36038D01*
X112373Y35964D01*
X112244Y35908D01*
X112151Y35871D01*
X112133Y35853D01*
X111910Y35686D01*
X111688Y35483D01*
X111503Y35261D01*
X111337Y35039D01*
X111189Y34835D01*
X111096Y34668D01*
X111022Y34539D01*
X111003Y34520D01*
Y34502D01*
X110892Y34261D01*
X110818Y34002D01*
X110744Y33761D01*
X110707Y33521D01*
X110689Y33317D01*
X110670Y33169D01*
Y33058D01*
Y33040D01*
Y33021D01*
Y32188D01*
X110689Y31836D01*
X110726Y31540D01*
X110781Y31262D01*
X110855Y31040D01*
X110929Y30855D01*
X110985Y30707D01*
X111022Y30633D01*
X111040Y30596D01*
X111189Y30374D01*
X111355Y30189D01*
X111522Y30004D01*
X111688Y29874D01*
X111836Y29745D01*
X111966Y29671D01*
X112040Y29615D01*
X112077Y29597D01*
X112299Y29504D01*
X112558Y29430D01*
X112817Y29375D01*
X113077Y29337D01*
X113299Y29319D01*
X113502Y29300D01*
X115538D01*
Y36223D01*
D02*
G37*
G36*
X83775Y36223D02*
X81924D01*
X81591Y36205D01*
X81276Y36168D01*
X81017Y36112D01*
X80795Y36038D01*
X80610Y35964D01*
X80480Y35908D01*
X80388Y35871D01*
X80369Y35853D01*
X80147Y35686D01*
X79925Y35483D01*
X79740Y35261D01*
X79574Y35039D01*
X79425Y34835D01*
X79333Y34668D01*
X79259Y34539D01*
X79240Y34520D01*
Y34502D01*
X79129Y34261D01*
X79055Y34002D01*
X78981Y33761D01*
X78944Y33521D01*
X78926Y33317D01*
X78907Y33169D01*
Y33058D01*
Y33040D01*
Y33021D01*
Y32188D01*
X78926Y31836D01*
X78963Y31540D01*
X79018Y31262D01*
X79092Y31040D01*
X79166Y30855D01*
X79222Y30707D01*
X79259Y30633D01*
X79277Y30596D01*
X79425Y30374D01*
X79592Y30189D01*
X79759Y30004D01*
X79925Y29874D01*
X80073Y29745D01*
X80203Y29671D01*
X80277Y29615D01*
X80314Y29597D01*
X80536Y29504D01*
X80795Y29430D01*
X81054Y29375D01*
X81313Y29337D01*
X81536Y29319D01*
X81739Y29300D01*
X83775D01*
Y36223D01*
D02*
G37*
G36*
X62655Y23159D02*
X60638D01*
X60268Y23140D01*
X59953Y23085D01*
X59675Y23011D01*
X59453Y22937D01*
X59286Y22863D01*
X59157Y22789D01*
X59083Y22733D01*
X59064Y22715D01*
X58879Y22548D01*
X58750Y22400D01*
X58657Y22233D01*
X58602Y22085D01*
X58546Y21974D01*
X58528Y21882D01*
Y21808D01*
Y21789D01*
X58546Y21659D01*
X58565Y21549D01*
X58676Y21326D01*
X58731Y21234D01*
X58768Y21160D01*
X58805Y21123D01*
X58824Y21104D01*
X58953Y20975D01*
X59120Y20864D01*
X59286Y20752D01*
X59472Y20660D01*
X59638Y20567D01*
X59786Y20512D01*
X59879Y20475D01*
X59897Y20456D01*
X59916D01*
X60138Y20382D01*
X60379Y20327D01*
X60601Y20290D01*
X60823Y20271D01*
X61008Y20253D01*
X61156Y20234D01*
X62655D01*
Y23159D01*
D02*
G37*
G36*
X30892Y23159D02*
X28875D01*
X28504Y23140D01*
X28190Y23085D01*
X27912Y23011D01*
X27690Y22937D01*
X27523Y22863D01*
X27394Y22789D01*
X27320Y22733D01*
X27301Y22715D01*
X27116Y22548D01*
X26987Y22400D01*
X26894Y22233D01*
X26838Y22085D01*
X26783Y21974D01*
X26764Y21882D01*
Y21808D01*
Y21789D01*
X26783Y21659D01*
X26801Y21548D01*
X26913Y21326D01*
X26968Y21234D01*
X27005Y21160D01*
X27042Y21123D01*
X27061Y21104D01*
X27190Y20975D01*
X27357Y20864D01*
X27523Y20752D01*
X27708Y20660D01*
X27875Y20567D01*
X28023Y20512D01*
X28116Y20475D01*
X28134Y20456D01*
X28153D01*
X28375Y20382D01*
X28615Y20327D01*
X28838Y20290D01*
X29060Y20271D01*
X29245Y20253D01*
X29393Y20234D01*
X30892D01*
Y23159D01*
D02*
G37*
G36*
X103303Y23418D02*
X103192D01*
X102970Y23400D01*
X102748Y23381D01*
X102526Y23325D01*
X102322Y23251D01*
X101952Y23085D01*
X101619Y22881D01*
X101341Y22678D01*
X101230Y22585D01*
X101138Y22511D01*
X101064Y22437D01*
X101008Y22400D01*
X100989Y22363D01*
X100971Y22344D01*
X100804Y22141D01*
X100638Y21919D01*
X100508Y21715D01*
X100397Y21474D01*
X100231Y21030D01*
X100120Y20623D01*
X100064Y20419D01*
X100046Y20253D01*
X100027Y20086D01*
X100008Y19957D01*
X99990Y19827D01*
Y19753D01*
Y19697D01*
Y19679D01*
X100008Y19383D01*
X100027Y19105D01*
X100138Y18568D01*
X100305Y18106D01*
X100397Y17921D01*
X100471Y17735D01*
X100564Y17569D01*
X100656Y17421D01*
X100749Y17291D01*
X100823Y17180D01*
X100879Y17106D01*
X100934Y17051D01*
X100952Y17014D01*
X100971Y16995D01*
X101156Y16810D01*
X101341Y16662D01*
X101545Y16514D01*
X101730Y16403D01*
X102100Y16218D01*
X102452Y16088D01*
X102748Y16014D01*
X102878Y15995D01*
X102989Y15977D01*
X103063Y15958D01*
X103192D01*
X103414Y15977D01*
X103637Y15995D01*
X103840Y16051D01*
X104044Y16125D01*
X104432Y16292D01*
X104747Y16495D01*
X105025Y16680D01*
X105136Y16773D01*
X105228Y16847D01*
X105302Y16921D01*
X105358Y16976D01*
X105376Y16995D01*
X105395Y17014D01*
X105561Y17217D01*
X105710Y17439D01*
X105839Y17643D01*
X105950Y17884D01*
X106117Y18328D01*
X106228Y18735D01*
X106283Y18939D01*
X106302Y19105D01*
X106320Y19272D01*
X106339Y19420D01*
X106357Y19531D01*
Y19605D01*
Y19660D01*
Y19679D01*
X106339Y19975D01*
X106320Y20253D01*
X106209Y20771D01*
X106061Y21234D01*
X105969Y21437D01*
X105876Y21622D01*
X105784Y21789D01*
X105691Y21919D01*
X105617Y22048D01*
X105543Y22159D01*
X105488Y22233D01*
X105432Y22289D01*
X105413Y22326D01*
X105395Y22344D01*
X105210Y22530D01*
X105025Y22696D01*
X104821Y22844D01*
X104636Y22974D01*
X104451Y23066D01*
X104266Y23159D01*
X103933Y23288D01*
X103637Y23362D01*
X103507Y23381D01*
X103396Y23400D01*
X103303Y23418D01*
D02*
G37*
%LPD*%
M02*
