G04*
G04 #@! TF.GenerationSoftware,Altium Limited,Altium Designer,19.1.8 (144)*
G04*
G04 Layer_Physical_Order=1*
G04 Layer_Color=196*
%FSLAX25Y25*%
%MOIN*%
G70*
G01*
G75*
%ADD17C,0.01000*%
%ADD18C,0.01200*%
%ADD20R,0.15000X0.23000*%
%ADD21R,0.07000X0.07100*%
%ADD22R,0.05906X0.18504*%
%ADD23R,0.06299X0.13780*%
%ADD24R,0.04921X0.05906*%
%ADD25R,0.28740X0.24410*%
G04:AMPARAMS|DCode=26|XSize=35mil|YSize=50mil|CornerRadius=4.38mil|HoleSize=0mil|Usage=FLASHONLY|Rotation=0.000|XOffset=0mil|YOffset=0mil|HoleType=Round|Shape=RoundedRectangle|*
%AMROUNDEDRECTD26*
21,1,0.03500,0.04125,0,0,0.0*
21,1,0.02625,0.05000,0,0,0.0*
1,1,0.00875,0.01313,-0.02063*
1,1,0.00875,-0.01313,-0.02063*
1,1,0.00875,-0.01313,0.02063*
1,1,0.00875,0.01313,0.02063*
%
%ADD26ROUNDEDRECTD26*%
%ADD27R,0.05100X0.04000*%
%ADD44C,0.04000*%
%ADD45C,0.03000*%
%ADD46C,0.03500*%
%ADD47C,0.12000*%
%ADD48R,0.06600X0.06600*%
%ADD49C,0.06600*%
%ADD50O,0.06500X0.06400*%
%ADD51R,0.05937X0.05937*%
%ADD52C,0.05937*%
%ADD53O,0.15748X0.19685*%
%ADD54O,0.19685X0.15748*%
%ADD55C,0.06700*%
%ADD56C,0.05000*%
G36*
X195321Y215006D02*
X195321Y1529D01*
X1529Y1529D01*
X1529Y215006D01*
X195321Y215006D01*
D02*
G37*
%LPC*%
G36*
X10000Y213136D02*
X9775Y213133D01*
X9550Y213121D01*
X9325Y213102D01*
X9101Y213075D01*
X8878Y213040D01*
X8657Y212998D01*
X8437Y212949D01*
X8219Y212892D01*
X8003Y212827D01*
X7790Y212755D01*
X7578Y212676D01*
X7370Y212590D01*
X7165Y212497D01*
X6963Y212396D01*
X6765Y212289D01*
X6570Y212175D01*
X6380Y212055D01*
X6193Y211928D01*
X6011Y211795D01*
X5834Y211656D01*
X5662Y211511D01*
X5494Y211360D01*
X5332Y211203D01*
X5176Y211041D01*
X5025Y210874D01*
X4880Y210701D01*
X4740Y210524D01*
X4607Y210342D01*
X4480Y210156D01*
X4360Y209965D01*
X4246Y209771D01*
X4139Y209572D01*
X4039Y209370D01*
X3946Y209165D01*
X3859Y208957D01*
X3780Y208746D01*
X3708Y208532D01*
X3644Y208316D01*
X3587Y208098D01*
X3537Y207878D01*
X3495Y207657D01*
X3461Y207434D01*
X3434Y207210D01*
X3414Y206986D01*
X3403Y206761D01*
X3399Y206535D01*
X3403Y206310D01*
X3414Y206085D01*
X3434Y205860D01*
X3461Y205637D01*
X3495Y205414D01*
X3537Y205192D01*
X3587Y204973D01*
X3644Y204754D01*
X3708Y204538D01*
X3780Y204325D01*
X3859Y204114D01*
X3946Y203906D01*
X4039Y203700D01*
X4139Y203499D01*
X4246Y203300D01*
X4360Y203106D01*
X4480Y202915D01*
X4607Y202729D01*
X4740Y202547D01*
X4880Y202370D01*
X5025Y202197D01*
X5176Y202030D01*
X5332Y201868D01*
X5494Y201711D01*
X5662Y201560D01*
X5834Y201415D01*
X6011Y201276D01*
X6193Y201143D01*
X6380Y201016D01*
X6570Y200895D01*
X6765Y200782D01*
X6963Y200675D01*
X7165Y200574D01*
X7370Y200481D01*
X7578Y200395D01*
X7790Y200316D01*
X8003Y200244D01*
X8219Y200179D01*
X8437Y200122D01*
X8657Y200073D01*
X8878Y200030D01*
X9101Y199996D01*
X9325Y199969D01*
X9550Y199950D01*
X9775Y199938D01*
X10000Y199934D01*
X10225Y199938D01*
X10451Y199950D01*
X10675Y199969D01*
X10899Y199996D01*
X11122Y200030D01*
X11343Y200073D01*
X11563Y200122D01*
X11781Y200179D01*
X11997Y200244D01*
X12211Y200316D01*
X12422Y200395D01*
X12630Y200481D01*
X12835Y200574D01*
X13037Y200675D01*
X13235Y200782D01*
X13430Y200895D01*
X13620Y201016D01*
X13807Y201143D01*
X13988Y201276D01*
X14166Y201415D01*
X14338Y201560D01*
X14505Y201711D01*
X14668Y201868D01*
X14824Y202030D01*
X14975Y202197D01*
X15120Y202370D01*
X15260Y202547D01*
X15393Y202729D01*
X15520Y202915D01*
X15640Y203106D01*
X15754Y203300D01*
X15861Y203499D01*
X15961Y203700D01*
X16055Y203906D01*
X16141Y204114D01*
X16220Y204325D01*
X16292Y204538D01*
X16356Y204754D01*
X16413Y204973D01*
X16463Y205192D01*
X16505Y205414D01*
X16540Y205637D01*
X16566Y205860D01*
X16586Y206085D01*
X16597Y206310D01*
X16601Y206535D01*
X16597Y206761D01*
X16586Y206986D01*
X16566Y207210D01*
X16540Y207434D01*
X16505Y207657D01*
X16463Y207878D01*
X16413Y208098D01*
X16356Y208316D01*
X16292Y208532D01*
X16220Y208746D01*
X16141Y208957D01*
X16055Y209165D01*
X15961Y209370D01*
X15861Y209572D01*
X15754Y209771D01*
X15640Y209965D01*
X15520Y210156D01*
X15393Y210342D01*
X15260Y210524D01*
X15120Y210701D01*
X14975Y210874D01*
X14824Y211041D01*
X14668Y211203D01*
X14505Y211360D01*
X14338Y211511D01*
X14166Y211656D01*
X13988Y211795D01*
X13807Y211928D01*
X13620Y212055D01*
X13430Y212175D01*
X13235Y212289D01*
X13037Y212396D01*
X12835Y212497D01*
X12630Y212590D01*
X12422Y212676D01*
X12211Y212755D01*
X11997Y212827D01*
X11781Y212892D01*
X11563Y212949D01*
X11343Y212998D01*
X11122Y213040D01*
X10899Y213075D01*
X10675Y213102D01*
X10451Y213121D01*
X10225Y213133D01*
X10000Y213136D01*
D02*
G37*
G36*
X186850Y213136D02*
X186625Y213133D01*
X186400Y213121D01*
X186175Y213102D01*
X185951Y213075D01*
X185729Y213040D01*
X185507Y212998D01*
X185287Y212949D01*
X185069Y212892D01*
X184853Y212827D01*
X184640Y212755D01*
X184429Y212676D01*
X184221Y212590D01*
X184015Y212497D01*
X183814Y212396D01*
X183615Y212289D01*
X183421Y212175D01*
X183230Y212055D01*
X183044Y211928D01*
X182862Y211795D01*
X182685Y211656D01*
X182512Y211511D01*
X182345Y211360D01*
X182183Y211203D01*
X182026Y211041D01*
X181875Y210874D01*
X181730Y210701D01*
X181591Y210524D01*
X181457Y210342D01*
X181331Y210156D01*
X181210Y209965D01*
X181096Y209771D01*
X180990Y209572D01*
X180889Y209370D01*
X180796Y209165D01*
X180710Y208957D01*
X180631Y208746D01*
X180559Y208532D01*
X180494Y208316D01*
X180437Y208098D01*
X180387Y207878D01*
X180345Y207657D01*
X180311Y207434D01*
X180284Y207210D01*
X180265Y206986D01*
X180253Y206761D01*
X180249Y206535D01*
X180253Y206310D01*
X180265Y206085D01*
X180284Y205860D01*
X180311Y205637D01*
X180345Y205414D01*
X180387Y205192D01*
X180437Y204973D01*
X180494Y204754D01*
X180559Y204538D01*
X180631Y204325D01*
X180710Y204114D01*
X180796Y203906D01*
X180889Y203700D01*
X180990Y203499D01*
X181096Y203300D01*
X181210Y203106D01*
X181331Y202915D01*
X181457Y202729D01*
X181591Y202547D01*
X181730Y202370D01*
X181875Y202197D01*
X182026Y202030D01*
X182183Y201868D01*
X182345Y201711D01*
X182512Y201560D01*
X182685Y201415D01*
X182862Y201276D01*
X183044Y201143D01*
X183230Y201016D01*
X183421Y200895D01*
X183615Y200782D01*
X183814Y200675D01*
X184015Y200574D01*
X184221Y200481D01*
X184429Y200395D01*
X184640Y200316D01*
X184853Y200244D01*
X185069Y200179D01*
X185287Y200122D01*
X185507Y200073D01*
X185729Y200030D01*
X185951Y199996D01*
X186175Y199969D01*
X186400Y199950D01*
X186625Y199938D01*
X186850Y199934D01*
X187076Y199938D01*
X187301Y199950D01*
X187525Y199969D01*
X187749Y199996D01*
X187972Y200030D01*
X188193Y200073D01*
X188413Y200122D01*
X188631Y200179D01*
X188847Y200244D01*
X189061Y200316D01*
X189272Y200395D01*
X189480Y200481D01*
X189685Y200574D01*
X189887Y200675D01*
X190085Y200782D01*
X190280Y200895D01*
X190471Y201016D01*
X190657Y201143D01*
X190839Y201276D01*
X191016Y201415D01*
X191189Y201560D01*
X191356Y201711D01*
X191518Y201868D01*
X191675Y202030D01*
X191826Y202197D01*
X191971Y202370D01*
X192110Y202547D01*
X192243Y202729D01*
X192370Y202915D01*
X192490Y203106D01*
X192604Y203300D01*
X192711Y203499D01*
X192812Y203700D01*
X192905Y203906D01*
X192991Y204114D01*
X193070Y204325D01*
X193142Y204538D01*
X193207Y204754D01*
X193264Y204973D01*
X193313Y205192D01*
X193355Y205414D01*
X193390Y205637D01*
X193417Y205860D01*
X193436Y206085D01*
X193447Y206310D01*
X193451Y206535D01*
X193447Y206761D01*
X193436Y206986D01*
X193417Y207210D01*
X193390Y207434D01*
X193355Y207657D01*
X193313Y207878D01*
X193264Y208098D01*
X193207Y208316D01*
X193142Y208532D01*
X193070Y208746D01*
X192991Y208957D01*
X192905Y209165D01*
X192812Y209370D01*
X192711Y209572D01*
X192604Y209771D01*
X192490Y209965D01*
X192370Y210156D01*
X192243Y210342D01*
X192110Y210524D01*
X191971Y210701D01*
X191826Y210874D01*
X191675Y211041D01*
X191518Y211203D01*
X191356Y211360D01*
X191189Y211511D01*
X191016Y211656D01*
X190839Y211795D01*
X190657Y211928D01*
X190471Y212055D01*
X190280Y212175D01*
X190085Y212289D01*
X189887Y212396D01*
X189685Y212497D01*
X189480Y212590D01*
X189272Y212676D01*
X189061Y212755D01*
X188847Y212827D01*
X188631Y212892D01*
X188413Y212949D01*
X188193Y212998D01*
X187972Y213040D01*
X187749Y213075D01*
X187525Y213102D01*
X187301Y213121D01*
X187076Y213133D01*
X186850Y213136D01*
D02*
G37*
G36*
X78789Y199140D02*
Y195482D01*
X82447D01*
X82431Y195590D01*
X82398Y195765D01*
X82358Y195938D01*
X82311Y196109D01*
X82257Y196278D01*
X82196Y196445D01*
X82128Y196609D01*
X82053Y196771D01*
X81972Y196929D01*
X81884Y197083D01*
X81790Y197234D01*
X81689Y197381D01*
X81583Y197524D01*
X81471Y197662D01*
X81353Y197795D01*
X81230Y197923D01*
X81102Y198046D01*
X80969Y198164D01*
X80831Y198276D01*
X80688Y198382D01*
X80541Y198483D01*
X80391Y198577D01*
X80236Y198664D01*
X80078Y198746D01*
X79917Y198821D01*
X79752Y198889D01*
X79585Y198950D01*
X79416Y199004D01*
X79245Y199051D01*
X79072Y199091D01*
X78897Y199124D01*
X78789Y199140D01*
D02*
G37*
G36*
X77589D02*
X77481Y199124D01*
X77306Y199091D01*
X77133Y199051D01*
X76962Y199004D01*
X76793Y198950D01*
X76626Y198889D01*
X76461Y198821D01*
X76300Y198746D01*
X76142Y198664D01*
X75987Y198577D01*
X75837Y198483D01*
X75690Y198382D01*
X75547Y198276D01*
X75409Y198164D01*
X75276Y198046D01*
X75148Y197923D01*
X75025Y197795D01*
X74907Y197662D01*
X74795Y197524D01*
X74689Y197381D01*
X74588Y197234D01*
X74494Y197083D01*
X74406Y196929D01*
X74325Y196771D01*
X74250Y196609D01*
X74182Y196445D01*
X74121Y196278D01*
X74067Y196109D01*
X74020Y195938D01*
X73980Y195765D01*
X73947Y195590D01*
X73931Y195482D01*
X77589D01*
Y199140D01*
D02*
G37*
G36*
X82447Y194282D02*
X78789D01*
Y190624D01*
X78897Y190640D01*
X79072Y190673D01*
X79245Y190713D01*
X79416Y190760D01*
X79585Y190814D01*
X79752Y190875D01*
X79917Y190943D01*
X80078Y191018D01*
X80236Y191099D01*
X80391Y191187D01*
X80541Y191281D01*
X80688Y191382D01*
X80831Y191488D01*
X80969Y191600D01*
X81102Y191718D01*
X81230Y191841D01*
X81353Y191969D01*
X81471Y192102D01*
X81583Y192240D01*
X81689Y192383D01*
X81790Y192529D01*
X81884Y192680D01*
X81972Y192835D01*
X82053Y192993D01*
X82128Y193154D01*
X82196Y193318D01*
X82257Y193485D01*
X82311Y193655D01*
X82358Y193826D01*
X82398Y193999D01*
X82431Y194174D01*
X82447Y194282D01*
D02*
G37*
G36*
X77589D02*
X73931D01*
X73947Y194174D01*
X73980Y193999D01*
X74020Y193826D01*
X74067Y193655D01*
X74121Y193485D01*
X74182Y193318D01*
X74250Y193154D01*
X74325Y192993D01*
X74406Y192835D01*
X74494Y192680D01*
X74588Y192529D01*
X74689Y192383D01*
X74795Y192240D01*
X74907Y192102D01*
X75025Y191969D01*
X75148Y191841D01*
X75276Y191718D01*
X75409Y191600D01*
X75547Y191488D01*
X75690Y191382D01*
X75837Y191281D01*
X75987Y191187D01*
X76142Y191099D01*
X76300Y191018D01*
X76461Y190943D01*
X76626Y190875D01*
X76793Y190814D01*
X76962Y190760D01*
X77133Y190713D01*
X77306Y190673D01*
X77481Y190640D01*
X77589Y190624D01*
Y194282D01*
D02*
G37*
G36*
X141321Y183278D02*
X107371D01*
X107361Y183278D01*
X107351Y183278D01*
X107132Y183271D01*
X107122Y183270D01*
X107113Y183270D01*
X106894Y183255D01*
X106884Y183254D01*
X106874Y183254D01*
X106656Y183232D01*
X106647Y183231D01*
X106637Y183230D01*
X106420Y183201D01*
X106410Y183200D01*
X106400Y183198D01*
X106184Y183163D01*
X106175Y183161D01*
X106165Y183159D01*
X105950Y183117D01*
X105940Y183114D01*
X105931Y183112D01*
X105717Y183063D01*
X105708Y183060D01*
X105698Y183058D01*
X105487Y183001D01*
X105477Y182998D01*
X105468Y182996D01*
X105258Y182932D01*
X105249Y182929D01*
X105239Y182926D01*
X105032Y182856D01*
X105023Y182852D01*
X105014Y182849D01*
X104808Y182772D01*
X104800Y182768D01*
X104790Y182765D01*
X104588Y182681D01*
X104579Y182677D01*
X104570Y182673D01*
X104370Y182583D01*
X104362Y182578D01*
X104353Y182574D01*
X104156Y182477D01*
X104148Y182473D01*
X104139Y182468D01*
X103945Y182365D01*
X103937Y182360D01*
X103928Y182356D01*
X103738Y182246D01*
X103730Y182241D01*
X103722Y182236D01*
X103536Y182120D01*
X103528Y182115D01*
X103519Y182110D01*
X103337Y181988D01*
X103329Y181982D01*
X103321Y181977D01*
X103143Y181849D01*
X103135Y181843D01*
X103127Y181837D01*
X102953Y181704D01*
X102946Y181698D01*
X102938Y181692D01*
X102769Y181553D01*
X102761Y181546D01*
X102753Y181540D01*
X102589Y181396D01*
X102582Y181389D01*
X102574Y181383D01*
X102414Y181233D01*
X102408Y181226D01*
X102400Y181219D01*
X102245Y181064D01*
X102239Y181057D01*
X102232Y181050D01*
X102082Y180890D01*
X102076Y180883D01*
X102069Y180876D01*
X101924Y180711D01*
X101918Y180703D01*
X101912Y180696D01*
X101773Y180527D01*
X101767Y180519D01*
X101760Y180511D01*
X101627Y180338D01*
X101621Y180330D01*
X101615Y180322D01*
X101488Y180144D01*
X101482Y180135D01*
X101477Y180128D01*
X101355Y179945D01*
X101350Y179937D01*
X101344Y179929D01*
X101228Y179743D01*
X101224Y179734D01*
X101218Y179726D01*
X101109Y179536D01*
X101104Y179528D01*
X101099Y179519D01*
X100996Y179326D01*
X100992Y179317D01*
X100987Y179308D01*
X100890Y179112D01*
X100886Y179103D01*
X100882Y179094D01*
X100791Y178895D01*
X100788Y178886D01*
X100784Y178877D01*
X100700Y178674D01*
X100697Y178665D01*
X100692Y178656D01*
X100615Y178451D01*
X100612Y178442D01*
X100609Y178433D01*
X100538Y178225D01*
X100536Y178216D01*
X100532Y178206D01*
X100469Y177997D01*
X100466Y177987D01*
X100463Y177978D01*
X100407Y177766D01*
X100405Y177757D01*
X100402Y177747D01*
X100352Y177534D01*
X100350Y177524D01*
X100348Y177515D01*
X100305Y177300D01*
X100304Y177290D01*
X100302Y177280D01*
X100266Y177064D01*
X100265Y177055D01*
X100263Y177045D01*
X100235Y176828D01*
X100234Y176818D01*
X100232Y176808D01*
X100211Y176590D01*
X100210Y176580D01*
X100209Y176571D01*
X100195Y176352D01*
X100195Y176342D01*
X100194Y176332D01*
X100187Y176113D01*
X100187Y176104D01*
X100187Y176094D01*
Y175984D01*
Y138189D01*
Y138121D01*
X100187Y138107D01*
X100187Y138092D01*
X100194Y137957D01*
X100195Y137942D01*
X100196Y137927D01*
X100209Y137793D01*
X100212Y137778D01*
X100213Y137763D01*
X100233Y137629D01*
X100236Y137615D01*
X100238Y137600D01*
X100264Y137468D01*
X100268Y137453D01*
X100271Y137439D01*
X100303Y137308D01*
X100308Y137294D01*
X100311Y137279D01*
X100351Y137150D01*
X100356Y137136D01*
X100360Y137122D01*
X100406Y136994D01*
X100411Y136981D01*
X100416Y136967D01*
X100468Y136842D01*
X100474Y136829D01*
X100480Y136815D01*
X100538Y136693D01*
X100545Y136680D01*
X100551Y136666D01*
X100615Y136547D01*
X100622Y136534D01*
X100629Y136521D01*
X100699Y136405D01*
X100707Y136393D01*
X100715Y136380D01*
X100790Y136268D01*
X100799Y136256D01*
X100807Y136244D01*
X100887Y136135D01*
X100897Y136124D01*
X100906Y136112D01*
X100991Y136007D01*
X101001Y135996D01*
X101011Y135985D01*
X101101Y135884D01*
X101112Y135874D01*
X101122Y135863D01*
X101217Y135767D01*
X101229Y135758D01*
X101239Y135747D01*
X101339Y135656D01*
X101351Y135647D01*
X101361Y135637D01*
X101466Y135551D01*
X101478Y135543D01*
X101489Y135533D01*
X101598Y135452D01*
X101610Y135444D01*
X101622Y135435D01*
X101735Y135360D01*
X101747Y135353D01*
X101760Y135345D01*
X101875Y135275D01*
X101889Y135268D01*
X101901Y135260D01*
X102021Y135197D01*
X102034Y135190D01*
X102047Y135183D01*
X102169Y135126D01*
X102183Y135120D01*
X102196Y135114D01*
X102321Y135062D01*
X102335Y135057D01*
X102349Y135051D01*
X102476Y135006D01*
X102490Y135001D01*
X102504Y134996D01*
X102634Y134957D01*
X102648Y134953D01*
X102662Y134949D01*
X102793Y134916D01*
X102808Y134914D01*
X102822Y134910D01*
X102955Y134883D01*
X102969Y134881D01*
X102984Y134878D01*
X103118Y134859D01*
X103132Y134857D01*
X103147Y134855D01*
X103282Y134842D01*
X103296Y134841D01*
X103311Y134839D01*
X103446Y134833D01*
X103461Y134833D01*
X103476Y134832D01*
X108658D01*
X108722Y134831D01*
X108854Y134826D01*
X108982Y134815D01*
X109109Y134798D01*
X109235Y134775D01*
X109361Y134748D01*
X109485Y134714D01*
X109607Y134676D01*
X109728Y134632D01*
X109846Y134583D01*
X109963Y134529D01*
X110077Y134469D01*
X110188Y134405D01*
X110296Y134336D01*
X110401Y134262D01*
X110503Y134184D01*
X110601Y134102D01*
X110696Y134015D01*
X110787Y133924D01*
X110873Y133830D01*
X110956Y133731D01*
X111034Y133630D01*
X111108Y133524D01*
X111177Y133416D01*
X111241Y133305D01*
X111300Y133191D01*
X111354Y133075D01*
X111404Y132956D01*
X111448Y132835D01*
X111486Y132713D01*
X111519Y132589D01*
X111547Y132464D01*
X111569Y132337D01*
X111586Y132210D01*
X111597Y132082D01*
X111603Y131950D01*
X111604Y131887D01*
Y43307D01*
Y43209D01*
X111604Y43198D01*
X111604Y43187D01*
X111611Y42991D01*
X111612Y42980D01*
X111612Y42969D01*
X111626Y42773D01*
X111628Y42762D01*
X111628Y42752D01*
X111649Y42556D01*
X111651Y42545D01*
X111652Y42535D01*
X111680Y42340D01*
X111682Y42329D01*
X111683Y42319D01*
X111718Y42125D01*
X111721Y42115D01*
X111723Y42104D01*
X111764Y41912D01*
X111767Y41901D01*
X111769Y41891D01*
X111818Y41700D01*
X111821Y41690D01*
X111824Y41679D01*
X111879Y41491D01*
X111883Y41480D01*
X111885Y41470D01*
X111948Y41283D01*
X111952Y41273D01*
X111955Y41263D01*
X112024Y41079D01*
X112028Y41069D01*
X112031Y41059D01*
X112107Y40877D01*
X112111Y40867D01*
X112115Y40857D01*
X112135Y40813D01*
X102663Y31341D01*
X99077D01*
X98339Y31360D01*
X97698Y31417D01*
X97148Y31508D01*
X96691Y31631D01*
X96329Y31778D01*
X96061Y31942D01*
X95876Y32113D01*
X95757Y32292D01*
X95685Y32494D01*
X95679Y32553D01*
Y38592D01*
X88573D01*
Y18888D01*
X95679D01*
Y24927D01*
X95685Y24986D01*
X95757Y25189D01*
X95876Y25367D01*
X96061Y25538D01*
X96329Y25702D01*
X96691Y25850D01*
X97148Y25972D01*
X97698Y26063D01*
X98339Y26120D01*
X99077Y26139D01*
X103740D01*
X103876Y26143D01*
X104012Y26153D01*
X104147Y26171D01*
X104221Y26185D01*
X104281Y26196D01*
X104413Y26228D01*
X104544Y26267D01*
X104672Y26312D01*
X104798Y26364D01*
X104921Y26423D01*
X105041Y26488D01*
X105099Y26523D01*
X105157Y26559D01*
X105202Y26590D01*
X105269Y26636D01*
X105377Y26719D01*
X105481Y26807D01*
X105579Y26901D01*
X116092Y37413D01*
X116099Y37412D01*
X116110Y37409D01*
X116300Y37360D01*
X116311Y37358D01*
X116321Y37355D01*
X116513Y37313D01*
X116524Y37311D01*
X116534Y37309D01*
X116728Y37274D01*
X116739Y37273D01*
X116749Y37271D01*
X116944Y37242D01*
X116955Y37242D01*
X116965Y37240D01*
X117161Y37219D01*
X117172Y37218D01*
X117182Y37217D01*
X117379Y37203D01*
X117389Y37203D01*
X117400Y37202D01*
X117597Y37195D01*
X117607Y37195D01*
X117618Y37194D01*
X133570D01*
X133581Y37195D01*
X133591Y37195D01*
X133802Y37202D01*
X133813Y37203D01*
X133824Y37203D01*
X134034Y37218D01*
X134045Y37220D01*
X134055Y37220D01*
X134265Y37243D01*
X134276Y37245D01*
X134286Y37246D01*
X134495Y37276D01*
X134505Y37278D01*
X134516Y37279D01*
X134723Y37316D01*
X134734Y37319D01*
X134745Y37321D01*
X134951Y37365D01*
X134961Y37368D01*
X134971Y37370D01*
X135176Y37422D01*
X135186Y37426D01*
X135196Y37428D01*
X135399Y37488D01*
X135409Y37491D01*
X135419Y37494D01*
X135619Y37561D01*
X135629Y37565D01*
X135640Y37568D01*
X135837Y37641D01*
X135847Y37646D01*
X135857Y37649D01*
X136052Y37730D01*
X136062Y37735D01*
X136072Y37738D01*
X136263Y37826D01*
X136273Y37831D01*
X136283Y37835D01*
X136471Y37930D01*
X136481Y37935D01*
X136490Y37940D01*
X136675Y38041D01*
X136685Y38046D01*
X136694Y38051D01*
X136875Y38159D01*
X136884Y38165D01*
X136893Y38170D01*
X137071Y38284D01*
X137080Y38291D01*
X137089Y38296D01*
X137262Y38416D01*
X137270Y38423D01*
X137279Y38429D01*
X137448Y38555D01*
X137456Y38562D01*
X137465Y38568D01*
X137629Y38701D01*
X137637Y38708D01*
X137646Y38715D01*
X137805Y38853D01*
X137813Y38860D01*
X137821Y38867D01*
X137975Y39011D01*
X137983Y39018D01*
X137991Y39026D01*
X138140Y39175D01*
X138147Y39183D01*
X138155Y39190D01*
X138298Y39344D01*
X138305Y39353D01*
X138313Y39360D01*
X138451Y39520D01*
X138457Y39528D01*
X138465Y39536D01*
X138597Y39700D01*
X138603Y39709D01*
X138610Y39717D01*
X138736Y39886D01*
X138742Y39895D01*
X138749Y39903D01*
X138869Y40077D01*
X138875Y40086D01*
X138881Y40094D01*
X138995Y40272D01*
X139000Y40281D01*
X139006Y40290D01*
X139114Y40471D01*
X139119Y40481D01*
X139125Y40490D01*
X139226Y40675D01*
X139230Y40685D01*
X139236Y40694D01*
X139330Y40883D01*
X139334Y40892D01*
X139339Y40902D01*
X139427Y41094D01*
X139431Y41104D01*
X139435Y41113D01*
X139516Y41308D01*
X139520Y41318D01*
X139524Y41328D01*
X139598Y41526D01*
X139601Y41536D01*
X139605Y41546D01*
X139671Y41746D01*
X139674Y41756D01*
X139678Y41767D01*
X139737Y41969D01*
X139740Y41979D01*
X139743Y41989D01*
X139795Y42194D01*
X139797Y42204D01*
X139800Y42215D01*
X139845Y42421D01*
X139847Y42432D01*
X139849Y42442D01*
X139886Y42649D01*
X139888Y42660D01*
X139890Y42670D01*
X139920Y42879D01*
X139921Y42890D01*
X139922Y42900D01*
X139945Y43110D01*
X139946Y43121D01*
X139947Y43132D01*
X139962Y43342D01*
X139962Y43352D01*
X139963Y43363D01*
X139971Y43574D01*
X139970Y43585D01*
X139971Y43595D01*
Y43701D01*
Y75980D01*
X139972Y76029D01*
X139978Y76132D01*
X139989Y76231D01*
X140005Y76328D01*
X140027Y76424D01*
X140054Y76519D01*
X140087Y76612D01*
X140125Y76704D01*
X140168Y76793D01*
X140216Y76879D01*
X140268Y76963D01*
X140325Y77043D01*
X140387Y77120D01*
X140453Y77194D01*
X140523Y77264D01*
X140596Y77330D01*
X140673Y77391D01*
X140754Y77448D01*
X140838Y77501D01*
X140924Y77549D01*
X141013Y77592D01*
X141104Y77630D01*
X141198Y77662D01*
X141292Y77689D01*
X141389Y77711D01*
X141486Y77728D01*
X141584Y77739D01*
X141687Y77745D01*
X141736Y77745D01*
X147330D01*
X147343Y77746D01*
X147356Y77746D01*
X147528Y77754D01*
X147541Y77755D01*
X147554Y77755D01*
X147725Y77770D01*
X147738Y77772D01*
X147751Y77773D01*
X147922Y77795D01*
X147934Y77798D01*
X147948Y77799D01*
X148117Y77829D01*
X148129Y77832D01*
X148142Y77834D01*
X148310Y77872D01*
X148323Y77875D01*
X148336Y77878D01*
X148502Y77922D01*
X148514Y77926D01*
X148527Y77930D01*
X148691Y77981D01*
X148703Y77986D01*
X148715Y77990D01*
X148877Y78049D01*
X148889Y78054D01*
X148901Y78058D01*
X149060Y78124D01*
X149072Y78130D01*
X149084Y78134D01*
X149240Y78207D01*
X149251Y78213D01*
X149263Y78219D01*
X149416Y78298D01*
X149427Y78305D01*
X149439Y78311D01*
X149588Y78396D01*
X149598Y78404D01*
X149610Y78410D01*
X149755Y78502D01*
X149766Y78510D01*
X149777Y78517D01*
X149917Y78615D01*
X149928Y78623D01*
X149938Y78631D01*
X150075Y78736D01*
X150085Y78744D01*
X150095Y78752D01*
X150227Y78862D01*
X150236Y78871D01*
X150247Y78880D01*
X150373Y78996D01*
X150382Y79005D01*
X150392Y79014D01*
X150514Y79135D01*
X150522Y79145D01*
X150532Y79154D01*
X150648Y79281D01*
X150656Y79291D01*
X150665Y79301D01*
X150776Y79432D01*
X150784Y79443D01*
X150792Y79453D01*
X150897Y79589D01*
X150904Y79600D01*
X150912Y79610D01*
X151011Y79751D01*
X151017Y79762D01*
X151025Y79773D01*
X151118Y79918D01*
X151124Y79929D01*
X151131Y79940D01*
X151217Y80089D01*
X151223Y80101D01*
X151230Y80112D01*
X151309Y80264D01*
X151314Y80276D01*
X151321Y80288D01*
X151393Y80444D01*
X151398Y80456D01*
X151404Y80467D01*
X151470Y80626D01*
X151474Y80639D01*
X151479Y80651D01*
X151538Y80812D01*
X151542Y80825D01*
X151546Y80837D01*
X151598Y81001D01*
X151601Y81014D01*
X151605Y81026D01*
X151650Y81192D01*
X151652Y81205D01*
X151656Y81217D01*
X151693Y81385D01*
X151695Y81398D01*
X151698Y81411D01*
X151728Y81580D01*
X151730Y81593D01*
X151732Y81606D01*
X151754Y81776D01*
X151755Y81789D01*
X151757Y81802D01*
X151772Y81973D01*
X151773Y81986D01*
X151774Y82000D01*
X151781Y82171D01*
X151781Y82184D01*
X151782Y82198D01*
Y82284D01*
Y172677D01*
Y172817D01*
X151782Y172826D01*
X151782Y172834D01*
X151774Y173115D01*
X151773Y173123D01*
Y173132D01*
X151758Y173412D01*
X151757Y173420D01*
X151756Y173428D01*
X151733Y173708D01*
X151732Y173716D01*
X151731Y173725D01*
X151700Y174004D01*
X151698Y174012D01*
X151698Y174020D01*
X151658Y174298D01*
X151657Y174306D01*
X151656Y174315D01*
X151609Y174591D01*
X151607Y174599D01*
X151606Y174608D01*
X151551Y174883D01*
X151549Y174891D01*
X151548Y174899D01*
X151485Y175173D01*
X151483Y175181D01*
X151481Y175189D01*
X151411Y175461D01*
X151408Y175469D01*
X151407Y175477D01*
X151329Y175747D01*
X151326Y175755D01*
X151324Y175763D01*
X151239Y176030D01*
X151236Y176038D01*
X151233Y176046D01*
X151141Y176311D01*
X151138Y176319D01*
X151135Y176327D01*
X151035Y176589D01*
X151032Y176596D01*
X151029Y176604D01*
X150921Y176864D01*
X150918Y176871D01*
X150915Y176879D01*
X150800Y177135D01*
X150796Y177143D01*
X150793Y177150D01*
X150671Y177403D01*
X150667Y177410D01*
X150664Y177418D01*
X150535Y177667D01*
X150531Y177675D01*
X150527Y177682D01*
X150391Y177928D01*
X150387Y177935D01*
X150383Y177942D01*
X150241Y178184D01*
X150236Y178191D01*
X150232Y178199D01*
X150083Y178436D01*
X150078Y178443D01*
X150073Y178450D01*
X149918Y178683D01*
X149913Y178690D01*
X149908Y178697D01*
X149746Y178926D01*
X149740Y178933D01*
X149736Y178940D01*
X149567Y179164D01*
X149562Y179170D01*
X149557Y179177D01*
X149382Y179396D01*
X149376Y179403D01*
X149371Y179409D01*
X149190Y179624D01*
X149184Y179630D01*
X149179Y179637D01*
X148992Y179846D01*
X148986Y179852D01*
X148981Y179858D01*
X148788Y180062D01*
X148782Y180068D01*
X148776Y180074D01*
X148578Y180272D01*
X148572Y180278D01*
X148566Y180284D01*
X148362Y180477D01*
X148355Y180482D01*
X148350Y180488D01*
X148140Y180675D01*
X148134Y180680D01*
X148128Y180686D01*
X147913Y180867D01*
X147907Y180872D01*
X147900Y180878D01*
X147681Y181053D01*
X147674Y181058D01*
X147668Y181063D01*
X147444Y181232D01*
X147437Y181236D01*
X147430Y181242D01*
X147201Y181404D01*
X147194Y181409D01*
X147187Y181414D01*
X146954Y181570D01*
X146947Y181574D01*
X146940Y181579D01*
X146702Y181728D01*
X146695Y181732D01*
X146688Y181737D01*
X146446Y181879D01*
X146439Y181883D01*
X146432Y181887D01*
X146186Y182023D01*
X146179Y182027D01*
X146171Y182031D01*
X145922Y182160D01*
X145914Y182163D01*
X145907Y182167D01*
X145654Y182289D01*
X145647Y182292D01*
X145639Y182296D01*
X145383Y182411D01*
X145375Y182414D01*
X145368Y182418D01*
X145108Y182525D01*
X145100Y182528D01*
X145093Y182531D01*
X144831Y182631D01*
X144823Y182634D01*
X144815Y182637D01*
X144550Y182729D01*
X144542Y182732D01*
X144534Y182735D01*
X144267Y182820D01*
X144258Y182822D01*
X144251Y182825D01*
X143981Y182903D01*
X143973Y182905D01*
X143965Y182907D01*
X143693Y182977D01*
X143685Y182979D01*
X143677Y182981D01*
X143403Y183044D01*
X143395Y183045D01*
X143387Y183047D01*
X143112Y183102D01*
X143103Y183103D01*
X143095Y183105D01*
X142819Y183152D01*
X142810Y183153D01*
X142802Y183154D01*
X142524Y183194D01*
X142516Y183194D01*
X142507Y183196D01*
X142229Y183227D01*
X142220Y183228D01*
X142212Y183229D01*
X141932Y183252D01*
X141924Y183253D01*
X141916Y183254D01*
X141636Y183269D01*
X141627D01*
X141619Y183270D01*
X141338Y183278D01*
X141330Y183278D01*
X141321Y183278D01*
D02*
G37*
G36*
X92089Y198782D02*
X84289D01*
Y190982D01*
X85228D01*
X85260Y190978D01*
X85322Y190952D01*
X85391Y190897D01*
X85476Y190788D01*
X85569Y190605D01*
X85658Y190346D01*
X85732Y190021D01*
X85786Y189504D01*
X79046Y182765D01*
X78956Y182669D01*
X78929Y182637D01*
X78871Y182568D01*
X78820Y182501D01*
X78791Y182463D01*
X78747Y182397D01*
X78718Y182353D01*
X78651Y182239D01*
X78591Y182122D01*
X78537Y182002D01*
X78490Y181879D01*
X78450Y181753D01*
X78417Y181625D01*
X78404Y181561D01*
X78391Y181496D01*
X78382Y181431D01*
X78373Y181366D01*
X78367Y181300D01*
X78361Y181234D01*
X78358Y181102D01*
Y180440D01*
X78341Y179801D01*
X78293Y179247D01*
X78214Y178774D01*
X78110Y178383D01*
X77986Y178077D01*
X77850Y177855D01*
X77713Y177706D01*
X77574Y177613D01*
X77417Y177557D01*
X77293Y177544D01*
X76609D01*
Y176707D01*
X76607Y176695D01*
X76551Y176535D01*
X76456Y176394D01*
X76307Y176256D01*
X76083Y176119D01*
X75776Y175994D01*
X75384Y175889D01*
X74909Y175810D01*
X74354Y175761D01*
X73712Y175745D01*
X70443D01*
X69777Y175761D01*
X69202Y175811D01*
X68711Y175890D01*
X68307Y175996D01*
X67992Y176121D01*
X67767Y176257D01*
X67620Y176392D01*
X67531Y176527D01*
X67507Y176601D01*
X67495Y176751D01*
X67468Y177006D01*
X67434Y177259D01*
X67391Y177512D01*
X67341Y177763D01*
X67284Y178013D01*
X67219Y178260D01*
X67146Y178506D01*
X67067Y178749D01*
X66979Y178990D01*
X66885Y179227D01*
X66783Y179463D01*
X66675Y179694D01*
X66559Y179923D01*
X66437Y180148D01*
X66308Y180369D01*
X66172Y180586D01*
X66030Y180799D01*
X65881Y181007D01*
X65727Y181211D01*
X65566Y181410D01*
X65399Y181604D01*
X65226Y181793D01*
X65048Y181977D01*
X64864Y182155D01*
X64675Y182328D01*
X64481Y182495D01*
X64282Y182656D01*
X64078Y182810D01*
X63870Y182959D01*
X63657Y183101D01*
X63440Y183237D01*
X63218Y183366D01*
X62994Y183489D01*
X62765Y183604D01*
X62533Y183713D01*
X62298Y183814D01*
X62060Y183908D01*
X61820Y183996D01*
X61576Y184075D01*
X61331Y184148D01*
X61083Y184213D01*
X60834Y184271D01*
X60583Y184320D01*
X60330Y184363D01*
X60077Y184397D01*
X59822Y184424D01*
X59567Y184444D01*
X59311Y184455D01*
X59055Y184459D01*
X58799Y184455D01*
X58543Y184444D01*
X58288Y184424D01*
X58034Y184397D01*
X57780Y184363D01*
X57528Y184320D01*
X57276Y184271D01*
X57027Y184213D01*
X56779Y184148D01*
X56534Y184075D01*
X56291Y183996D01*
X56050Y183908D01*
X55812Y183814D01*
X55577Y183713D01*
X55345Y183604D01*
X55117Y183489D01*
X54892Y183366D01*
X54671Y183237D01*
X54454Y183101D01*
X54241Y182959D01*
X54032Y182810D01*
X53828Y182656D01*
X53629Y182495D01*
X53435Y182328D01*
X53246Y182155D01*
X53062Y181977D01*
X52884Y181793D01*
X52711Y181604D01*
X52545Y181410D01*
X52384Y181211D01*
X52229Y181007D01*
X52080Y180799D01*
X51938Y180586D01*
X51802Y180369D01*
X51673Y180148D01*
X51551Y179923D01*
X51435Y179694D01*
X51327Y179463D01*
X51225Y179227D01*
X51131Y178990D01*
X51044Y178749D01*
X50964Y178506D01*
X50891Y178260D01*
X50826Y178013D01*
X50769Y177763D01*
X50719Y177512D01*
X50677Y177259D01*
X50642Y177006D01*
X50615Y176751D01*
X50596Y176496D01*
X50584Y176240D01*
X50580Y175984D01*
Y172047D01*
X50584Y171791D01*
X50596Y171536D01*
X50615Y171280D01*
X50642Y171026D01*
X50677Y170772D01*
X50719Y170520D01*
X50769Y170268D01*
X50826Y170019D01*
X50891Y169771D01*
X50964Y169526D01*
X51044Y169283D01*
X51131Y169042D01*
X51225Y168804D01*
X51327Y168569D01*
X51435Y168337D01*
X51551Y168109D01*
X51673Y167884D01*
X51802Y167663D01*
X51938Y167446D01*
X52080Y167233D01*
X52229Y167024D01*
X52384Y166821D01*
X52545Y166621D01*
X52711Y166427D01*
X52884Y166238D01*
X53062Y166054D01*
X53246Y165876D01*
X53435Y165704D01*
X53629Y165537D01*
X53828Y165376D01*
X54032Y165221D01*
X54241Y165073D01*
X54454Y164930D01*
X54671Y164795D01*
X54892Y164665D01*
X55117Y164543D01*
X55345Y164427D01*
X55577Y164319D01*
X55812Y164217D01*
X56050Y164123D01*
X56291Y164036D01*
X56534Y163956D01*
X56779Y163883D01*
X57027Y163819D01*
X57276Y163761D01*
X57528Y163711D01*
X57780Y163669D01*
X58034Y163634D01*
X58288Y163607D01*
X58543Y163588D01*
X58799Y163576D01*
X59055Y163572D01*
X59311Y163576D01*
X59567Y163588D01*
X59822Y163607D01*
X60077Y163634D01*
X60330Y163669D01*
X60583Y163711D01*
X60834Y163761D01*
X61083Y163819D01*
X61331Y163883D01*
X61576Y163956D01*
X61820Y164036D01*
X62060Y164123D01*
X62298Y164217D01*
X62533Y164319D01*
X62765Y164427D01*
X62994Y164543D01*
X63218Y164665D01*
X63440Y164795D01*
X63657Y164930D01*
X63870Y165073D01*
X64078Y165221D01*
X64282Y165376D01*
X64481Y165537D01*
X64675Y165704D01*
X64864Y165876D01*
X65048Y166054D01*
X65226Y166238D01*
X65399Y166427D01*
X65566Y166621D01*
X65727Y166821D01*
X65881Y167024D01*
X66030Y167233D01*
X66172Y167446D01*
X66308Y167663D01*
X66437Y167884D01*
X66559Y168109D01*
X66675Y168337D01*
X66783Y168569D01*
X66885Y168804D01*
X66979Y169042D01*
X67067Y169283D01*
X67146Y169526D01*
X67219Y169771D01*
X67284Y170019D01*
X67340Y170263D01*
X67423Y170373D01*
X67595Y170519D01*
X67849Y170661D01*
X68190Y170790D01*
X68619Y170897D01*
X69133Y170977D01*
X69730Y171026D01*
X70416Y171043D01*
X73712D01*
X74354Y171026D01*
X74909Y170977D01*
X75384Y170898D01*
X75776Y170793D01*
X76083Y170668D01*
X76307Y170532D01*
X76456Y170393D01*
X76551Y170252D01*
X76607Y170092D01*
X76609Y170080D01*
Y169244D01*
X84809D01*
Y177544D01*
X84124D01*
X84001Y177557D01*
X83843Y177613D01*
X83704Y177706D01*
X83567Y177855D01*
X83432Y178077D01*
X83308Y178383D01*
X83203Y178774D01*
X83125Y179247D01*
X83076Y179801D01*
X83068Y180137D01*
X89851Y186920D01*
X89942Y187016D01*
X89969Y187048D01*
X90027Y187117D01*
X90078Y187184D01*
X90106Y187222D01*
X90150Y187288D01*
X90180Y187332D01*
X90247Y187445D01*
X90307Y187563D01*
X90361Y187683D01*
X90408Y187806D01*
X90448Y187932D01*
X90481Y188059D01*
X90494Y188124D01*
X90507Y188189D01*
X90516Y188254D01*
X90525Y188320D01*
X90531Y188385D01*
X90536Y188451D01*
X90539Y188565D01*
X90540Y188569D01*
X90552Y189126D01*
X90587Y189603D01*
X90644Y190010D01*
X90720Y190346D01*
X90809Y190605D01*
X90902Y190788D01*
X90987Y190897D01*
X91056Y190952D01*
X91118Y190978D01*
X91150Y190982D01*
X92089D01*
Y198782D01*
D02*
G37*
G36*
X34065Y184838D02*
Y174616D01*
X42340D01*
Y175984D01*
X42336Y176242D01*
X42325Y176500D01*
X42306Y176758D01*
X42279Y177015D01*
X42246Y177270D01*
X42205Y177525D01*
X42156Y177779D01*
X42100Y178031D01*
X42037Y178281D01*
X41967Y178530D01*
X41889Y178776D01*
X41804Y179020D01*
X41712Y179261D01*
X41614Y179499D01*
X41508Y179735D01*
X41396Y179967D01*
X41276Y180196D01*
X41151Y180422D01*
X41018Y180643D01*
X40879Y180861D01*
X40734Y181075D01*
X40583Y181284D01*
X40426Y181489D01*
X40263Y181689D01*
X40094Y181884D01*
X39920Y182075D01*
X39740Y182260D01*
X39555Y182440D01*
X39365Y182614D01*
X39169Y182783D01*
X38969Y182946D01*
X38764Y183103D01*
X38555Y183254D01*
X38341Y183399D01*
X38124Y183538D01*
X37902Y183670D01*
X37677Y183796D01*
X37448Y183915D01*
X37215Y184028D01*
X36980Y184133D01*
X36741Y184232D01*
X36500Y184324D01*
X36256Y184409D01*
X36010Y184486D01*
X35762Y184557D01*
X35511Y184620D01*
X35259Y184676D01*
X35006Y184724D01*
X34751Y184766D01*
X34495Y184799D01*
X34238Y184825D01*
X34065Y184838D01*
D02*
G37*
G36*
X32865Y184838D02*
X32691Y184825D01*
X32434Y184799D01*
X32178Y184766D01*
X31923Y184724D01*
X31670Y184676D01*
X31418Y184620D01*
X31168Y184557D01*
X30919Y184486D01*
X30673Y184409D01*
X30429Y184324D01*
X30188Y184232D01*
X29949Y184133D01*
X29714Y184028D01*
X29482Y183915D01*
X29252Y183796D01*
X29027Y183670D01*
X28805Y183538D01*
X28588Y183399D01*
X28374Y183254D01*
X28165Y183103D01*
X27960Y182946D01*
X27760Y182783D01*
X27564Y182614D01*
X27374Y182440D01*
X27189Y182260D01*
X27009Y182075D01*
X26835Y181884D01*
X26666Y181689D01*
X26503Y181489D01*
X26346Y181284D01*
X26195Y181075D01*
X26050Y180861D01*
X25911Y180643D01*
X25779Y180422D01*
X25653Y180196D01*
X25534Y179967D01*
X25421Y179735D01*
X25315Y179499D01*
X25217Y179261D01*
X25125Y179020D01*
X25040Y178776D01*
X24962Y178530D01*
X24892Y178281D01*
X24829Y178031D01*
X24773Y177779D01*
X24724Y177525D01*
X24683Y177270D01*
X24650Y177015D01*
X24623Y176758D01*
X24605Y176500D01*
X24593Y176242D01*
X24590Y175984D01*
Y174616D01*
X32865D01*
Y184838D01*
D02*
G37*
G36*
X188598Y177378D02*
X173828D01*
Y164773D01*
X188598D01*
Y177378D01*
D02*
G37*
G36*
X172628D02*
X157858D01*
Y164773D01*
X172628D01*
Y177378D01*
D02*
G37*
G36*
X42340Y173416D02*
X34065D01*
Y163193D01*
X34238Y163206D01*
X34495Y163232D01*
X34751Y163266D01*
X35006Y163307D01*
X35259Y163356D01*
X35511Y163411D01*
X35762Y163475D01*
X36010Y163545D01*
X36256Y163623D01*
X36500Y163707D01*
X36741Y163799D01*
X36980Y163898D01*
X37215Y164004D01*
X37448Y164116D01*
X37677Y164235D01*
X37902Y164361D01*
X38124Y164494D01*
X38341Y164632D01*
X38555Y164777D01*
X38764Y164928D01*
X38969Y165086D01*
X39169Y165249D01*
X39365Y165417D01*
X39555Y165592D01*
X39740Y165772D01*
X39920Y165957D01*
X40094Y166147D01*
X40263Y166342D01*
X40426Y166543D01*
X40583Y166747D01*
X40734Y166957D01*
X40879Y167170D01*
X41018Y167388D01*
X41151Y167610D01*
X41276Y167835D01*
X41396Y168064D01*
X41508Y168297D01*
X41614Y168532D01*
X41712Y168771D01*
X41804Y169012D01*
X41889Y169256D01*
X41967Y169502D01*
X42037Y169750D01*
X42100Y170001D01*
X42156Y170253D01*
X42205Y170506D01*
X42246Y170761D01*
X42279Y171017D01*
X42306Y171274D01*
X42325Y171531D01*
X42336Y171789D01*
X42340Y172047D01*
Y173416D01*
D02*
G37*
G36*
X32865D02*
X24590D01*
Y172047D01*
X24593Y171789D01*
X24605Y171531D01*
X24623Y171274D01*
X24650Y171017D01*
X24683Y170761D01*
X24724Y170506D01*
X24773Y170253D01*
X24829Y170001D01*
X24892Y169750D01*
X24962Y169502D01*
X25040Y169256D01*
X25125Y169012D01*
X25217Y168771D01*
X25315Y168532D01*
X25421Y168297D01*
X25534Y168064D01*
X25653Y167835D01*
X25779Y167610D01*
X25911Y167388D01*
X26050Y167170D01*
X26195Y166957D01*
X26346Y166747D01*
X26503Y166543D01*
X26666Y166342D01*
X26835Y166147D01*
X27009Y165957D01*
X27189Y165772D01*
X27374Y165592D01*
X27564Y165417D01*
X27760Y165249D01*
X27960Y165086D01*
X28165Y164928D01*
X28374Y164777D01*
X28588Y164632D01*
X28805Y164494D01*
X29027Y164361D01*
X29252Y164235D01*
X29482Y164116D01*
X29714Y164004D01*
X29949Y163898D01*
X30188Y163799D01*
X30429Y163707D01*
X30673Y163623D01*
X30919Y163545D01*
X31168Y163475D01*
X31418Y163411D01*
X31670Y163356D01*
X31923Y163307D01*
X32178Y163266D01*
X32434Y163232D01*
X32691Y163206D01*
X32865Y163193D01*
Y173416D01*
D02*
G37*
G36*
X49213Y164387D02*
X47844D01*
Y156112D01*
X58066D01*
X58054Y156285D01*
X58028Y156542D01*
X57994Y156798D01*
X57953Y157053D01*
X57904Y157306D01*
X57848Y157558D01*
X57785Y157809D01*
X57715Y158057D01*
X57637Y158303D01*
X57552Y158547D01*
X57460Y158788D01*
X57362Y159027D01*
X57256Y159263D01*
X57144Y159495D01*
X57024Y159724D01*
X56899Y159949D01*
X56766Y160171D01*
X56628Y160389D01*
X56483Y160602D01*
X56331Y160811D01*
X56174Y161016D01*
X56011Y161216D01*
X55842Y161412D01*
X55668Y161602D01*
X55488Y161787D01*
X55303Y161967D01*
X55113Y162142D01*
X54917Y162310D01*
X54717Y162473D01*
X54512Y162630D01*
X54303Y162782D01*
X54089Y162927D01*
X53872Y163065D01*
X53650Y163198D01*
X53425Y163323D01*
X53196Y163443D01*
X52963Y163555D01*
X52728Y163661D01*
X52489Y163760D01*
X52248Y163851D01*
X52004Y163936D01*
X51758Y164014D01*
X51510Y164084D01*
X51259Y164147D01*
X51007Y164203D01*
X50754Y164252D01*
X50499Y164293D01*
X50243Y164327D01*
X49986Y164353D01*
X49729Y164372D01*
X49471Y164383D01*
X49213Y164387D01*
D02*
G37*
G36*
X46644D02*
X45276D01*
X45017Y164383D01*
X44760Y164372D01*
X44502Y164353D01*
X44245Y164327D01*
X43989Y164293D01*
X43734Y164252D01*
X43481Y164203D01*
X43229Y164147D01*
X42979Y164084D01*
X42730Y164014D01*
X42484Y163936D01*
X42240Y163851D01*
X41999Y163760D01*
X41760Y163661D01*
X41525Y163555D01*
X41293Y163443D01*
X41064Y163323D01*
X40838Y163198D01*
X40617Y163065D01*
X40399Y162927D01*
X40185Y162782D01*
X39976Y162630D01*
X39771Y162473D01*
X39571Y162310D01*
X39376Y162142D01*
X39185Y161967D01*
X39000Y161787D01*
X38820Y161602D01*
X38646Y161412D01*
X38477Y161216D01*
X38314Y161016D01*
X38157Y160811D01*
X38006Y160602D01*
X37861Y160389D01*
X37722Y160171D01*
X37590Y159949D01*
X37464Y159724D01*
X37345Y159495D01*
X37232Y159263D01*
X37126Y159027D01*
X37028Y158788D01*
X36936Y158547D01*
X36851Y158303D01*
X36773Y158057D01*
X36703Y157809D01*
X36640Y157558D01*
X36584Y157306D01*
X36536Y157053D01*
X36494Y156798D01*
X36461Y156542D01*
X36434Y156285D01*
X36422Y156112D01*
X46644D01*
Y164387D01*
D02*
G37*
G36*
X188598Y163573D02*
X173828D01*
Y150969D01*
X188598D01*
Y163573D01*
D02*
G37*
G36*
X172628D02*
X157858D01*
Y150969D01*
X172628D01*
Y163573D01*
D02*
G37*
G36*
X58066Y154912D02*
X47844D01*
Y146637D01*
X49213D01*
X49471Y146641D01*
X49729Y146652D01*
X49986Y146671D01*
X50243Y146697D01*
X50499Y146730D01*
X50754Y146772D01*
X51007Y146820D01*
X51259Y146876D01*
X51510Y146939D01*
X51758Y147010D01*
X52004Y147087D01*
X52248Y147172D01*
X52489Y147264D01*
X52728Y147363D01*
X52963Y147468D01*
X53196Y147581D01*
X53425Y147700D01*
X53650Y147826D01*
X53872Y147958D01*
X54089Y148097D01*
X54303Y148242D01*
X54512Y148393D01*
X54717Y148550D01*
X54917Y148713D01*
X55113Y148882D01*
X55303Y149056D01*
X55488Y149236D01*
X55668Y149421D01*
X55842Y149612D01*
X56011Y149807D01*
X56174Y150007D01*
X56331Y150212D01*
X56483Y150421D01*
X56628Y150635D01*
X56766Y150853D01*
X56899Y151074D01*
X57024Y151300D01*
X57144Y151529D01*
X57256Y151761D01*
X57362Y151997D01*
X57460Y152235D01*
X57552Y152476D01*
X57637Y152720D01*
X57715Y152966D01*
X57785Y153215D01*
X57848Y153465D01*
X57904Y153717D01*
X57953Y153971D01*
X57994Y154226D01*
X58028Y154481D01*
X58054Y154738D01*
X58066Y154912D01*
D02*
G37*
G36*
X46644D02*
X36422D01*
X36434Y154738D01*
X36461Y154481D01*
X36494Y154226D01*
X36536Y153971D01*
X36584Y153717D01*
X36640Y153465D01*
X36703Y153215D01*
X36773Y152966D01*
X36851Y152720D01*
X36936Y152476D01*
X37028Y152235D01*
X37126Y151997D01*
X37232Y151761D01*
X37345Y151529D01*
X37464Y151300D01*
X37590Y151074D01*
X37722Y150853D01*
X37861Y150635D01*
X38006Y150421D01*
X38157Y150212D01*
X38314Y150007D01*
X38477Y149807D01*
X38646Y149612D01*
X38820Y149421D01*
X39000Y149236D01*
X39185Y149056D01*
X39376Y148882D01*
X39571Y148713D01*
X39771Y148550D01*
X39976Y148393D01*
X40185Y148242D01*
X40399Y148097D01*
X40617Y147958D01*
X40838Y147826D01*
X41064Y147700D01*
X41293Y147581D01*
X41525Y147468D01*
X41760Y147363D01*
X41999Y147264D01*
X42240Y147172D01*
X42484Y147087D01*
X42730Y147010D01*
X42979Y146939D01*
X43229Y146876D01*
X43481Y146820D01*
X43734Y146772D01*
X43989Y146730D01*
X44245Y146697D01*
X44502Y146671D01*
X44760Y146652D01*
X45017Y146641D01*
X45276Y146637D01*
X46644D01*
Y154912D01*
D02*
G37*
G36*
X9340Y135411D02*
Y131702D01*
X13049D01*
X13032Y131818D01*
X12999Y131995D01*
X12958Y132170D01*
X12910Y132344D01*
X12855Y132515D01*
X12793Y132684D01*
X12725Y132850D01*
X12649Y133013D01*
X12567Y133173D01*
X12478Y133329D01*
X12383Y133482D01*
X12281Y133631D01*
X12174Y133775D01*
X12060Y133914D01*
X11941Y134049D01*
X11817Y134179D01*
X11687Y134303D01*
X11552Y134423D01*
X11413Y134536D01*
X11268Y134643D01*
X11120Y134745D01*
X10967Y134840D01*
X10811Y134929D01*
X10651Y135011D01*
X10488Y135087D01*
X10322Y135156D01*
X10153Y135217D01*
X9982Y135272D01*
X9808Y135320D01*
X9633Y135361D01*
X9456Y135394D01*
X9340Y135411D01*
D02*
G37*
G36*
X8140D02*
X8024Y135394D01*
X7847Y135361D01*
X7672Y135320D01*
X7499Y135272D01*
X7327Y135217D01*
X7159Y135156D01*
X6992Y135087D01*
X6829Y135011D01*
X6669Y134929D01*
X6513Y134840D01*
X6360Y134745D01*
X6212Y134643D01*
X6068Y134536D01*
X5928Y134423D01*
X5793Y134303D01*
X5664Y134179D01*
X5539Y134049D01*
X5420Y133914D01*
X5307Y133775D01*
X5199Y133631D01*
X5098Y133482D01*
X5003Y133329D01*
X4914Y133173D01*
X4831Y133013D01*
X4756Y132850D01*
X4687Y132684D01*
X4625Y132515D01*
X4570Y132344D01*
X4522Y132170D01*
X4482Y131995D01*
X4449Y131818D01*
X4432Y131702D01*
X8140D01*
Y135411D01*
D02*
G37*
G36*
X88277Y134210D02*
X87565D01*
Y131309D01*
X89715D01*
Y132771D01*
X89712Y132874D01*
X89701Y132976D01*
X89683Y133077D01*
X89657Y133176D01*
X89625Y133274D01*
X89586Y133369D01*
X89539Y133460D01*
X89487Y133549D01*
X89429Y133633D01*
X89364Y133713D01*
X89294Y133788D01*
X89219Y133858D01*
X89139Y133923D01*
X89055Y133981D01*
X88966Y134034D01*
X88875Y134080D01*
X88780Y134119D01*
X88682Y134151D01*
X88583Y134177D01*
X88482Y134195D01*
X88380Y134206D01*
X88277Y134210D01*
D02*
G37*
G36*
X86365D02*
X85652D01*
X85549Y134206D01*
X85447Y134195D01*
X85346Y134177D01*
X85247Y134151D01*
X85149Y134119D01*
X85054Y134080D01*
X84963Y134034D01*
X84874Y133981D01*
X84790Y133923D01*
X84710Y133858D01*
X84635Y133788D01*
X84565Y133713D01*
X84501Y133633D01*
X84442Y133549D01*
X84390Y133460D01*
X84344Y133369D01*
X84304Y133274D01*
X84272Y133176D01*
X84246Y133077D01*
X84228Y132976D01*
X84217Y132874D01*
X84214Y132771D01*
Y131309D01*
X86365D01*
Y134210D01*
D02*
G37*
G36*
X75305Y134261D02*
X69183D01*
Y127156D01*
X75305D01*
Y129440D01*
X75308Y129442D01*
X75401Y129466D01*
X75532Y129488D01*
X75696Y129502D01*
X75902Y129508D01*
X77009D01*
X77215Y129502D01*
X77379Y129488D01*
X77510Y129466D01*
X77603Y129442D01*
X77614Y129437D01*
Y128646D01*
X77618Y128556D01*
X77629Y128466D01*
X77649Y128377D01*
X77676Y128291D01*
X77711Y128207D01*
X77753Y128127D01*
X77801Y128050D01*
X77856Y127979D01*
X77918Y127912D01*
X77984Y127851D01*
X78056Y127796D01*
X78133Y127747D01*
X78213Y127705D01*
X78297Y127670D01*
X78383Y127643D01*
X78472Y127623D01*
X78562Y127612D01*
X78652Y127608D01*
X81277D01*
X81368Y127612D01*
X81457Y127623D01*
X81546Y127643D01*
X81632Y127670D01*
X81716Y127705D01*
X81796Y127747D01*
X81873Y127796D01*
X81945Y127851D01*
X82011Y127912D01*
X82073Y127979D01*
X82128Y128050D01*
X82176Y128127D01*
X82218Y128207D01*
X82253Y128291D01*
X82280Y128377D01*
X82300Y128466D01*
X82312Y128556D01*
X82316Y128646D01*
Y132771D01*
X82312Y132862D01*
X82300Y132951D01*
X82280Y133040D01*
X82253Y133126D01*
X82218Y133210D01*
X82176Y133290D01*
X82128Y133367D01*
X82073Y133439D01*
X82011Y133505D01*
X81945Y133567D01*
X81873Y133622D01*
X81796Y133670D01*
X81716Y133712D01*
X81632Y133747D01*
X81546Y133774D01*
X81457Y133794D01*
X81368Y133806D01*
X81277Y133810D01*
X78652D01*
X78562Y133806D01*
X78472Y133794D01*
X78383Y133774D01*
X78297Y133747D01*
X78213Y133712D01*
X78133Y133670D01*
X78056Y133622D01*
X77984Y133567D01*
X77918Y133505D01*
X77856Y133439D01*
X77801Y133367D01*
X77753Y133290D01*
X77711Y133210D01*
X77676Y133126D01*
X77649Y133040D01*
X77629Y132951D01*
X77618Y132862D01*
X77614Y132771D01*
Y131980D01*
X77603Y131976D01*
X77510Y131951D01*
X77379Y131929D01*
X77215Y131915D01*
X77009Y131910D01*
X75902D01*
X75696Y131915D01*
X75532Y131929D01*
X75401Y131951D01*
X75308Y131976D01*
X75305Y131977D01*
Y134261D01*
D02*
G37*
G36*
X89715Y130109D02*
X87565D01*
Y127208D01*
X88277D01*
X88380Y127211D01*
X88482Y127222D01*
X88583Y127241D01*
X88682Y127266D01*
X88780Y127298D01*
X88875Y127338D01*
X88966Y127384D01*
X89055Y127436D01*
X89139Y127495D01*
X89219Y127559D01*
X89294Y127629D01*
X89364Y127704D01*
X89429Y127784D01*
X89487Y127868D01*
X89539Y127957D01*
X89586Y128049D01*
X89625Y128144D01*
X89657Y128241D01*
X89683Y128340D01*
X89701Y128442D01*
X89712Y128543D01*
X89715Y128646D01*
Y130109D01*
D02*
G37*
G36*
X86365D02*
X84214D01*
Y128646D01*
X84217Y128543D01*
X84228Y128442D01*
X84246Y128340D01*
X84272Y128241D01*
X84304Y128144D01*
X84344Y128049D01*
X84390Y127957D01*
X84442Y127868D01*
X84501Y127784D01*
X84565Y127704D01*
X84635Y127629D01*
X84710Y127559D01*
X84790Y127495D01*
X84874Y127436D01*
X84963Y127384D01*
X85054Y127338D01*
X85149Y127298D01*
X85247Y127266D01*
X85346Y127241D01*
X85447Y127222D01*
X85549Y127211D01*
X85652Y127208D01*
X86365D01*
Y130109D01*
D02*
G37*
G36*
X48110Y135053D02*
X47938Y135049D01*
X47766Y135038D01*
X47594Y135020D01*
X47424Y134993D01*
X47255Y134960D01*
X47088Y134919D01*
X46922Y134870D01*
X46759Y134815D01*
X46598Y134753D01*
X46441Y134683D01*
X46286Y134607D01*
X46135Y134524D01*
X45987Y134434D01*
X45844Y134339D01*
X45705Y134237D01*
X45571Y134129D01*
X45441Y134015D01*
X45316Y133896D01*
X45197Y133772D01*
X45084Y133642D01*
X44976Y133508D01*
X44874Y133369D01*
X44778Y133225D01*
X44689Y133078D01*
X44606Y132927D01*
X44530Y132772D01*
X44460Y132614D01*
X44398Y132454D01*
X44342Y132290D01*
X44294Y132125D01*
X44253Y131957D01*
X44219Y131788D01*
X44193Y131618D01*
X44174Y131447D01*
X44163Y131275D01*
X44159Y131102D01*
X44163Y130930D01*
X44174Y130758D01*
X44193Y130587D01*
X44219Y130416D01*
X44253Y130247D01*
X44294Y130080D01*
X44342Y129914D01*
X44398Y129751D01*
X44460Y129590D01*
X44530Y129433D01*
X44606Y129278D01*
X44689Y129127D01*
X44778Y128980D01*
X44874Y128836D01*
X44976Y128697D01*
X45084Y128563D01*
X45197Y128433D01*
X45316Y128309D01*
X45441Y128189D01*
X45571Y128076D01*
X45705Y127968D01*
X45844Y127866D01*
X45987Y127770D01*
X46135Y127681D01*
X46286Y127598D01*
X46441Y127522D01*
X46598Y127452D01*
X46759Y127390D01*
X46922Y127334D01*
X47088Y127286D01*
X47255Y127245D01*
X47424Y127211D01*
X47594Y127185D01*
X47766Y127166D01*
X47938Y127155D01*
X48110Y127151D01*
X48283Y127155D01*
X48455Y127166D01*
X48626Y127185D01*
X48796Y127211D01*
X48965Y127245D01*
X49133Y127286D01*
X49298Y127334D01*
X49461Y127390D01*
X49622Y127452D01*
X49780Y127522D01*
X49935Y127598D01*
X50086Y127681D01*
X50233Y127770D01*
X50376Y127866D01*
X50515Y127968D01*
X50570Y128012D01*
X50581Y128019D01*
X50582Y128020D01*
X50582Y128021D01*
X50583Y128021D01*
X50966Y128321D01*
X51320Y128580D01*
X51982Y129012D01*
X52268Y129171D01*
X52536Y129300D01*
X52777Y129396D01*
X52988Y129460D01*
X53170Y129496D01*
X53341Y129508D01*
X60319D01*
X60521Y129502D01*
X60684Y129488D01*
X60812Y129467D01*
X60903Y129442D01*
X60916Y129437D01*
Y127156D01*
X67037D01*
Y134261D01*
X60916D01*
Y131980D01*
X60903Y131975D01*
X60812Y131951D01*
X60684Y131929D01*
X60521Y131915D01*
X60319Y131910D01*
X53486D01*
X53291Y131923D01*
X53108Y131962D01*
X52914Y132030D01*
X52706Y132131D01*
X52486Y132267D01*
X52254Y132439D01*
X52019Y132645D01*
X51497Y133196D01*
X51229Y133528D01*
X51225Y133532D01*
X51137Y133642D01*
X51023Y133772D01*
X50904Y133896D01*
X50779Y134015D01*
X50650Y134129D01*
X50515Y134237D01*
X50376Y134339D01*
X50233Y134434D01*
X50086Y134524D01*
X49935Y134607D01*
X49780Y134683D01*
X49622Y134753D01*
X49461Y134815D01*
X49298Y134870D01*
X49133Y134919D01*
X48965Y134960D01*
X48796Y134993D01*
X48626Y135020D01*
X48455Y135038D01*
X48283Y135049D01*
X48110Y135053D01*
D02*
G37*
G36*
X13049Y130502D02*
X9340D01*
Y126794D01*
X9456Y126811D01*
X9633Y126844D01*
X9808Y126885D01*
X9982Y126932D01*
X10153Y126987D01*
X10322Y127049D01*
X10488Y127118D01*
X10651Y127193D01*
X10811Y127276D01*
X10967Y127365D01*
X11120Y127460D01*
X11268Y127561D01*
X11413Y127669D01*
X11552Y127782D01*
X11687Y127901D01*
X11817Y128026D01*
X11941Y128156D01*
X12060Y128290D01*
X12174Y128430D01*
X12281Y128574D01*
X12383Y128723D01*
X12478Y128875D01*
X12567Y129032D01*
X12649Y129192D01*
X12725Y129355D01*
X12793Y129521D01*
X12855Y129690D01*
X12910Y129861D01*
X12958Y130034D01*
X12999Y130210D01*
X13032Y130386D01*
X13049Y130502D01*
D02*
G37*
G36*
X8140D02*
X4432D01*
X4449Y130386D01*
X4482Y130210D01*
X4522Y130034D01*
X4570Y129861D01*
X4625Y129690D01*
X4687Y129521D01*
X4756Y129355D01*
X4831Y129192D01*
X4914Y129032D01*
X5003Y128875D01*
X5098Y128723D01*
X5199Y128574D01*
X5307Y128430D01*
X5420Y128290D01*
X5539Y128156D01*
X5664Y128026D01*
X5793Y127901D01*
X5928Y127782D01*
X6068Y127669D01*
X6212Y127561D01*
X6360Y127460D01*
X6513Y127365D01*
X6669Y127276D01*
X6829Y127193D01*
X6992Y127118D01*
X7159Y127049D01*
X7327Y126987D01*
X7499Y126932D01*
X7672Y126885D01*
X7847Y126844D01*
X8024Y126811D01*
X8140Y126794D01*
Y130502D01*
D02*
G37*
G36*
X186939Y106982D02*
X170739D01*
Y99876D01*
X170732Y99817D01*
X170661Y99615D01*
X170541Y99436D01*
X170357Y99265D01*
X170088Y99101D01*
X169726Y98954D01*
X169269Y98831D01*
X168719Y98740D01*
X168078Y98683D01*
X167341Y98664D01*
X163892D01*
X163799Y98723D01*
X163666Y98798D01*
X163531Y98866D01*
X163391Y98928D01*
X163249Y98983D01*
X163105Y99030D01*
X162958Y99071D01*
X162810Y99104D01*
X162660Y99130D01*
X162509Y99149D01*
X162357Y99160D01*
X162205Y99164D01*
X162053Y99160D01*
X161901Y99149D01*
X161750Y99130D01*
X161600Y99104D01*
X161451Y99071D01*
X161305Y99030D01*
X161160Y98983D01*
X161018Y98928D01*
X160879Y98866D01*
X160743Y98798D01*
X160610Y98723D01*
X160482Y98641D01*
X160357Y98554D01*
X160238Y98460D01*
X160122Y98361D01*
X160012Y98256D01*
X159907Y98146D01*
X159808Y98030D01*
X159714Y97910D01*
X159626Y97786D01*
X159545Y97657D01*
X159470Y97525D01*
X159402Y97389D01*
X159340Y97250D01*
X159285Y97108D01*
X159237Y96963D01*
X159197Y96816D01*
X159163Y96668D01*
X159137Y96518D01*
X159119Y96367D01*
X159107Y96215D01*
X159104Y96063D01*
X159107Y95911D01*
X159119Y95759D01*
X159137Y95608D01*
X159163Y95458D01*
X159197Y95310D01*
X159237Y95163D01*
X159285Y95018D01*
X159340Y94876D01*
X159402Y94737D01*
X159470Y94601D01*
X159545Y94469D01*
X159626Y94340D01*
X159714Y94216D01*
X159808Y94096D01*
X159907Y93980D01*
X160012Y93870D01*
X160122Y93765D01*
X160238Y93666D01*
X160357Y93572D01*
X160482Y93485D01*
X160610Y93403D01*
X160743Y93328D01*
X160879Y93260D01*
X161018Y93198D01*
X161160Y93143D01*
X161305Y93096D01*
X161451Y93055D01*
X161600Y93022D01*
X161750Y92996D01*
X161901Y92977D01*
X162053Y92966D01*
X162205Y92962D01*
X162357Y92966D01*
X162509Y92977D01*
X162660Y92996D01*
X162810Y93022D01*
X162958Y93055D01*
X163105Y93096D01*
X163249Y93143D01*
X163391Y93198D01*
X163531Y93260D01*
X163666Y93328D01*
X163799Y93403D01*
X163892Y93462D01*
X167341D01*
X168078Y93443D01*
X168719Y93386D01*
X169269Y93295D01*
X169726Y93172D01*
X170088Y93025D01*
X170357Y92861D01*
X170541Y92690D01*
X170661Y92511D01*
X170732Y92309D01*
X170739Y92250D01*
Y82782D01*
X186939D01*
Y106982D01*
D02*
G37*
G36*
X96457Y102664D02*
X96231Y102660D01*
X96006Y102649D01*
X95782Y102629D01*
X95558Y102603D01*
X95335Y102568D01*
X95114Y102526D01*
X94894Y102476D01*
X94676Y102419D01*
X94460Y102355D01*
X94246Y102283D01*
X94035Y102204D01*
X93827Y102118D01*
X93622Y102024D01*
X93420Y101924D01*
X93221Y101817D01*
X93027Y101703D01*
X92836Y101583D01*
X92650Y101456D01*
X92468Y101323D01*
X92291Y101183D01*
X92119Y101038D01*
X91951Y100887D01*
X91789Y100731D01*
X91632Y100568D01*
X91482Y100401D01*
X91336Y100229D01*
X91197Y100051D01*
X91064Y99870D01*
X90937Y99683D01*
X90817Y99493D01*
X90703Y99298D01*
X90596Y99100D01*
X90496Y98898D01*
X90402Y98693D01*
X90316Y98485D01*
X90237Y98273D01*
X90165Y98060D01*
X90101Y97844D01*
X90043Y97626D01*
X89994Y97406D01*
X89952Y97185D01*
X89917Y96962D01*
X89890Y96738D01*
X89871Y96513D01*
X89860Y96288D01*
X89856Y96063D01*
X89860Y95838D01*
X89871Y95613D01*
X89890Y95388D01*
X89917Y95164D01*
X89952Y94941D01*
X89994Y94720D01*
X90043Y94500D01*
X90101Y94282D01*
X90165Y94066D01*
X90237Y93853D01*
X90316Y93641D01*
X90402Y93433D01*
X90496Y93228D01*
X90596Y93026D01*
X90703Y92828D01*
X90817Y92633D01*
X90937Y92443D01*
X91064Y92256D01*
X91197Y92075D01*
X91336Y91897D01*
X91482Y91725D01*
X91632Y91558D01*
X91789Y91395D01*
X91951Y91239D01*
X92119Y91088D01*
X92291Y90943D01*
X92468Y90803D01*
X92650Y90670D01*
X92836Y90543D01*
X93027Y90423D01*
X93221Y90309D01*
X93420Y90202D01*
X93622Y90102D01*
X93827Y90008D01*
X94035Y89922D01*
X94246Y89843D01*
X94460Y89771D01*
X94676Y89707D01*
X94894Y89650D01*
X95114Y89600D01*
X95335Y89558D01*
X95558Y89524D01*
X95782Y89497D01*
X96006Y89477D01*
X96231Y89466D01*
X96457Y89462D01*
X96682Y89466D01*
X96907Y89477D01*
X97132Y89497D01*
X97356Y89524D01*
X97578Y89558D01*
X97800Y89600D01*
X98020Y89650D01*
X98238Y89707D01*
X98454Y89771D01*
X98667Y89843D01*
X98878Y89922D01*
X99086Y90008D01*
X99292Y90102D01*
X99494Y90202D01*
X99692Y90309D01*
X99886Y90423D01*
X100077Y90543D01*
X100263Y90670D01*
X100445Y90803D01*
X100622Y90943D01*
X100795Y91088D01*
X100962Y91239D01*
X101124Y91395D01*
X101281Y91558D01*
X101432Y91725D01*
X101577Y91897D01*
X101716Y92075D01*
X101849Y92256D01*
X101976Y92443D01*
X102097Y92633D01*
X102210Y92828D01*
X102318Y93026D01*
X102418Y93228D01*
X102511Y93433D01*
X102597Y93641D01*
X102676Y93853D01*
X102748Y94066D01*
X102813Y94282D01*
X102870Y94500D01*
X102920Y94720D01*
X102962Y94941D01*
X102996Y95164D01*
X103023Y95388D01*
X103042Y95613D01*
X103054Y95838D01*
X103058Y96063D01*
X103054Y96288D01*
X103042Y96513D01*
X103023Y96738D01*
X102996Y96962D01*
X102962Y97185D01*
X102920Y97406D01*
X102870Y97626D01*
X102813Y97844D01*
X102748Y98060D01*
X102676Y98273D01*
X102597Y98485D01*
X102511Y98693D01*
X102418Y98898D01*
X102318Y99100D01*
X102210Y99298D01*
X102097Y99493D01*
X101976Y99683D01*
X101849Y99870D01*
X101716Y100051D01*
X101577Y100229D01*
X101432Y100401D01*
X101281Y100568D01*
X101124Y100731D01*
X100962Y100887D01*
X100795Y101038D01*
X100622Y101183D01*
X100445Y101323D01*
X100263Y101456D01*
X100077Y101583D01*
X99886Y101703D01*
X99692Y101817D01*
X99494Y101924D01*
X99292Y102024D01*
X99086Y102118D01*
X98878Y102204D01*
X98667Y102283D01*
X98454Y102355D01*
X98238Y102419D01*
X98020Y102476D01*
X97800Y102526D01*
X97578Y102568D01*
X97356Y102603D01*
X97132Y102629D01*
X96907Y102649D01*
X96682Y102660D01*
X96457Y102664D01*
D02*
G37*
G36*
X84809Y161404D02*
X76609D01*
Y153104D01*
X77257D01*
X77328Y153094D01*
X77420Y153051D01*
X77526Y152956D01*
X77648Y152779D01*
X77773Y152504D01*
X77887Y152129D01*
X77979Y151669D01*
X78093Y150443D01*
X78108Y149708D01*
Y148786D01*
X72868Y143546D01*
X42126D01*
X41990Y143542D01*
X41854Y143532D01*
X41719Y143514D01*
X41645Y143500D01*
X41585Y143489D01*
X41453Y143457D01*
X41322Y143419D01*
X41194Y143373D01*
X41068Y143321D01*
X40945Y143262D01*
X40826Y143197D01*
X40767Y143162D01*
X40709Y143126D01*
X40664Y143095D01*
X40597Y143049D01*
X40489Y142966D01*
X40386Y142878D01*
X40287Y142784D01*
X8618Y111115D01*
X8524Y111016D01*
X8435Y110912D01*
X8353Y110804D01*
X8307Y110738D01*
X8275Y110692D01*
X8204Y110576D01*
X8139Y110456D01*
X8081Y110334D01*
X8028Y110208D01*
X7983Y110079D01*
X7944Y109949D01*
X7913Y109816D01*
X7902Y109756D01*
X7888Y109683D01*
X7870Y109547D01*
X7859Y109412D01*
X7856Y109276D01*
Y105333D01*
X7835Y104812D01*
X7775Y104317D01*
X7675Y103837D01*
X7536Y103369D01*
X7357Y102912D01*
X7137Y102466D01*
X6875Y102030D01*
X6572Y101603D01*
X6225Y101186D01*
X5822Y100763D01*
X5820Y100760D01*
X5789Y100731D01*
X5632Y100568D01*
X5482Y100401D01*
X5336Y100229D01*
X5197Y100051D01*
X5064Y99870D01*
X4937Y99683D01*
X4817Y99493D01*
X4703Y99298D01*
X4596Y99100D01*
X4496Y98898D01*
X4402Y98693D01*
X4316Y98485D01*
X4237Y98273D01*
X4165Y98060D01*
X4101Y97844D01*
X4043Y97626D01*
X3994Y97406D01*
X3952Y97185D01*
X3917Y96962D01*
X3890Y96738D01*
X3871Y96513D01*
X3860Y96288D01*
X3856Y96063D01*
X3860Y95838D01*
X3871Y95613D01*
X3890Y95388D01*
X3917Y95164D01*
X3952Y94941D01*
X3994Y94720D01*
X4043Y94500D01*
X4101Y94282D01*
X4165Y94066D01*
X4237Y93853D01*
X4316Y93641D01*
X4402Y93433D01*
X4496Y93228D01*
X4596Y93026D01*
X4703Y92828D01*
X4817Y92633D01*
X4937Y92443D01*
X5064Y92256D01*
X5197Y92075D01*
X5336Y91897D01*
X5482Y91725D01*
X5632Y91558D01*
X5789Y91395D01*
X5951Y91239D01*
X6118Y91088D01*
X6291Y90943D01*
X6468Y90803D01*
X6650Y90670D01*
X6836Y90543D01*
X7027Y90423D01*
X7221Y90309D01*
X7420Y90202D01*
X7622Y90102D01*
X7827Y90008D01*
X8035Y89922D01*
X8246Y89843D01*
X8460Y89771D01*
X8676Y89707D01*
X8894Y89650D01*
X9114Y89600D01*
X9335Y89558D01*
X9558Y89524D01*
X9782Y89497D01*
X10006Y89477D01*
X10231Y89466D01*
X10457Y89462D01*
X10682Y89466D01*
X10907Y89477D01*
X11132Y89497D01*
X11355Y89524D01*
X11578Y89558D01*
X11800Y89600D01*
X12020Y89650D01*
X12238Y89707D01*
X12454Y89771D01*
X12667Y89843D01*
X12878Y89922D01*
X13086Y90008D01*
X13292Y90102D01*
X13494Y90202D01*
X13692Y90309D01*
X13886Y90423D01*
X14077Y90543D01*
X14263Y90670D01*
X14445Y90803D01*
X14623Y90943D01*
X14795Y91088D01*
X14962Y91239D01*
X15124Y91395D01*
X15281Y91558D01*
X15432Y91725D01*
X15577Y91897D01*
X15716Y92075D01*
X15849Y92256D01*
X15976Y92443D01*
X16097Y92633D01*
X16210Y92828D01*
X16318Y93026D01*
X16418Y93228D01*
X16511Y93433D01*
X16597Y93641D01*
X16677Y93853D01*
X16748Y94066D01*
X16813Y94282D01*
X16870Y94500D01*
X16920Y94720D01*
X16962Y94941D01*
X16996Y95164D01*
X17023Y95388D01*
X17042Y95613D01*
X17054Y95838D01*
X17058Y96063D01*
X17054Y96288D01*
X17042Y96513D01*
X17023Y96738D01*
X16996Y96962D01*
X16962Y97185D01*
X16920Y97406D01*
X16870Y97626D01*
X16813Y97844D01*
X16748Y98060D01*
X16677Y98273D01*
X16597Y98485D01*
X16511Y98693D01*
X16418Y98898D01*
X16318Y99100D01*
X16210Y99298D01*
X16097Y99493D01*
X15976Y99683D01*
X15849Y99870D01*
X15716Y100051D01*
X15577Y100229D01*
X15432Y100401D01*
X15281Y100568D01*
X15124Y100731D01*
X15093Y100760D01*
X15091Y100763D01*
X14688Y101186D01*
X14342Y101603D01*
X14038Y102030D01*
X13777Y102466D01*
X13557Y102912D01*
X13377Y103369D01*
X13238Y103837D01*
X13138Y104317D01*
X13078Y104812D01*
X13058Y105333D01*
Y108198D01*
X43203Y138344D01*
X73945D01*
X74081Y138348D01*
X74217Y138358D01*
X74352Y138376D01*
X74426Y138390D01*
X74486Y138401D01*
X74618Y138433D01*
X74749Y138471D01*
X74877Y138517D01*
X75003Y138569D01*
X75126Y138628D01*
X75245Y138692D01*
X75303Y138728D01*
X75361Y138764D01*
X75407Y138795D01*
X75474Y138841D01*
X75582Y138924D01*
X75685Y139012D01*
X75784Y139106D01*
X82548Y145870D01*
X82642Y145968D01*
X82730Y146072D01*
X82813Y146180D01*
X82859Y146246D01*
X82890Y146292D01*
X82925Y146350D01*
X82961Y146408D01*
X83026Y146528D01*
X83085Y146651D01*
X83137Y146777D01*
X83182Y146905D01*
X83221Y147036D01*
X83253Y147168D01*
X83264Y147228D01*
X83277Y147302D01*
X83295Y147437D01*
X83306Y147573D01*
X83310Y147709D01*
Y149708D01*
X83324Y150451D01*
X83367Y151100D01*
X83436Y151660D01*
X83530Y152129D01*
X83644Y152504D01*
X83769Y152779D01*
X83892Y152956D01*
X83997Y153051D01*
X84089Y153094D01*
X84161Y153104D01*
X84809D01*
Y161404D01*
D02*
G37*
G36*
X33962Y61836D02*
X26825D01*
Y61155D01*
X26818Y61085D01*
X26779Y60977D01*
X26712Y60880D01*
X26599Y60778D01*
X26421Y60673D01*
X26170Y60573D01*
X25843Y60488D01*
X25444Y60423D01*
X24974Y60383D01*
X24430Y60369D01*
X14040D01*
X13487Y60375D01*
X12557Y60423D01*
X12201Y60462D01*
X11912Y60511D01*
X11700Y60565D01*
X11650Y60584D01*
Y61000D01*
X5350D01*
Y55800D01*
X11650D01*
Y56046D01*
X13489Y56163D01*
X14039Y56167D01*
X24430D01*
X24974Y56153D01*
X25444Y56113D01*
X25843Y56048D01*
X26170Y55963D01*
X26421Y55863D01*
X26599Y55757D01*
X26712Y55655D01*
X26779Y55559D01*
X26818Y55451D01*
X26825Y55381D01*
Y54699D01*
X27366D01*
X27401Y54651D01*
X27484Y54464D01*
X27570Y54169D01*
X27644Y53789D01*
X27784Y52043D01*
X27793Y51304D01*
X27793Y51303D01*
Y50306D01*
X27796Y50170D01*
X27807Y50034D01*
X27825Y49899D01*
X27839Y49826D01*
X27850Y49766D01*
X27881Y49633D01*
X27920Y49503D01*
X27966Y49374D01*
X28018Y49248D01*
X28076Y49125D01*
X28141Y49006D01*
X28177Y48948D01*
X28212Y48890D01*
X28244Y48844D01*
X28289Y48777D01*
X28372Y48669D01*
X28461Y48566D01*
X28555Y48467D01*
X50121Y26901D01*
X50220Y26807D01*
X50323Y26719D01*
X50431Y26636D01*
X50498Y26590D01*
X50543Y26559D01*
X50601Y26523D01*
X50659Y26488D01*
X50719Y26455D01*
X50779Y26423D01*
X50838Y26395D01*
X50902Y26364D01*
X50976Y26334D01*
X51028Y26312D01*
X51061Y26300D01*
X51156Y26267D01*
X51287Y26228D01*
X51419Y26196D01*
X51479Y26185D01*
X51553Y26171D01*
X51688Y26153D01*
X51824Y26143D01*
X51960Y26139D01*
X51960Y26139D01*
X71002D01*
X71740Y26120D01*
X72381Y26063D01*
X72931Y25972D01*
X73388Y25850D01*
X73750Y25702D01*
X74018Y25538D01*
X74203Y25367D01*
X74322Y25189D01*
X74394Y24986D01*
X74400Y24927D01*
Y18888D01*
X81506D01*
Y38592D01*
X74400D01*
Y32553D01*
X74394Y32494D01*
X74322Y32292D01*
X74203Y32113D01*
X74018Y31942D01*
X73750Y31778D01*
X73387Y31631D01*
X72931Y31508D01*
X72381Y31417D01*
X71740Y31360D01*
X71002Y31341D01*
X53037D01*
X32996Y51383D01*
X33004Y52049D01*
X33078Y53295D01*
X33140Y53775D01*
X33217Y54169D01*
X33304Y54464D01*
X33387Y54651D01*
X33421Y54699D01*
X33962D01*
Y61836D01*
D02*
G37*
G36*
X40994Y62191D02*
Y58868D01*
X44317D01*
X44303Y58957D01*
X44269Y59127D01*
X44228Y59295D01*
X44179Y59461D01*
X44124Y59625D01*
X44061Y59787D01*
X43991Y59945D01*
X43915Y60101D01*
X43831Y60252D01*
X43742Y60400D01*
X43645Y60545D01*
X43543Y60684D01*
X43435Y60819D01*
X43320Y60949D01*
X43200Y61075D01*
X43075Y61194D01*
X42945Y61308D01*
X42810Y61417D01*
X42671Y61519D01*
X42527Y61616D01*
X42378Y61705D01*
X42227Y61789D01*
X42071Y61865D01*
X41913Y61935D01*
X41751Y61998D01*
X41587Y62053D01*
X41421Y62102D01*
X41253Y62143D01*
X41083Y62177D01*
X40994Y62191D01*
D02*
G37*
G36*
X39794D02*
X39704Y62177D01*
X39535Y62143D01*
X39366Y62102D01*
X39200Y62053D01*
X39036Y61998D01*
X38875Y61935D01*
X38716Y61865D01*
X38561Y61789D01*
X38409Y61705D01*
X38261Y61616D01*
X38117Y61519D01*
X37977Y61417D01*
X37842Y61308D01*
X37712Y61194D01*
X37587Y61075D01*
X37467Y60949D01*
X37353Y60819D01*
X37244Y60684D01*
X37142Y60545D01*
X37046Y60400D01*
X36956Y60252D01*
X36873Y60101D01*
X36796Y59945D01*
X36726Y59787D01*
X36664Y59625D01*
X36608Y59461D01*
X36560Y59295D01*
X36518Y59127D01*
X36485Y58957D01*
X36471Y58868D01*
X39794D01*
Y62191D01*
D02*
G37*
G36*
X50394Y61837D02*
X50229Y61833D01*
X50064Y61822D01*
X49901Y61803D01*
X49738Y61776D01*
X49577Y61742D01*
X49417Y61701D01*
X49259Y61652D01*
X49104Y61596D01*
X48952Y61533D01*
X48803Y61463D01*
X48657Y61386D01*
X48515Y61303D01*
X48377Y61212D01*
X48243Y61116D01*
X48113Y61014D01*
X47989Y60906D01*
X47870Y60792D01*
X47756Y60672D01*
X47648Y60548D01*
X47545Y60419D01*
X47449Y60285D01*
X47359Y60147D01*
X47275Y60005D01*
X47199Y59859D01*
X47128Y59710D01*
X47065Y59557D01*
X47009Y59402D01*
X46960Y59245D01*
X46919Y59085D01*
X46885Y58924D01*
X46859Y58761D01*
X46839Y58597D01*
X46828Y58433D01*
X46824Y58268D01*
X46828Y58103D01*
X46839Y57938D01*
X46859Y57775D01*
X46885Y57612D01*
X46919Y57450D01*
X46960Y57291D01*
X47009Y57133D01*
X47065Y56978D01*
X47128Y56826D01*
X47199Y56677D01*
X47275Y56531D01*
X47359Y56389D01*
X47449Y56251D01*
X47545Y56117D01*
X47648Y55987D01*
X47756Y55863D01*
X47870Y55744D01*
X47989Y55630D01*
X48113Y55522D01*
X48243Y55419D01*
X48377Y55323D01*
X48515Y55233D01*
X48657Y55149D01*
X48803Y55072D01*
X48952Y55002D01*
X49104Y54939D01*
X49259Y54883D01*
X49417Y54835D01*
X49577Y54793D01*
X49738Y54759D01*
X49901Y54733D01*
X50064Y54713D01*
X50229Y54702D01*
X50394Y54698D01*
X50559Y54702D01*
X50723Y54713D01*
X50887Y54733D01*
X51050Y54759D01*
X51211Y54793D01*
X51371Y54835D01*
X51528Y54883D01*
X51683Y54939D01*
X51836Y55002D01*
X51985Y55072D01*
X52131Y55149D01*
X52273Y55233D01*
X52411Y55323D01*
X52545Y55419D01*
X52674Y55522D01*
X52798Y55630D01*
X52918Y55744D01*
X52925Y55751D01*
X53006Y55823D01*
X53091Y55880D01*
X53201Y55937D01*
X53339Y55992D01*
X53505Y56042D01*
X53698Y56085D01*
X53912Y56119D01*
X54446Y56161D01*
X54741Y56167D01*
X64536D01*
X65595Y56148D01*
X66400Y56091D01*
X66693Y56053D01*
X66915Y56008D01*
X66929Y56004D01*
Y55668D01*
X73229D01*
Y60868D01*
X66929D01*
Y60531D01*
X66915Y60527D01*
X66711Y60487D01*
X65087Y60373D01*
X64539Y60369D01*
X54747D01*
X54160Y60391D01*
X53919Y60416D01*
X53698Y60451D01*
X53505Y60494D01*
X53339Y60544D01*
X53201Y60599D01*
X53091Y60655D01*
X53006Y60712D01*
X52925Y60785D01*
X52918Y60792D01*
X52798Y60906D01*
X52674Y61014D01*
X52545Y61116D01*
X52411Y61212D01*
X52273Y61303D01*
X52131Y61386D01*
X51985Y61463D01*
X51836Y61533D01*
X51683Y61596D01*
X51528Y61652D01*
X51371Y61701D01*
X51211Y61742D01*
X51050Y61776D01*
X50887Y61803D01*
X50723Y61822D01*
X50559Y61833D01*
X50394Y61837D01*
D02*
G37*
G36*
X44317Y57668D02*
X40994D01*
Y54345D01*
X41083Y54359D01*
X41253Y54392D01*
X41421Y54434D01*
X41587Y54482D01*
X41751Y54538D01*
X41913Y54600D01*
X42071Y54670D01*
X42227Y54747D01*
X42378Y54830D01*
X42527Y54920D01*
X42671Y55016D01*
X42810Y55119D01*
X42945Y55227D01*
X43075Y55341D01*
X43200Y55461D01*
X43320Y55586D01*
X43435Y55716D01*
X43543Y55851D01*
X43645Y55991D01*
X43742Y56135D01*
X43831Y56283D01*
X43915Y56435D01*
X43991Y56590D01*
X44061Y56749D01*
X44124Y56910D01*
X44179Y57074D01*
X44228Y57240D01*
X44269Y57409D01*
X44303Y57578D01*
X44317Y57668D01*
D02*
G37*
G36*
X39794D02*
X36471D01*
X36485Y57578D01*
X36518Y57409D01*
X36560Y57240D01*
X36608Y57074D01*
X36664Y56910D01*
X36726Y56749D01*
X36796Y56590D01*
X36873Y56435D01*
X36956Y56283D01*
X37046Y56135D01*
X37142Y55991D01*
X37244Y55851D01*
X37353Y55716D01*
X37467Y55586D01*
X37587Y55461D01*
X37712Y55341D01*
X37842Y55227D01*
X37977Y55119D01*
X38117Y55016D01*
X38261Y54920D01*
X38409Y54830D01*
X38561Y54747D01*
X38716Y54670D01*
X38875Y54600D01*
X39036Y54538D01*
X39200Y54482D01*
X39366Y54434D01*
X39535Y54392D01*
X39704Y54359D01*
X39794Y54345D01*
Y57668D01*
D02*
G37*
G36*
X160100Y53301D02*
X160100Y53301D01*
X152809D01*
X152809Y53301D01*
X152762Y53299D01*
X152714Y53297D01*
X152621Y53286D01*
X152528Y53268D01*
X152438Y53242D01*
X152349Y53210D01*
X152263Y53170D01*
X152181Y53124D01*
X152142Y53098D01*
X152103Y53072D01*
X152066Y53042D01*
X152029Y53013D01*
X151960Y52949D01*
X149336Y50325D01*
X149161Y50158D01*
X149008Y50027D01*
X148876Y49927D01*
X148768Y49860D01*
X148716Y49835D01*
X148591Y49889D01*
X148437Y49950D01*
X148280Y50003D01*
X148120Y50049D01*
X147959Y50089D01*
X147797Y50121D01*
X147633Y50146D01*
X147468Y50164D01*
X147302Y50175D01*
X147137Y50179D01*
X147037D01*
X146871Y50175D01*
X146705Y50164D01*
X146540Y50146D01*
X146377Y50121D01*
X146214Y50089D01*
X146053Y50049D01*
X145894Y50003D01*
X145737Y49950D01*
X145582Y49889D01*
X145430Y49823D01*
X145282Y49749D01*
X145136Y49670D01*
X144994Y49584D01*
X144857Y49492D01*
X144723Y49393D01*
X144593Y49290D01*
X144469Y49180D01*
X144349Y49066D01*
X144234Y48946D01*
X144125Y48821D01*
X144021Y48692D01*
X143923Y48558D01*
X143831Y48420D01*
X143745Y48278D01*
X143665Y48133D01*
X143592Y47984D01*
X143525Y47833D01*
X143465Y47678D01*
X143412Y47521D01*
X143365Y47362D01*
X143326Y47201D01*
X143293Y47038D01*
X143268Y46874D01*
X143250Y46709D01*
X143239Y46544D01*
X143236Y46378D01*
X143239Y46212D01*
X143250Y46047D01*
X143268Y45882D01*
X143293Y45718D01*
X143326Y45555D01*
X143365Y45394D01*
X143412Y45235D01*
X143465Y45078D01*
X143525Y44923D01*
X143592Y44772D01*
X143665Y44623D01*
X143745Y44477D01*
X143831Y44336D01*
X143923Y44198D01*
X144021Y44064D01*
X144125Y43935D01*
X144234Y43810D01*
X144349Y43690D01*
X144469Y43576D01*
X144593Y43466D01*
X144723Y43363D01*
X144857Y43264D01*
X144994Y43172D01*
X145136Y43086D01*
X145282Y43007D01*
X145430Y42933D01*
X145582Y42866D01*
X145737Y42806D01*
X145894Y42753D01*
X146053Y42707D01*
X146214Y42667D01*
X146377Y42635D01*
X146540Y42610D01*
X146705Y42592D01*
X146871Y42581D01*
X147037Y42577D01*
X147137D01*
X147302Y42581D01*
X147468Y42592D01*
X147633Y42610D01*
X147797Y42635D01*
X147959Y42667D01*
X148120Y42707D01*
X148280Y42753D01*
X148437Y42806D01*
X148591Y42866D01*
X148743Y42933D01*
X148892Y43007D01*
X149037Y43086D01*
X149179Y43172D01*
X149317Y43264D01*
X149451Y43363D01*
X149580Y43466D01*
X149705Y43576D01*
X149824Y43690D01*
X149939Y43810D01*
X150048Y43935D01*
X150152Y44064D01*
X150250Y44198D01*
X150342Y44336D01*
X150428Y44477D01*
X150508Y44623D01*
X150581Y44772D01*
X150648Y44923D01*
X150708Y45078D01*
X150762Y45235D01*
X150808Y45394D01*
X150847Y45555D01*
X150880Y45718D01*
X150905Y45882D01*
X150923Y46047D01*
X150934Y46212D01*
X150937Y46378D01*
X150934Y46544D01*
X150923Y46709D01*
X150905Y46874D01*
X150880Y47038D01*
X150847Y47201D01*
X150808Y47362D01*
X150762Y47521D01*
X150708Y47678D01*
X150648Y47833D01*
X150581Y47984D01*
X150559Y48029D01*
X150578Y48069D01*
X150645Y48176D01*
X150743Y48307D01*
X150874Y48459D01*
X151040Y48633D01*
X153306Y50899D01*
X159602D01*
X165451Y45051D01*
X165451Y45051D01*
X165487Y45017D01*
X165520Y44987D01*
X165594Y44928D01*
X165673Y44876D01*
X165702Y44859D01*
X165755Y44830D01*
X165840Y44791D01*
X165929Y44758D01*
X166020Y44732D01*
X166112Y44714D01*
X166206Y44703D01*
X166300Y44699D01*
X168981D01*
X169183Y44694D01*
X169345Y44679D01*
X169473Y44658D01*
X169564Y44633D01*
X169577Y44628D01*
Y42116D01*
X175698D01*
Y49222D01*
X169577D01*
Y47172D01*
X169565Y47166D01*
X169473Y47142D01*
X169345Y47121D01*
X169183Y47106D01*
X168981Y47101D01*
X166797D01*
X160949Y52949D01*
X160880Y53013D01*
X160843Y53042D01*
X160806Y53072D01*
X160767Y53098D01*
X160728Y53124D01*
X160645Y53170D01*
X160560Y53210D01*
X160471Y53242D01*
X160380Y53268D01*
X160288Y53286D01*
X160194Y53297D01*
X160147Y53299D01*
X160100Y53301D01*
D02*
G37*
G36*
X12050Y53100D02*
X9100D01*
Y50700D01*
X12050D01*
Y53100D01*
D02*
G37*
G36*
X7900D02*
X4950D01*
Y50700D01*
X7900D01*
Y53100D01*
D02*
G37*
G36*
X73629Y52968D02*
X70679D01*
Y50568D01*
X73629D01*
Y52968D01*
D02*
G37*
G36*
X69479D02*
X66529D01*
Y50568D01*
X69479D01*
Y52968D01*
D02*
G37*
G36*
X12050Y49500D02*
X9100D01*
Y47100D01*
X12050D01*
Y49500D01*
D02*
G37*
G36*
X7900D02*
X4950D01*
Y47100D01*
X7900D01*
Y49500D01*
D02*
G37*
G36*
X157687Y50543D02*
Y46978D01*
X161294D01*
X161274Y47107D01*
X161238Y47287D01*
X161195Y47465D01*
X161143Y47641D01*
X161084Y47815D01*
X161018Y47986D01*
X160944Y48153D01*
X160863Y48318D01*
X160775Y48478D01*
X160680Y48635D01*
X160578Y48788D01*
X160469Y48935D01*
X160355Y49078D01*
X160234Y49216D01*
X160107Y49349D01*
X159975Y49475D01*
X159837Y49596D01*
X159694Y49711D01*
X159546Y49819D01*
X159394Y49921D01*
X159237Y50016D01*
X159076Y50104D01*
X158912Y50185D01*
X158744Y50259D01*
X158573Y50326D01*
X158400Y50384D01*
X158224Y50436D01*
X158046Y50479D01*
X157866Y50515D01*
X157687Y50543D01*
D02*
G37*
G36*
X156487Y50543D02*
X156307Y50515D01*
X156127Y50479D01*
X155949Y50436D01*
X155773Y50384D01*
X155600Y50326D01*
X155429Y50259D01*
X155261Y50185D01*
X155097Y50104D01*
X154936Y50016D01*
X154779Y49921D01*
X154627Y49819D01*
X154479Y49711D01*
X154336Y49596D01*
X154199Y49475D01*
X154066Y49349D01*
X153939Y49216D01*
X153819Y49078D01*
X153704Y48935D01*
X153595Y48788D01*
X153493Y48635D01*
X153398Y48478D01*
X153310Y48318D01*
X153229Y48153D01*
X153155Y47986D01*
X153089Y47815D01*
X153030Y47641D01*
X152979Y47465D01*
X152935Y47287D01*
X152899Y47107D01*
X152880Y46978D01*
X156487D01*
Y50543D01*
D02*
G37*
G36*
X73629Y49368D02*
X70679D01*
Y46968D01*
X73629D01*
Y49368D01*
D02*
G37*
G36*
X69479D02*
X66529D01*
Y46968D01*
X69479D01*
Y49368D01*
D02*
G37*
G36*
X156487Y45778D02*
X152880D01*
X152899Y45649D01*
X152935Y45469D01*
X152979Y45291D01*
X153030Y45115D01*
X153089Y44941D01*
X153155Y44770D01*
X153229Y44603D01*
X153310Y44438D01*
X153398Y44277D01*
X153493Y44121D01*
X153595Y43968D01*
X153704Y43821D01*
X153819Y43678D01*
X153939Y43540D01*
X154066Y43407D01*
X154199Y43281D01*
X154336Y43160D01*
X154479Y43045D01*
X154627Y42937D01*
X154779Y42835D01*
X154936Y42740D01*
X155097Y42652D01*
X155261Y42570D01*
X155429Y42497D01*
X155600Y42430D01*
X155773Y42371D01*
X155949Y42320D01*
X156127Y42276D01*
X156307Y42241D01*
X156487Y42213D01*
Y45778D01*
D02*
G37*
G36*
X161294D02*
X157687D01*
Y42213D01*
X157866Y42241D01*
X158046Y42276D01*
X158224Y42320D01*
X158400Y42371D01*
X158573Y42430D01*
X158744Y42497D01*
X158912Y42570D01*
X159076Y42652D01*
X159237Y42740D01*
X159394Y42835D01*
X159546Y42937D01*
X159694Y43045D01*
X159837Y43160D01*
X159975Y43281D01*
X160107Y43407D01*
X160234Y43540D01*
X160355Y43678D01*
X160469Y43821D01*
X160578Y43968D01*
X160680Y44121D01*
X160775Y44277D01*
X160863Y44438D01*
X160944Y44603D01*
X161018Y44770D01*
X161084Y44941D01*
X161143Y45115D01*
X161195Y45291D01*
X161238Y45469D01*
X161274Y45649D01*
X161294Y45778D01*
D02*
G37*
G36*
X157687Y40543D02*
Y36978D01*
X161294D01*
X161274Y37108D01*
X161238Y37287D01*
X161195Y37465D01*
X161143Y37641D01*
X161084Y37815D01*
X161018Y37986D01*
X160944Y38153D01*
X160863Y38318D01*
X160775Y38478D01*
X160680Y38635D01*
X160578Y38787D01*
X160469Y38935D01*
X160355Y39078D01*
X160234Y39216D01*
X160107Y39349D01*
X159975Y39475D01*
X159837Y39596D01*
X159694Y39711D01*
X159546Y39819D01*
X159394Y39921D01*
X159237Y40016D01*
X159076Y40104D01*
X158912Y40185D01*
X158744Y40259D01*
X158573Y40326D01*
X158400Y40385D01*
X158224Y40436D01*
X158046Y40479D01*
X157866Y40515D01*
X157687Y40543D01*
D02*
G37*
G36*
X156487Y40543D02*
X156307Y40515D01*
X156127Y40479D01*
X155949Y40436D01*
X155773Y40385D01*
X155600Y40326D01*
X155429Y40259D01*
X155261Y40185D01*
X155097Y40104D01*
X154936Y40016D01*
X154779Y39921D01*
X154627Y39819D01*
X154479Y39711D01*
X154336Y39596D01*
X154199Y39475D01*
X154066Y39349D01*
X153939Y39216D01*
X153819Y39078D01*
X153704Y38935D01*
X153595Y38787D01*
X153493Y38635D01*
X153398Y38478D01*
X153310Y38318D01*
X153229Y38153D01*
X153155Y37986D01*
X153089Y37815D01*
X153030Y37641D01*
X152979Y37465D01*
X152935Y37287D01*
X152899Y37108D01*
X152880Y36978D01*
X156487D01*
Y40543D01*
D02*
G37*
G36*
X181628Y38934D02*
X180915D01*
Y36033D01*
X183066D01*
Y37496D01*
X183062Y37598D01*
X183051Y37700D01*
X183033Y37801D01*
X183008Y37901D01*
X182975Y37998D01*
X182936Y38093D01*
X182890Y38185D01*
X182837Y38273D01*
X182779Y38358D01*
X182715Y38438D01*
X182645Y38513D01*
X182569Y38583D01*
X182490Y38647D01*
X182405Y38706D01*
X182317Y38758D01*
X182225Y38804D01*
X182130Y38843D01*
X182033Y38876D01*
X181933Y38901D01*
X181832Y38919D01*
X181730Y38930D01*
X181628Y38934D01*
D02*
G37*
G36*
X179715D02*
X179002D01*
X178900Y38930D01*
X178798Y38919D01*
X178697Y38901D01*
X178597Y38876D01*
X178500Y38843D01*
X178405Y38804D01*
X178313Y38758D01*
X178225Y38706D01*
X178140Y38647D01*
X178060Y38583D01*
X177985Y38513D01*
X177915Y38438D01*
X177851Y38358D01*
X177792Y38273D01*
X177740Y38185D01*
X177694Y38093D01*
X177655Y37998D01*
X177622Y37901D01*
X177597Y37801D01*
X177579Y37700D01*
X177568Y37598D01*
X177564Y37496D01*
Y36033D01*
X179715D01*
Y38934D01*
D02*
G37*
G36*
X147137Y40179D02*
X147037D01*
X146871Y40175D01*
X146705Y40164D01*
X146540Y40146D01*
X146377Y40121D01*
X146214Y40089D01*
X146053Y40049D01*
X145894Y40003D01*
X145737Y39950D01*
X145582Y39889D01*
X145430Y39823D01*
X145282Y39749D01*
X145136Y39670D01*
X144994Y39584D01*
X144857Y39492D01*
X144723Y39393D01*
X144593Y39290D01*
X144469Y39180D01*
X144349Y39066D01*
X144234Y38946D01*
X144125Y38821D01*
X144021Y38692D01*
X143923Y38558D01*
X143831Y38420D01*
X143745Y38278D01*
X143665Y38133D01*
X143592Y37984D01*
X143525Y37832D01*
X143465Y37678D01*
X143412Y37521D01*
X143365Y37362D01*
X143326Y37201D01*
X143293Y37038D01*
X143268Y36874D01*
X143250Y36709D01*
X143239Y36544D01*
X143236Y36378D01*
X143239Y36212D01*
X143250Y36047D01*
X143268Y35882D01*
X143293Y35718D01*
X143326Y35555D01*
X143365Y35394D01*
X143412Y35235D01*
X143465Y35078D01*
X143525Y34923D01*
X143592Y34772D01*
X143665Y34623D01*
X143745Y34477D01*
X143831Y34336D01*
X143923Y34198D01*
X144021Y34064D01*
X144125Y33935D01*
X144234Y33810D01*
X144349Y33690D01*
X144469Y33576D01*
X144593Y33466D01*
X144723Y33362D01*
X144857Y33264D01*
X144994Y33172D01*
X145136Y33086D01*
X145282Y33007D01*
X145430Y32933D01*
X145582Y32866D01*
X145737Y32806D01*
X145894Y32753D01*
X146053Y32707D01*
X146214Y32667D01*
X146377Y32635D01*
X146540Y32610D01*
X146705Y32592D01*
X146871Y32581D01*
X147037Y32577D01*
X147137D01*
X147302Y32581D01*
X147468Y32592D01*
X147633Y32610D01*
X147797Y32635D01*
X147959Y32667D01*
X148120Y32707D01*
X148280Y32753D01*
X148437Y32806D01*
X148591Y32866D01*
X148743Y32933D01*
X148892Y33007D01*
X149037Y33086D01*
X149179Y33172D01*
X149317Y33264D01*
X149451Y33362D01*
X149580Y33466D01*
X149705Y33576D01*
X149824Y33690D01*
X149939Y33810D01*
X150048Y33935D01*
X150152Y34064D01*
X150250Y34198D01*
X150342Y34336D01*
X150428Y34477D01*
X150508Y34623D01*
X150581Y34772D01*
X150648Y34923D01*
X150708Y35078D01*
X150762Y35235D01*
X150808Y35394D01*
X150847Y35555D01*
X150880Y35718D01*
X150905Y35882D01*
X150923Y36047D01*
X150934Y36212D01*
X150937Y36378D01*
X150934Y36544D01*
X150923Y36709D01*
X150905Y36874D01*
X150880Y37038D01*
X150847Y37201D01*
X150808Y37362D01*
X150762Y37521D01*
X150708Y37678D01*
X150648Y37832D01*
X150581Y37984D01*
X150508Y38133D01*
X150428Y38278D01*
X150342Y38420D01*
X150250Y38558D01*
X150152Y38692D01*
X150048Y38821D01*
X149939Y38946D01*
X149824Y39066D01*
X149705Y39180D01*
X149580Y39290D01*
X149451Y39393D01*
X149317Y39492D01*
X149179Y39584D01*
X149037Y39670D01*
X148892Y39749D01*
X148743Y39823D01*
X148591Y39889D01*
X148437Y39950D01*
X148280Y40003D01*
X148120Y40049D01*
X147959Y40089D01*
X147797Y40121D01*
X147633Y40146D01*
X147468Y40164D01*
X147302Y40175D01*
X147137Y40179D01*
D02*
G37*
G36*
X183966Y49222D02*
X177845D01*
Y43240D01*
X177840Y43234D01*
X177527Y42870D01*
X177318Y42655D01*
X177318Y42654D01*
X173733Y39069D01*
X173582Y38925D01*
X173448Y38809D01*
X173324Y38712D01*
X173211Y38637D01*
X173112Y38581D01*
X173027Y38542D01*
X173001Y38534D01*
X172002D01*
X171912Y38530D01*
X171822Y38518D01*
X171734Y38499D01*
X171647Y38471D01*
X171564Y38437D01*
X171483Y38395D01*
X171407Y38346D01*
X171335Y38291D01*
X171268Y38230D01*
X171207Y38163D01*
X171152Y38091D01*
X171103Y38015D01*
X171061Y37934D01*
X171027Y37851D01*
X170999Y37764D01*
X170980Y37676D01*
X170968Y37586D01*
X170964Y37496D01*
Y33371D01*
X170968Y33280D01*
X170980Y33190D01*
X170999Y33102D01*
X171027Y33015D01*
X171061Y32932D01*
X171103Y32851D01*
X171152Y32775D01*
X171207Y32703D01*
X171268Y32636D01*
X171335Y32575D01*
X171407Y32520D01*
X171483Y32471D01*
X171564Y32429D01*
X171647Y32395D01*
X171734Y32368D01*
X171822Y32348D01*
X171912Y32336D01*
X172002Y32332D01*
X174627D01*
X174718Y32336D01*
X174808Y32348D01*
X174896Y32368D01*
X174983Y32395D01*
X175066Y32429D01*
X175147Y32471D01*
X175223Y32520D01*
X175295Y32575D01*
X175362Y32636D01*
X175423Y32703D01*
X175478Y32775D01*
X175527Y32851D01*
X175569Y32932D01*
X175603Y33015D01*
X175631Y33102D01*
X175650Y33190D01*
X175662Y33280D01*
X175666Y33371D01*
Y37496D01*
X175662Y37586D01*
X175650Y37676D01*
X175648Y37686D01*
X175651Y37714D01*
X175661Y37756D01*
X175678Y37804D01*
X175706Y37862D01*
X175745Y37927D01*
X175797Y38001D01*
X175863Y38081D01*
X175952Y38175D01*
X179366Y41589D01*
X179540Y41756D01*
X179693Y41891D01*
X179830Y41999D01*
X179949Y42081D01*
X180011Y42116D01*
X183966D01*
Y49222D01*
D02*
G37*
G36*
X156487Y35778D02*
X152880D01*
X152899Y35649D01*
X152935Y35469D01*
X152979Y35291D01*
X153030Y35115D01*
X153089Y34941D01*
X153155Y34770D01*
X153229Y34602D01*
X153310Y34438D01*
X153398Y34277D01*
X153493Y34121D01*
X153595Y33968D01*
X153704Y33821D01*
X153819Y33678D01*
X153939Y33540D01*
X154066Y33407D01*
X154199Y33281D01*
X154336Y33160D01*
X154479Y33045D01*
X154627Y32937D01*
X154779Y32835D01*
X154936Y32740D01*
X155097Y32652D01*
X155261Y32570D01*
X155429Y32497D01*
X155600Y32430D01*
X155773Y32371D01*
X155949Y32320D01*
X156127Y32276D01*
X156307Y32241D01*
X156487Y32213D01*
Y35778D01*
D02*
G37*
G36*
X161294D02*
X157687D01*
Y32213D01*
X157866Y32241D01*
X158046Y32276D01*
X158224Y32320D01*
X158400Y32371D01*
X158573Y32430D01*
X158744Y32497D01*
X158912Y32570D01*
X159076Y32652D01*
X159237Y32740D01*
X159394Y32835D01*
X159546Y32937D01*
X159694Y33045D01*
X159837Y33160D01*
X159975Y33281D01*
X160107Y33407D01*
X160234Y33540D01*
X160355Y33678D01*
X160469Y33821D01*
X160578Y33968D01*
X160680Y34121D01*
X160775Y34277D01*
X160863Y34438D01*
X160944Y34602D01*
X161018Y34770D01*
X161084Y34941D01*
X161143Y35115D01*
X161195Y35291D01*
X161238Y35469D01*
X161274Y35649D01*
X161294Y35778D01*
D02*
G37*
G36*
X183066Y34833D02*
X180915D01*
Y31932D01*
X181628D01*
X181730Y31936D01*
X181832Y31947D01*
X181933Y31965D01*
X182033Y31990D01*
X182130Y32023D01*
X182225Y32062D01*
X182317Y32108D01*
X182405Y32160D01*
X182490Y32219D01*
X182569Y32283D01*
X182645Y32353D01*
X182715Y32429D01*
X182779Y32509D01*
X182837Y32593D01*
X182890Y32681D01*
X182936Y32773D01*
X182975Y32868D01*
X183008Y32965D01*
X183033Y33065D01*
X183051Y33166D01*
X183062Y33268D01*
X183066Y33371D01*
Y34833D01*
D02*
G37*
G36*
X179715D02*
X177564D01*
Y33371D01*
X177568Y33268D01*
X177579Y33166D01*
X177597Y33065D01*
X177622Y32965D01*
X177655Y32868D01*
X177694Y32773D01*
X177740Y32681D01*
X177792Y32593D01*
X177851Y32509D01*
X177915Y32429D01*
X177985Y32353D01*
X178060Y32283D01*
X178140Y32219D01*
X178225Y32160D01*
X178313Y32108D01*
X178405Y32062D01*
X178500Y32023D01*
X178597Y31990D01*
X178697Y31965D01*
X178798Y31947D01*
X178900Y31936D01*
X179002Y31932D01*
X179715D01*
Y34833D01*
D02*
G37*
G36*
X124228Y35449D02*
X120679D01*
Y28159D01*
X124228D01*
Y35449D01*
D02*
G37*
G36*
X119479D02*
X115929D01*
Y28159D01*
X119479D01*
Y35449D01*
D02*
G37*
G36*
X157687Y30543D02*
Y26978D01*
X161294D01*
X161274Y27108D01*
X161238Y27287D01*
X161195Y27465D01*
X161143Y27641D01*
X161084Y27815D01*
X161018Y27986D01*
X160944Y28153D01*
X160863Y28318D01*
X160775Y28478D01*
X160680Y28635D01*
X160578Y28787D01*
X160469Y28935D01*
X160355Y29078D01*
X160234Y29216D01*
X160107Y29348D01*
X159975Y29475D01*
X159837Y29596D01*
X159694Y29711D01*
X159546Y29819D01*
X159394Y29921D01*
X159237Y30016D01*
X159076Y30104D01*
X158912Y30185D01*
X158744Y30259D01*
X158573Y30326D01*
X158400Y30384D01*
X158224Y30436D01*
X158046Y30479D01*
X157866Y30515D01*
X157687Y30543D01*
D02*
G37*
G36*
X156487Y30543D02*
X156307Y30515D01*
X156127Y30479D01*
X155949Y30436D01*
X155773Y30384D01*
X155600Y30326D01*
X155429Y30259D01*
X155261Y30185D01*
X155097Y30104D01*
X154936Y30016D01*
X154779Y29921D01*
X154627Y29819D01*
X154479Y29711D01*
X154336Y29596D01*
X154199Y29475D01*
X154066Y29348D01*
X153939Y29216D01*
X153819Y29078D01*
X153704Y28935D01*
X153595Y28787D01*
X153493Y28635D01*
X153398Y28478D01*
X153310Y28318D01*
X153229Y28153D01*
X153155Y27986D01*
X153089Y27815D01*
X153030Y27641D01*
X152979Y27465D01*
X152935Y27287D01*
X152899Y27108D01*
X152880Y26978D01*
X156487D01*
Y30543D01*
D02*
G37*
G36*
X147137Y30179D02*
X147037D01*
X146871Y30175D01*
X146705Y30164D01*
X146540Y30146D01*
X146377Y30121D01*
X146214Y30089D01*
X146053Y30049D01*
X145894Y30003D01*
X145737Y29950D01*
X145582Y29890D01*
X145430Y29823D01*
X145282Y29749D01*
X145136Y29670D01*
X144994Y29584D01*
X144857Y29491D01*
X144723Y29393D01*
X144593Y29290D01*
X144469Y29180D01*
X144349Y29066D01*
X144234Y28946D01*
X144125Y28821D01*
X144021Y28692D01*
X143923Y28558D01*
X143831Y28420D01*
X143745Y28278D01*
X143665Y28133D01*
X143592Y27984D01*
X143525Y27832D01*
X143465Y27678D01*
X143412Y27521D01*
X143365Y27362D01*
X143326Y27201D01*
X143293Y27038D01*
X143268Y26874D01*
X143250Y26709D01*
X143239Y26544D01*
X143236Y26378D01*
X143239Y26212D01*
X143250Y26047D01*
X143268Y25882D01*
X143293Y25718D01*
X143326Y25555D01*
X143365Y25394D01*
X143412Y25235D01*
X143465Y25078D01*
X143525Y24923D01*
X143592Y24772D01*
X143665Y24623D01*
X143745Y24477D01*
X143831Y24336D01*
X143923Y24198D01*
X144021Y24064D01*
X144125Y23935D01*
X144234Y23810D01*
X144349Y23690D01*
X144469Y23576D01*
X144593Y23466D01*
X144723Y23362D01*
X144857Y23264D01*
X144994Y23172D01*
X145136Y23086D01*
X145282Y23007D01*
X145430Y22933D01*
X145582Y22866D01*
X145737Y22806D01*
X145894Y22753D01*
X146053Y22707D01*
X146214Y22667D01*
X146377Y22635D01*
X146540Y22610D01*
X146705Y22591D01*
X146871Y22581D01*
X147037Y22577D01*
X147137D01*
X147302Y22581D01*
X147468Y22591D01*
X147633Y22610D01*
X147797Y22635D01*
X147959Y22667D01*
X148120Y22707D01*
X148280Y22753D01*
X148437Y22806D01*
X148591Y22866D01*
X148743Y22933D01*
X148892Y23007D01*
X149037Y23086D01*
X149179Y23172D01*
X149317Y23264D01*
X149451Y23362D01*
X149580Y23466D01*
X149705Y23576D01*
X149824Y23690D01*
X149939Y23810D01*
X150048Y23935D01*
X150152Y24064D01*
X150250Y24198D01*
X150342Y24336D01*
X150428Y24477D01*
X150508Y24623D01*
X150581Y24772D01*
X150648Y24923D01*
X150708Y25078D01*
X150762Y25235D01*
X150808Y25394D01*
X150847Y25555D01*
X150880Y25718D01*
X150905Y25882D01*
X150923Y26047D01*
X150934Y26212D01*
X150937Y26378D01*
X150934Y26544D01*
X150923Y26709D01*
X150905Y26874D01*
X150880Y27038D01*
X150847Y27201D01*
X150808Y27362D01*
X150762Y27521D01*
X150708Y27678D01*
X150648Y27832D01*
X150581Y27984D01*
X150508Y28133D01*
X150428Y28278D01*
X150342Y28420D01*
X150250Y28558D01*
X150152Y28692D01*
X150048Y28821D01*
X149939Y28946D01*
X149824Y29066D01*
X149705Y29180D01*
X149580Y29290D01*
X149451Y29393D01*
X149317Y29491D01*
X149179Y29584D01*
X149037Y29670D01*
X148892Y29749D01*
X148743Y29823D01*
X148591Y29890D01*
X148437Y29950D01*
X148280Y30003D01*
X148120Y30049D01*
X147959Y30089D01*
X147797Y30121D01*
X147633Y30146D01*
X147468Y30164D01*
X147302Y30175D01*
X147137Y30179D01*
D02*
G37*
G36*
X156487Y25778D02*
X152880D01*
X152899Y25648D01*
X152935Y25469D01*
X152979Y25291D01*
X153030Y25115D01*
X153089Y24941D01*
X153155Y24770D01*
X153229Y24602D01*
X153310Y24438D01*
X153398Y24277D01*
X153493Y24121D01*
X153595Y23968D01*
X153704Y23821D01*
X153819Y23678D01*
X153939Y23540D01*
X154066Y23407D01*
X154199Y23281D01*
X154336Y23160D01*
X154479Y23045D01*
X154627Y22937D01*
X154779Y22835D01*
X154936Y22740D01*
X155097Y22652D01*
X155261Y22571D01*
X155429Y22497D01*
X155600Y22430D01*
X155773Y22371D01*
X155949Y22320D01*
X156127Y22276D01*
X156307Y22241D01*
X156487Y22213D01*
Y25778D01*
D02*
G37*
G36*
X161294D02*
X157687D01*
Y22213D01*
X157866Y22241D01*
X158046Y22276D01*
X158224Y22320D01*
X158400Y22371D01*
X158573Y22430D01*
X158744Y22497D01*
X158912Y22571D01*
X159076Y22652D01*
X159237Y22740D01*
X159394Y22835D01*
X159546Y22937D01*
X159694Y23045D01*
X159837Y23160D01*
X159975Y23281D01*
X160107Y23407D01*
X160234Y23540D01*
X160355Y23678D01*
X160469Y23821D01*
X160578Y23968D01*
X160680Y24121D01*
X160775Y24277D01*
X160863Y24438D01*
X160944Y24602D01*
X161018Y24770D01*
X161084Y24941D01*
X161143Y25115D01*
X161195Y25291D01*
X161238Y25469D01*
X161274Y25648D01*
X161294Y25778D01*
D02*
G37*
G36*
X124228Y26959D02*
X120679D01*
Y19669D01*
X124228D01*
Y26959D01*
D02*
G37*
G36*
X119479D02*
X115929D01*
Y19669D01*
X119479D01*
Y26959D01*
D02*
G37*
G36*
X157687Y20543D02*
Y16978D01*
X161294D01*
X161274Y17108D01*
X161238Y17287D01*
X161195Y17465D01*
X161143Y17641D01*
X161084Y17815D01*
X161018Y17986D01*
X160944Y18153D01*
X160863Y18318D01*
X160775Y18478D01*
X160680Y18635D01*
X160578Y18788D01*
X160469Y18935D01*
X160355Y19078D01*
X160234Y19216D01*
X160107Y19349D01*
X159975Y19475D01*
X159837Y19596D01*
X159694Y19711D01*
X159546Y19819D01*
X159394Y19921D01*
X159237Y20016D01*
X159076Y20104D01*
X158912Y20185D01*
X158744Y20259D01*
X158573Y20326D01*
X158400Y20384D01*
X158224Y20436D01*
X158046Y20479D01*
X157866Y20515D01*
X157687Y20543D01*
D02*
G37*
G36*
X156487Y20543D02*
X156307Y20515D01*
X156127Y20479D01*
X155949Y20436D01*
X155773Y20384D01*
X155600Y20326D01*
X155429Y20259D01*
X155261Y20185D01*
X155097Y20104D01*
X154936Y20016D01*
X154779Y19921D01*
X154627Y19819D01*
X154479Y19711D01*
X154336Y19596D01*
X154199Y19475D01*
X154066Y19349D01*
X153939Y19216D01*
X153819Y19078D01*
X153704Y18935D01*
X153595Y18788D01*
X153493Y18635D01*
X153398Y18478D01*
X153310Y18318D01*
X153229Y18153D01*
X153155Y17986D01*
X153089Y17815D01*
X153030Y17641D01*
X152979Y17465D01*
X152935Y17287D01*
X152899Y17108D01*
X152880Y16978D01*
X156487D01*
Y20543D01*
D02*
G37*
G36*
X147137Y20179D02*
X147037D01*
X146871Y20175D01*
X146705Y20164D01*
X146540Y20146D01*
X146377Y20121D01*
X146214Y20089D01*
X146053Y20049D01*
X145894Y20003D01*
X145737Y19950D01*
X145582Y19890D01*
X145430Y19823D01*
X145282Y19749D01*
X145136Y19670D01*
X144994Y19584D01*
X144857Y19491D01*
X144723Y19393D01*
X144593Y19290D01*
X144469Y19180D01*
X144349Y19066D01*
X144234Y18946D01*
X144125Y18821D01*
X144021Y18692D01*
X143923Y18558D01*
X143831Y18420D01*
X143745Y18278D01*
X143665Y18133D01*
X143592Y17984D01*
X143525Y17832D01*
X143465Y17678D01*
X143412Y17521D01*
X143365Y17362D01*
X143326Y17201D01*
X143293Y17038D01*
X143268Y16874D01*
X143250Y16709D01*
X143239Y16544D01*
X143236Y16378D01*
X143239Y16212D01*
X143250Y16047D01*
X143268Y15882D01*
X143293Y15718D01*
X143326Y15555D01*
X143365Y15394D01*
X143412Y15235D01*
X143465Y15078D01*
X143525Y14923D01*
X143592Y14772D01*
X143665Y14623D01*
X143745Y14478D01*
X143831Y14336D01*
X143923Y14198D01*
X144021Y14064D01*
X144125Y13935D01*
X144234Y13810D01*
X144349Y13690D01*
X144469Y13576D01*
X144593Y13466D01*
X144723Y13363D01*
X144857Y13264D01*
X144994Y13172D01*
X145136Y13086D01*
X145282Y13006D01*
X145430Y12933D01*
X145582Y12866D01*
X145737Y12806D01*
X145894Y12753D01*
X146053Y12707D01*
X146214Y12667D01*
X146377Y12635D01*
X146540Y12610D01*
X146705Y12592D01*
X146871Y12581D01*
X147037Y12577D01*
X147137D01*
X147302Y12581D01*
X147468Y12592D01*
X147633Y12610D01*
X147797Y12635D01*
X147959Y12667D01*
X148120Y12707D01*
X148280Y12753D01*
X148437Y12806D01*
X148591Y12866D01*
X148743Y12933D01*
X148892Y13006D01*
X149037Y13086D01*
X149179Y13172D01*
X149317Y13264D01*
X149451Y13363D01*
X149580Y13466D01*
X149705Y13576D01*
X149824Y13690D01*
X149939Y13810D01*
X150048Y13935D01*
X150152Y14064D01*
X150250Y14198D01*
X150342Y14336D01*
X150428Y14478D01*
X150508Y14623D01*
X150581Y14772D01*
X150648Y14923D01*
X150708Y15078D01*
X150762Y15235D01*
X150808Y15394D01*
X150847Y15555D01*
X150880Y15718D01*
X150905Y15882D01*
X150923Y16047D01*
X150934Y16212D01*
X150937Y16378D01*
X150934Y16544D01*
X150923Y16709D01*
X150905Y16874D01*
X150880Y17038D01*
X150847Y17201D01*
X150808Y17362D01*
X150762Y17521D01*
X150708Y17678D01*
X150648Y17832D01*
X150581Y17984D01*
X150508Y18133D01*
X150428Y18278D01*
X150342Y18420D01*
X150250Y18558D01*
X150152Y18692D01*
X150048Y18821D01*
X149939Y18946D01*
X149824Y19066D01*
X149705Y19180D01*
X149580Y19290D01*
X149451Y19393D01*
X149317Y19491D01*
X149179Y19584D01*
X149037Y19670D01*
X148892Y19749D01*
X148743Y19823D01*
X148591Y19890D01*
X148437Y19950D01*
X148280Y20003D01*
X148120Y20049D01*
X147959Y20089D01*
X147797Y20121D01*
X147633Y20146D01*
X147468Y20164D01*
X147302Y20175D01*
X147137Y20179D01*
D02*
G37*
G36*
X156487Y15778D02*
X152880D01*
X152899Y15648D01*
X152935Y15469D01*
X152979Y15291D01*
X153030Y15115D01*
X153089Y14941D01*
X153155Y14770D01*
X153229Y14603D01*
X153310Y14438D01*
X153398Y14277D01*
X153493Y14121D01*
X153595Y13968D01*
X153704Y13821D01*
X153819Y13678D01*
X153939Y13540D01*
X154066Y13407D01*
X154199Y13281D01*
X154336Y13160D01*
X154479Y13045D01*
X154627Y12937D01*
X154779Y12835D01*
X154936Y12740D01*
X155097Y12652D01*
X155261Y12571D01*
X155429Y12497D01*
X155600Y12430D01*
X155773Y12371D01*
X155949Y12320D01*
X156127Y12276D01*
X156307Y12241D01*
X156487Y12213D01*
Y15778D01*
D02*
G37*
G36*
X161294D02*
X157687D01*
Y12213D01*
X157866Y12241D01*
X158046Y12276D01*
X158224Y12320D01*
X158400Y12371D01*
X158573Y12430D01*
X158744Y12497D01*
X158912Y12571D01*
X159076Y12652D01*
X159237Y12740D01*
X159394Y12835D01*
X159546Y12937D01*
X159694Y13045D01*
X159837Y13160D01*
X159975Y13281D01*
X160107Y13407D01*
X160234Y13540D01*
X160355Y13678D01*
X160469Y13821D01*
X160578Y13968D01*
X160680Y14121D01*
X160775Y14277D01*
X160863Y14438D01*
X160944Y14603D01*
X161018Y14770D01*
X161084Y14941D01*
X161143Y15115D01*
X161195Y15291D01*
X161238Y15469D01*
X161274Y15648D01*
X161294Y15778D01*
D02*
G37*
G36*
X186850Y16601D02*
X186625Y16597D01*
X186400Y16586D01*
X186175Y16566D01*
X185952Y16540D01*
X185729Y16505D01*
X185507Y16463D01*
X185287Y16413D01*
X185070Y16356D01*
X184853Y16292D01*
X184640Y16220D01*
X184429Y16141D01*
X184221Y16055D01*
X184015Y15961D01*
X183814Y15861D01*
X183615Y15754D01*
X183421Y15640D01*
X183230Y15520D01*
X183044Y15393D01*
X182862Y15260D01*
X182685Y15120D01*
X182512Y14975D01*
X182345Y14824D01*
X182183Y14668D01*
X182026Y14505D01*
X181875Y14338D01*
X181730Y14166D01*
X181591Y13988D01*
X181458Y13807D01*
X181331Y13620D01*
X181210Y13430D01*
X181097Y13235D01*
X180990Y13037D01*
X180889Y12835D01*
X180796Y12630D01*
X180710Y12422D01*
X180631Y12211D01*
X180559Y11997D01*
X180494Y11781D01*
X180437Y11563D01*
X180387Y11343D01*
X180345Y11122D01*
X180311Y10899D01*
X180284Y10675D01*
X180265Y10451D01*
X180253Y10225D01*
X180249Y10000D01*
X180253Y9775D01*
X180265Y9550D01*
X180284Y9325D01*
X180311Y9101D01*
X180345Y8878D01*
X180387Y8657D01*
X180437Y8437D01*
X180494Y8219D01*
X180559Y8003D01*
X180631Y7790D01*
X180710Y7578D01*
X180796Y7370D01*
X180889Y7165D01*
X180990Y6963D01*
X181097Y6765D01*
X181210Y6570D01*
X181331Y6380D01*
X181458Y6193D01*
X181591Y6011D01*
X181730Y5834D01*
X181875Y5662D01*
X182026Y5494D01*
X182183Y5332D01*
X182345Y5176D01*
X182512Y5025D01*
X182685Y4880D01*
X182862Y4740D01*
X183044Y4607D01*
X183230Y4480D01*
X183421Y4360D01*
X183615Y4246D01*
X183814Y4139D01*
X184015Y4039D01*
X184221Y3946D01*
X184429Y3859D01*
X184640Y3780D01*
X184853Y3708D01*
X185070Y3644D01*
X185287Y3587D01*
X185507Y3537D01*
X185729Y3495D01*
X185952Y3461D01*
X186175Y3434D01*
X186400Y3414D01*
X186625Y3403D01*
X186850Y3399D01*
X187076Y3403D01*
X187301Y3414D01*
X187525Y3434D01*
X187749Y3461D01*
X187972Y3495D01*
X188193Y3537D01*
X188413Y3587D01*
X188631Y3644D01*
X188847Y3708D01*
X189061Y3780D01*
X189272Y3859D01*
X189480Y3946D01*
X189685Y4039D01*
X189887Y4139D01*
X190086Y4246D01*
X190280Y4360D01*
X190471Y4480D01*
X190657Y4607D01*
X190839Y4740D01*
X191016Y4880D01*
X191189Y5025D01*
X191356Y5176D01*
X191518Y5332D01*
X191675Y5494D01*
X191826Y5662D01*
X191971Y5834D01*
X192110Y6011D01*
X192243Y6193D01*
X192370Y6380D01*
X192490Y6570D01*
X192604Y6765D01*
X192711Y6963D01*
X192812Y7165D01*
X192905Y7370D01*
X192991Y7578D01*
X193070Y7790D01*
X193142Y8003D01*
X193207Y8219D01*
X193264Y8437D01*
X193313Y8657D01*
X193355Y8878D01*
X193390Y9101D01*
X193417Y9325D01*
X193436Y9550D01*
X193447Y9775D01*
X193451Y10000D01*
X193447Y10225D01*
X193436Y10451D01*
X193417Y10675D01*
X193390Y10899D01*
X193355Y11122D01*
X193313Y11343D01*
X193264Y11563D01*
X193207Y11781D01*
X193142Y11997D01*
X193070Y12211D01*
X192991Y12422D01*
X192905Y12630D01*
X192812Y12835D01*
X192711Y13037D01*
X192604Y13235D01*
X192490Y13430D01*
X192370Y13620D01*
X192243Y13807D01*
X192110Y13988D01*
X191971Y14166D01*
X191826Y14338D01*
X191675Y14505D01*
X191518Y14668D01*
X191356Y14824D01*
X191189Y14975D01*
X191016Y15120D01*
X190839Y15260D01*
X190657Y15393D01*
X190471Y15520D01*
X190280Y15640D01*
X190086Y15754D01*
X189887Y15861D01*
X189685Y15961D01*
X189480Y16055D01*
X189272Y16141D01*
X189061Y16220D01*
X188847Y16292D01*
X188631Y16356D01*
X188413Y16413D01*
X188193Y16463D01*
X187972Y16505D01*
X187749Y16540D01*
X187525Y16566D01*
X187301Y16586D01*
X187076Y16597D01*
X186850Y16601D01*
D02*
G37*
G36*
X10000D02*
X9775Y16597D01*
X9550Y16586D01*
X9325Y16566D01*
X9101Y16540D01*
X8878Y16505D01*
X8657Y16463D01*
X8437Y16413D01*
X8219Y16356D01*
X8003Y16292D01*
X7790Y16220D01*
X7578Y16141D01*
X7370Y16055D01*
X7165Y15961D01*
X6963Y15861D01*
X6765Y15754D01*
X6570Y15640D01*
X6380Y15520D01*
X6193Y15393D01*
X6011Y15260D01*
X5834Y15120D01*
X5662Y14975D01*
X5494Y14824D01*
X5332Y14668D01*
X5176Y14505D01*
X5025Y14338D01*
X4880Y14166D01*
X4740Y13988D01*
X4607Y13807D01*
X4480Y13620D01*
X4360Y13430D01*
X4246Y13235D01*
X4139Y13037D01*
X4039Y12835D01*
X3946Y12630D01*
X3859Y12422D01*
X3780Y12211D01*
X3708Y11997D01*
X3644Y11781D01*
X3587Y11563D01*
X3537Y11343D01*
X3495Y11122D01*
X3461Y10899D01*
X3434Y10675D01*
X3414Y10451D01*
X3403Y10225D01*
X3399Y10000D01*
X3403Y9775D01*
X3414Y9550D01*
X3434Y9325D01*
X3461Y9101D01*
X3495Y8878D01*
X3537Y8657D01*
X3587Y8437D01*
X3644Y8219D01*
X3708Y8003D01*
X3780Y7790D01*
X3859Y7578D01*
X3946Y7370D01*
X4039Y7165D01*
X4139Y6963D01*
X4246Y6765D01*
X4360Y6570D01*
X4480Y6380D01*
X4607Y6193D01*
X4740Y6011D01*
X4880Y5834D01*
X5025Y5662D01*
X5176Y5494D01*
X5332Y5332D01*
X5494Y5176D01*
X5662Y5025D01*
X5834Y4880D01*
X6011Y4740D01*
X6193Y4607D01*
X6380Y4480D01*
X6570Y4360D01*
X6765Y4246D01*
X6963Y4139D01*
X7165Y4039D01*
X7370Y3946D01*
X7578Y3859D01*
X7790Y3780D01*
X8003Y3708D01*
X8219Y3644D01*
X8437Y3587D01*
X8657Y3537D01*
X8878Y3495D01*
X9101Y3461D01*
X9325Y3434D01*
X9550Y3414D01*
X9775Y3403D01*
X10000Y3399D01*
X10225Y3403D01*
X10451Y3414D01*
X10675Y3434D01*
X10899Y3461D01*
X11122Y3495D01*
X11343Y3537D01*
X11563Y3587D01*
X11781Y3644D01*
X11997Y3708D01*
X12211Y3780D01*
X12422Y3859D01*
X12630Y3946D01*
X12835Y4039D01*
X13037Y4139D01*
X13235Y4246D01*
X13430Y4360D01*
X13620Y4480D01*
X13807Y4607D01*
X13988Y4740D01*
X14166Y4880D01*
X14338Y5025D01*
X14505Y5176D01*
X14668Y5332D01*
X14824Y5494D01*
X14975Y5662D01*
X15120Y5834D01*
X15260Y6011D01*
X15393Y6193D01*
X15520Y6380D01*
X15640Y6570D01*
X15754Y6765D01*
X15861Y6963D01*
X15961Y7165D01*
X16055Y7370D01*
X16141Y7578D01*
X16220Y7790D01*
X16292Y8003D01*
X16356Y8219D01*
X16413Y8437D01*
X16463Y8657D01*
X16505Y8878D01*
X16540Y9101D01*
X16566Y9325D01*
X16586Y9550D01*
X16597Y9775D01*
X16601Y10000D01*
X16597Y10225D01*
X16586Y10451D01*
X16566Y10675D01*
X16540Y10899D01*
X16505Y11122D01*
X16463Y11343D01*
X16413Y11563D01*
X16356Y11781D01*
X16292Y11997D01*
X16220Y12211D01*
X16141Y12422D01*
X16055Y12630D01*
X15961Y12835D01*
X15861Y13037D01*
X15754Y13235D01*
X15640Y13430D01*
X15520Y13620D01*
X15393Y13807D01*
X15260Y13988D01*
X15120Y14166D01*
X14975Y14338D01*
X14824Y14505D01*
X14668Y14668D01*
X14505Y14824D01*
X14338Y14975D01*
X14166Y15120D01*
X13988Y15260D01*
X13807Y15393D01*
X13620Y15520D01*
X13430Y15640D01*
X13235Y15754D01*
X13037Y15861D01*
X12835Y15961D01*
X12630Y16055D01*
X12422Y16141D01*
X12211Y16220D01*
X11997Y16292D01*
X11781Y16356D01*
X11563Y16413D01*
X11343Y16463D01*
X11122Y16505D01*
X10899Y16540D01*
X10675Y16566D01*
X10451Y16586D01*
X10225Y16597D01*
X10000Y16601D01*
D02*
G37*
%LPD*%
G36*
X141602Y182669D02*
X141882Y182654D01*
X142161Y182630D01*
X142440Y182599D01*
X142718Y182559D01*
X142994Y182512D01*
X143270Y182458D01*
X143543Y182395D01*
X143815Y182325D01*
X144084Y182247D01*
X144351Y182162D01*
X144616Y182070D01*
X144878Y181970D01*
X145138Y181862D01*
X145394Y181748D01*
X145646Y181626D01*
X145896Y181497D01*
X146141Y181362D01*
X146383Y181219D01*
X146620Y181070D01*
X146853Y180914D01*
X147082Y180752D01*
X147306Y180583D01*
X147526Y180408D01*
X147740Y180227D01*
X147949Y180040D01*
X148153Y179847D01*
X148351Y179649D01*
X148544Y179445D01*
X148731Y179236D01*
X148912Y179022D01*
X149087Y178802D01*
X149256Y178578D01*
X149418Y178349D01*
X149574Y178116D01*
X149723Y177879D01*
X149865Y177637D01*
X150001Y177392D01*
X150130Y177142D01*
X150252Y176890D01*
X150366Y176634D01*
X150474Y176374D01*
X150574Y176112D01*
X150666Y175848D01*
X150751Y175580D01*
X150829Y175311D01*
X150899Y175039D01*
X150962Y174766D01*
X151016Y174490D01*
X151063Y174214D01*
X151102Y173936D01*
X151134Y173657D01*
X151157Y173378D01*
X151173Y173098D01*
X151181Y172817D01*
Y172677D01*
Y82284D01*
Y82198D01*
X151174Y82026D01*
X151159Y81855D01*
X151136Y81684D01*
X151106Y81515D01*
X151069Y81348D01*
X151025Y81182D01*
X150973Y81018D01*
X150914Y80856D01*
X150848Y80698D01*
X150776Y80542D01*
X150697Y80389D01*
X150611Y80241D01*
X150518Y80096D01*
X150420Y79955D01*
X150315Y79819D01*
X150205Y79687D01*
X150089Y79560D01*
X149967Y79439D01*
X149841Y79323D01*
X149709Y79212D01*
X149573Y79108D01*
X149432Y79009D01*
X149287Y78917D01*
X149138Y78831D01*
X148986Y78752D01*
X148830Y78679D01*
X148671Y78613D01*
X148510Y78554D01*
X148346Y78503D01*
X148180Y78458D01*
X148012Y78421D01*
X147843Y78391D01*
X147673Y78369D01*
X147502Y78354D01*
X147330Y78347D01*
X141732D01*
X141666Y78346D01*
X141534Y78338D01*
X141402Y78323D01*
X141271Y78301D01*
X141142Y78272D01*
X141015Y78235D01*
X140890Y78191D01*
X140768Y78140D01*
X140648Y78083D01*
X140532Y78019D01*
X140420Y77948D01*
X140312Y77872D01*
X140208Y77789D01*
X140109Y77701D01*
X140016Y77607D01*
X139927Y77508D01*
X139845Y77405D01*
X139768Y77297D01*
X139698Y77184D01*
X139634Y77069D01*
X139576Y76949D01*
X139525Y76827D01*
X139482Y76702D01*
X139445Y76574D01*
X139416Y76445D01*
X139393Y76315D01*
X139378Y76183D01*
X139371Y76051D01*
X139370Y75984D01*
Y43701D01*
Y43595D01*
X139363Y43385D01*
X139348Y43174D01*
X139325Y42965D01*
X139295Y42756D01*
X139258Y42548D01*
X139213Y42342D01*
X139161Y42138D01*
X139101Y41936D01*
X139035Y41736D01*
X138961Y41538D01*
X138880Y41343D01*
X138793Y41152D01*
X138698Y40963D01*
X138597Y40778D01*
X138490Y40597D01*
X138376Y40419D01*
X138255Y40246D01*
X138129Y40077D01*
X137997Y39913D01*
X137859Y39754D01*
X137715Y39599D01*
X137566Y39450D01*
X137411Y39307D01*
X137252Y39169D01*
X137088Y39036D01*
X136919Y38910D01*
X136746Y38790D01*
X136569Y38676D01*
X136387Y38568D01*
X136202Y38467D01*
X136014Y38373D01*
X135822Y38285D01*
X135627Y38205D01*
X135430Y38131D01*
X135230Y38064D01*
X135027Y38005D01*
X134823Y37953D01*
X134617Y37908D01*
X134409Y37870D01*
X134201Y37840D01*
X133991Y37818D01*
X133781Y37803D01*
X133570Y37795D01*
X117618D01*
X117421Y37802D01*
X117225Y37816D01*
X117030Y37837D01*
X116835Y37865D01*
X116641Y37900D01*
X116449Y37942D01*
X116258Y37991D01*
X116069Y38046D01*
X115883Y38108D01*
X115698Y38177D01*
X115516Y38252D01*
X115337Y38334D01*
X115161Y38422D01*
X114989Y38517D01*
X114819Y38617D01*
X114654Y38723D01*
X114492Y38836D01*
X114335Y38954D01*
X114181Y39077D01*
X114033Y39206D01*
X113889Y39340D01*
X113750Y39479D01*
X113615Y39623D01*
X113487Y39772D01*
X113363Y39925D01*
X113245Y40083D01*
X113133Y40244D01*
X113026Y40410D01*
X112926Y40579D01*
X112832Y40752D01*
X112744Y40928D01*
X112662Y41107D01*
X112587Y41289D01*
X112518Y41473D01*
X112456Y41660D01*
X112400Y41849D01*
X112352Y42039D01*
X112310Y42232D01*
X112275Y42425D01*
X112247Y42620D01*
X112226Y42816D01*
X112212Y43012D01*
X112205Y43209D01*
Y43307D01*
Y131890D01*
X112204Y131967D01*
X112197Y132122D01*
X112184Y132275D01*
X112163Y132429D01*
X112137Y132581D01*
X112103Y132732D01*
X112063Y132881D01*
X112017Y133029D01*
X111964Y133174D01*
X111905Y133317D01*
X111839Y133457D01*
X111768Y133594D01*
X111691Y133728D01*
X111608Y133858D01*
X111519Y133985D01*
X111425Y134108D01*
X111325Y134226D01*
X111221Y134340D01*
X111112Y134449D01*
X110998Y134554D01*
X110879Y134653D01*
X110757Y134747D01*
X110630Y134836D01*
X110500Y134919D01*
X110366Y134996D01*
X110229Y135068D01*
X110089Y135133D01*
X109946Y135192D01*
X109800Y135245D01*
X109653Y135292D01*
X109504Y135331D01*
X109353Y135365D01*
X109200Y135392D01*
X109047Y135412D01*
X108893Y135425D01*
X108739Y135432D01*
X108661Y135433D01*
X103476D01*
X103340Y135440D01*
X103206Y135453D01*
X103072Y135473D01*
X102939Y135499D01*
X102808Y135532D01*
X102679Y135571D01*
X102551Y135617D01*
X102426Y135669D01*
X102304Y135727D01*
X102184Y135790D01*
X102068Y135860D01*
X101956Y135935D01*
X101847Y136016D01*
X101743Y136101D01*
X101642Y136192D01*
X101547Y136288D01*
X101456Y136388D01*
X101370Y136493D01*
X101289Y136602D01*
X101214Y136714D01*
X101145Y136830D01*
X101081Y136950D01*
X101023Y137072D01*
X100971Y137197D01*
X100926Y137324D01*
X100886Y137454D01*
X100854Y137585D01*
X100827Y137718D01*
X100807Y137852D01*
X100794Y137986D01*
X100787Y138121D01*
Y138189D01*
Y175984D01*
Y176094D01*
X100795Y176313D01*
X100809Y176531D01*
X100830Y176749D01*
X100859Y176966D01*
X100895Y177182D01*
X100937Y177397D01*
X100987Y177611D01*
X101044Y177822D01*
X101107Y178032D01*
X101178Y178239D01*
X101255Y178444D01*
X101339Y178647D01*
X101429Y178846D01*
X101526Y179043D01*
X101629Y179236D01*
X101739Y179426D01*
X101855Y179612D01*
X101976Y179794D01*
X102104Y179972D01*
X102237Y180146D01*
X102376Y180315D01*
X102521Y180480D01*
X102670Y180639D01*
X102825Y180794D01*
X102985Y180944D01*
X103150Y181088D01*
X103319Y181227D01*
X103493Y181361D01*
X103671Y181488D01*
X103853Y181610D01*
X104039Y181726D01*
X104229Y181835D01*
X104422Y181939D01*
X104618Y182035D01*
X104818Y182126D01*
X105020Y182210D01*
X105225Y182287D01*
X105433Y182357D01*
X105642Y182421D01*
X105854Y182477D01*
X106067Y182527D01*
X106282Y182570D01*
X106498Y182606D01*
X106715Y182634D01*
X106933Y182656D01*
X107152Y182670D01*
X107371Y182677D01*
X141321D01*
X141602Y182669D01*
D02*
G37*
G36*
X95095Y32360D02*
X95215Y32020D01*
X95416Y31720D01*
X95697Y31460D01*
X96058Y31240D01*
X96499Y31060D01*
X97021Y30920D01*
X97622Y30820D01*
X98304Y30760D01*
X99067Y30740D01*
Y26740D01*
X98304Y26720D01*
X97622Y26660D01*
X97021Y26560D01*
X96499Y26420D01*
X96058Y26240D01*
X95697Y26020D01*
X95416Y25760D01*
X95215Y25460D01*
X95095Y25120D01*
X95055Y24740D01*
Y32740D01*
X95095Y32360D01*
D02*
G37*
%LPC*%
G36*
X139386Y177378D02*
X124616D01*
Y164773D01*
X139386D01*
Y177378D01*
D02*
G37*
G36*
X123416D02*
X108646D01*
Y164773D01*
X123416D01*
Y177378D01*
D02*
G37*
G36*
X139386Y163573D02*
X124616D01*
Y150969D01*
X139386D01*
Y163573D01*
D02*
G37*
G36*
X123416D02*
X108646D01*
Y150969D01*
X123416D01*
Y163573D01*
D02*
G37*
G36*
X137339Y107382D02*
X129439D01*
Y95482D01*
X137339D01*
Y107382D01*
D02*
G37*
G36*
X128239D02*
X120339D01*
Y95482D01*
X128239D01*
Y107382D01*
D02*
G37*
G36*
X137339Y94282D02*
X129439D01*
Y82382D01*
X137339D01*
Y94282D01*
D02*
G37*
G36*
X128239D02*
X120339D01*
Y82382D01*
X128239D01*
Y94282D01*
D02*
G37*
G36*
X124228Y56709D02*
X120679D01*
Y49419D01*
X124228D01*
Y56709D01*
D02*
G37*
G36*
X119479D02*
X115929D01*
Y49419D01*
X119479D01*
Y56709D01*
D02*
G37*
G36*
Y48219D02*
X115929D01*
Y43971D01*
X116153Y44235D01*
X116606Y44886D01*
X116947Y45480D01*
X117175Y46017D01*
X117289Y46497D01*
X117290Y46921D01*
X117178Y47288D01*
X116953Y47598D01*
X119479Y45072D01*
Y48219D01*
D02*
G37*
G36*
X124228D02*
X120679D01*
Y43872D01*
X122598Y41953D01*
X122288Y42178D01*
X121921Y42290D01*
X121497Y42289D01*
X121017Y42175D01*
X120679Y42031D01*
Y40929D01*
X124228D01*
Y48219D01*
D02*
G37*
G36*
X119479Y41323D02*
X119235Y41153D01*
X118956Y40929D01*
X119479D01*
Y41323D01*
D02*
G37*
%LPD*%
G36*
X90961Y191564D02*
X90746Y191473D01*
X90557Y191323D01*
X90393Y191112D01*
X90254Y190841D01*
X90141Y190510D01*
X90052Y190118D01*
X89989Y189667D01*
X89952Y189155D01*
X89939Y188583D01*
X86439D01*
X86426Y189155D01*
X86326Y190118D01*
X86237Y190510D01*
X86124Y190841D01*
X85985Y191112D01*
X85821Y191323D01*
X85632Y191473D01*
X85417Y191564D01*
X85178Y191594D01*
X91200D01*
X90961Y191564D01*
D02*
G37*
G36*
X82476Y179767D02*
X82528Y179172D01*
X82615Y178647D01*
X82737Y178192D01*
X82893Y177807D01*
X83084Y177492D01*
X83310Y177247D01*
X83571Y177072D01*
X83866Y176967D01*
X84197Y176932D01*
X77221D01*
X77551Y176967D01*
X77846Y177072D01*
X78107Y177247D01*
X78333Y177492D01*
X78524Y177807D01*
X78681Y178192D01*
X78802Y178647D01*
X78889Y179172D01*
X78941Y179767D01*
X78959Y180432D01*
X82459D01*
X82476Y179767D01*
D02*
G37*
G36*
X66887Y176561D02*
X66985Y176263D01*
X67158Y176001D01*
X67404Y175773D01*
X67724Y175581D01*
X68119Y175424D01*
X68586Y175301D01*
X69129Y175214D01*
X69744Y175161D01*
X70434Y175144D01*
X70408Y171644D01*
X69698Y171626D01*
X69062Y171574D01*
X68499Y171487D01*
X68010Y171364D01*
X67594Y171207D01*
X67252Y171015D01*
X66983Y170788D01*
X66787Y170526D01*
X66664Y170229D01*
X66615Y169898D01*
X66862Y176893D01*
X66887Y176561D01*
D02*
G37*
G36*
X77233Y169894D02*
X77197Y170226D01*
X77092Y170524D01*
X76917Y170786D01*
X76671Y171014D01*
X76355Y171206D01*
X75968Y171364D01*
X75512Y171486D01*
X74985Y171574D01*
X74388Y171626D01*
X73721Y171644D01*
Y175144D01*
X74388Y175161D01*
X74985Y175214D01*
X75512Y175301D01*
X75968Y175424D01*
X76355Y175581D01*
X76671Y175774D01*
X76917Y176001D01*
X77092Y176264D01*
X77197Y176561D01*
X77233Y176894D01*
Y169894D01*
D02*
G37*
G36*
X78230Y129509D02*
X78218Y129623D01*
X78182Y129725D01*
X78121Y129815D01*
X78036Y129893D01*
X77927Y129959D01*
X77794Y130013D01*
X77636Y130055D01*
X77455Y130085D01*
X77249Y130103D01*
X77018Y130109D01*
Y131309D01*
X77249Y131315D01*
X77455Y131333D01*
X77636Y131363D01*
X77794Y131405D01*
X77927Y131459D01*
X78036Y131525D01*
X78121Y131603D01*
X78182Y131693D01*
X78218Y131795D01*
X78230Y131909D01*
Y129509D01*
D02*
G37*
G36*
X74693Y131795D02*
X74729Y131693D01*
X74790Y131603D01*
X74875Y131525D01*
X74984Y131459D01*
X75117Y131405D01*
X75275Y131363D01*
X75456Y131333D01*
X75662Y131315D01*
X75893Y131309D01*
Y130109D01*
X75662Y130103D01*
X75456Y130085D01*
X75275Y130055D01*
X75117Y130013D01*
X74984Y129959D01*
X74875Y129893D01*
X74790Y129815D01*
X74729Y129725D01*
X74693Y129623D01*
X74681Y129509D01*
Y131909D01*
X74693Y131795D01*
D02*
G37*
G36*
X61528Y129509D02*
X61516Y129623D01*
X61480Y129725D01*
X61420Y129815D01*
X61336Y129893D01*
X61228Y129959D01*
X61096Y130013D01*
X60940Y130055D01*
X60760Y130085D01*
X60556Y130103D01*
X60328Y130109D01*
Y131309D01*
X60556Y131315D01*
X60760Y131333D01*
X60940Y131363D01*
X61096Y131405D01*
X61228Y131459D01*
X61336Y131525D01*
X61420Y131603D01*
X61480Y131693D01*
X61516Y131795D01*
X61528Y131909D01*
Y129509D01*
D02*
G37*
G36*
X51045Y132800D02*
X51602Y132211D01*
X51876Y131972D01*
X52148Y131769D01*
X52417Y131603D01*
X52683Y131474D01*
X52946Y131382D01*
X53206Y131327D01*
X53464Y131309D01*
X53320Y130109D01*
X53090Y130093D01*
X52843Y130044D01*
X52577Y129963D01*
X52294Y129850D01*
X51992Y129705D01*
X51672Y129527D01*
X50977Y129074D01*
X50603Y128799D01*
X50210Y128492D01*
X50762Y133150D01*
X51045Y132800D01*
D02*
G37*
G36*
X171363Y92063D02*
X171323Y92443D01*
X171202Y92783D01*
X171002Y93083D01*
X170721Y93343D01*
X170360Y93563D01*
X169918Y93743D01*
X169397Y93883D01*
X168795Y93983D01*
X168113Y94043D01*
X167351Y94063D01*
Y98063D01*
X168113Y98083D01*
X168795Y98143D01*
X169397Y98243D01*
X169918Y98383D01*
X170360Y98563D01*
X170721Y98783D01*
X171002Y99043D01*
X171202Y99343D01*
X171323Y99683D01*
X171363Y100063D01*
Y92063D01*
D02*
G37*
G36*
X83914Y153676D02*
X83661Y153556D01*
X83438Y153356D01*
X83244Y153076D01*
X83081Y152716D01*
X82947Y152276D01*
X82843Y151756D01*
X82768Y151156D01*
X82723Y150476D01*
X82709Y149716D01*
X78709D01*
X78694Y150476D01*
X78575Y151756D01*
X78471Y152276D01*
X78337Y152716D01*
X78173Y153076D01*
X77979Y153356D01*
X77756Y153556D01*
X77503Y153676D01*
X77221Y153716D01*
X84197D01*
X83914Y153676D01*
D02*
G37*
G36*
X12479Y104763D02*
X12545Y104220D01*
X12655Y103690D01*
X12809Y103173D01*
X13007Y102669D01*
X13249Y102178D01*
X13535Y101701D01*
X13865Y101237D01*
X14239Y100786D01*
X14657Y100348D01*
X6257D01*
X6675Y100786D01*
X7049Y101237D01*
X7379Y101701D01*
X7665Y102178D01*
X7907Y102669D01*
X8105Y103173D01*
X8259Y103690D01*
X8369Y104220D01*
X8435Y104763D01*
X8457Y105320D01*
X12457D01*
X12479Y104763D01*
D02*
G37*
G36*
X11068Y60270D02*
X11158Y60165D01*
X11308Y60072D01*
X11518Y59991D01*
X11788Y59923D01*
X12118Y59867D01*
X12508Y59824D01*
X13468Y59774D01*
X14038Y59768D01*
Y56768D01*
X13468Y56764D01*
X11518Y56640D01*
X11308Y56593D01*
X11158Y56540D01*
X11068Y56480D01*
X11038Y56412D01*
Y60388D01*
X11068Y60270D01*
D02*
G37*
G36*
X27437Y55311D02*
X33350D01*
X33169Y55271D01*
X33006Y55151D01*
X32862Y54951D01*
X32738Y54671D01*
X32633Y54311D01*
X32547Y53871D01*
X32480Y53351D01*
X32403Y52071D01*
X32394Y51311D01*
X28394D01*
X28384Y52071D01*
X28241Y53871D01*
X28155Y54311D01*
X28049Y54671D01*
X27925Y54951D01*
X27782Y55151D01*
X27619Y55271D01*
X27437Y55311D01*
X27407Y55588D01*
X27317Y55836D01*
X27167Y56054D01*
X26957Y56243D01*
X26687Y56404D01*
X26357Y56535D01*
X25967Y56637D01*
X25517Y56709D01*
X25007Y56753D01*
X24437Y56768D01*
Y59768D01*
X25007Y59782D01*
X25517Y59826D01*
X25967Y59899D01*
X26357Y60001D01*
X26687Y60132D01*
X26957Y60292D01*
X27167Y60481D01*
X27317Y60700D01*
X27407Y60948D01*
X27437Y61224D01*
Y55311D01*
D02*
G37*
G36*
X75024Y24740D02*
X74984Y25120D01*
X74863Y25460D01*
X74663Y25760D01*
X74382Y26020D01*
X74021Y26240D01*
X73580Y26420D01*
X73058Y26560D01*
X72456Y26660D01*
X71774Y26720D01*
X71012Y26740D01*
Y30740D01*
X71774Y30760D01*
X72456Y30820D01*
X73058Y30920D01*
X73580Y31060D01*
X74021Y31240D01*
X74382Y31460D01*
X74663Y31720D01*
X74863Y32020D01*
X74984Y32360D01*
X75024Y32740D01*
Y24740D01*
D02*
G37*
G36*
X67541Y56280D02*
X67511Y56372D01*
X67421Y56455D01*
X67271Y56529D01*
X67061Y56592D01*
X66791Y56646D01*
X66461Y56690D01*
X65621Y56748D01*
X64541Y56768D01*
Y59768D01*
X65111Y59773D01*
X66791Y59890D01*
X67061Y59943D01*
X67271Y60007D01*
X67421Y60080D01*
X67511Y60163D01*
X67541Y60256D01*
Y56280D01*
D02*
G37*
G36*
X52638Y60236D02*
X52784Y60138D01*
X52952Y60051D01*
X53141Y59976D01*
X53353Y59912D01*
X53586Y59860D01*
X53841Y59820D01*
X54118Y59791D01*
X54737Y59768D01*
Y56768D01*
X54416Y56762D01*
X53841Y56716D01*
X53586Y56675D01*
X53353Y56623D01*
X53141Y56560D01*
X52952Y56485D01*
X52784Y56398D01*
X52638Y56300D01*
X52514Y56190D01*
Y60346D01*
X52638Y60236D01*
D02*
G37*
G36*
X150610Y49053D02*
X150428Y48863D01*
X150274Y48683D01*
X150148Y48515D01*
X150051Y48359D01*
X149981Y48213D01*
X149940Y48079D01*
X149926Y47956D01*
X149941Y47844D01*
X149984Y47744D01*
X150055Y47655D01*
X148349Y49329D01*
X148439Y49260D01*
X148541Y49219D01*
X148653Y49205D01*
X148777Y49220D01*
X148913Y49262D01*
X149059Y49333D01*
X149216Y49432D01*
X149385Y49558D01*
X149564Y49713D01*
X149755Y49895D01*
X150610Y49053D01*
D02*
G37*
G36*
X170189Y44700D02*
X170177Y44814D01*
X170141Y44916D01*
X170081Y45006D01*
X169997Y45084D01*
X169889Y45150D01*
X169757Y45204D01*
X169601Y45246D01*
X169421Y45276D01*
X169217Y45294D01*
X168989Y45300D01*
Y46500D01*
X169217Y46506D01*
X169421Y46524D01*
X169601Y46554D01*
X169757Y46596D01*
X169889Y46650D01*
X169997Y46716D01*
X170081Y46794D01*
X170141Y46884D01*
X170177Y46986D01*
X170189Y47100D01*
Y44700D01*
D02*
G37*
G36*
X180363Y42740D02*
X180265Y42774D01*
X180156Y42784D01*
X180039Y42771D01*
X179912Y42734D01*
X179775Y42674D01*
X179629Y42590D01*
X179473Y42483D01*
X179308Y42353D01*
X179133Y42199D01*
X178949Y42021D01*
X177750Y42236D01*
X177971Y42465D01*
X178314Y42863D01*
X178435Y43033D01*
X178524Y43184D01*
X178579Y43316D01*
X178601Y43429D01*
X178590Y43522D01*
X178546Y43596D01*
X178469Y43651D01*
X180363Y42740D01*
D02*
G37*
G36*
X175519Y38591D02*
X175413Y38479D01*
X175320Y38367D01*
X175241Y38256D01*
X175175Y38146D01*
X175123Y38036D01*
X175084Y37926D01*
X175058Y37818D01*
X175046Y37710D01*
X175047Y37602D01*
X175061Y37496D01*
X172736Y37917D01*
X172856Y37905D01*
X172980Y37912D01*
X173110Y37937D01*
X173244Y37981D01*
X173383Y38044D01*
X173527Y38125D01*
X173676Y38225D01*
X173829Y38344D01*
X173987Y38481D01*
X174150Y38636D01*
X175519Y38591D01*
D02*
G37*
D17*
X180905Y44685D02*
Y45669D01*
X173315Y37095D02*
X180905Y44685D01*
X173315Y35433D02*
Y37095D01*
D18*
X160100Y52100D02*
X166300Y45900D01*
X152809Y52100D02*
X160100D01*
X147087Y46378D02*
X152809Y52100D01*
X166300Y45900D02*
X172376D01*
X172638Y46161D01*
Y45669D02*
Y46161D01*
X72244Y130709D02*
X79965D01*
X48504D02*
X63976D01*
X48110Y131102D02*
X48504Y130709D01*
D20*
X178839Y94882D02*
D03*
X128839D02*
D03*
D21*
X80709Y157254D02*
D03*
Y173394D02*
D03*
D22*
X77953Y28740D02*
D03*
X92126D02*
D03*
D23*
X120079Y48819D02*
D03*
Y27559D02*
D03*
D24*
X180905Y45669D02*
D03*
X172638D02*
D03*
X72244Y130709D02*
D03*
X63976D02*
D03*
D25*
X124016Y164173D02*
D03*
X173228D02*
D03*
D26*
X180315Y35433D02*
D03*
X173315D02*
D03*
X86965Y130709D02*
D03*
X79965D02*
D03*
D27*
X70079Y49968D02*
D03*
Y58268D02*
D03*
X8500Y50100D02*
D03*
Y58400D02*
D03*
D44*
X80709Y147709D02*
Y157254D01*
X73945Y140945D02*
X80709Y147709D01*
X42126Y140945D02*
X73945D01*
X51960Y28740D02*
X77953D01*
X30394Y50306D02*
X51960Y28740D01*
X30394Y50306D02*
Y58268D01*
X103740Y28740D02*
X120079Y45079D01*
X92126Y28740D02*
X103740D01*
X120079Y45079D02*
Y48819D01*
X177657Y96063D02*
X178839Y94882D01*
X162205Y96063D02*
X177657D01*
X10457Y109276D02*
X42126Y140945D01*
X10457Y96063D02*
Y109276D01*
D45*
X50394Y58268D02*
X70079D01*
X8661D02*
X30394D01*
X8268Y58661D02*
X8661Y58268D01*
D46*
X88189Y188583D02*
Y194882D01*
X80709Y181102D02*
X88189Y188583D01*
X80709Y173394D02*
Y181102D01*
X60935Y173394D02*
X80709D01*
X60313Y174016D02*
X60935Y173394D01*
X59055Y174016D02*
X60313D01*
D47*
X186850Y10000D02*
D03*
X186850Y206535D02*
D03*
X10000Y206535D02*
D03*
Y10000D02*
D03*
X10457Y96063D02*
D03*
X96457D02*
D03*
D48*
X88189Y194882D02*
D03*
D49*
X78189D02*
D03*
D50*
X157087Y46378D02*
D03*
Y36378D02*
D03*
Y26378D02*
D03*
Y16378D02*
D03*
X147087Y46378D02*
D03*
Y36378D02*
D03*
Y26378D02*
D03*
Y16378D02*
D03*
D51*
X30394Y58268D02*
D03*
D52*
X40394D02*
D03*
X50394D02*
D03*
D53*
X33465Y174016D02*
D03*
X59055D02*
D03*
D54*
X47244Y155512D02*
D03*
D55*
X48110Y131102D02*
D03*
X8740D02*
D03*
D56*
X162205Y96063D02*
D03*
M02*
