G04*
G04 #@! TF.GenerationSoftware,Altium Limited,Altium Designer,19.1.8 (144)*
G04*
G04 Layer_Physical_Order=2*
G04 Layer_Color=16711680*
%FSLAX25Y25*%
%MOIN*%
G70*
G01*
G75*
%ADD44C,0.04000*%
%ADD47C,0.12000*%
%ADD48R,0.06600X0.06600*%
%ADD49C,0.06600*%
%ADD50O,0.06500X0.06400*%
%ADD51R,0.05937X0.05937*%
%ADD52C,0.05937*%
%ADD53O,0.15748X0.19685*%
%ADD54O,0.19685X0.15748*%
%ADD55C,0.06700*%
%ADD56C,0.05000*%
G36*
X195321Y215006D02*
X195321Y1529D01*
X1529Y1529D01*
X1529Y215006D01*
X195321Y215006D01*
D02*
G37*
%LPC*%
G36*
X10000Y213136D02*
X9775Y213133D01*
X9550Y213121D01*
X9325Y213102D01*
X9101Y213075D01*
X8878Y213040D01*
X8657Y212998D01*
X8437Y212949D01*
X8219Y212892D01*
X8003Y212827D01*
X7790Y212755D01*
X7578Y212676D01*
X7370Y212590D01*
X7165Y212497D01*
X6963Y212396D01*
X6765Y212289D01*
X6570Y212175D01*
X6380Y212055D01*
X6193Y211928D01*
X6011Y211795D01*
X5834Y211656D01*
X5662Y211511D01*
X5494Y211360D01*
X5332Y211203D01*
X5176Y211041D01*
X5025Y210874D01*
X4880Y210701D01*
X4740Y210524D01*
X4607Y210342D01*
X4480Y210156D01*
X4360Y209965D01*
X4246Y209771D01*
X4139Y209572D01*
X4039Y209370D01*
X3946Y209165D01*
X3859Y208957D01*
X3780Y208746D01*
X3708Y208532D01*
X3644Y208316D01*
X3587Y208098D01*
X3537Y207878D01*
X3495Y207657D01*
X3461Y207434D01*
X3434Y207210D01*
X3414Y206986D01*
X3403Y206761D01*
X3399Y206535D01*
X3403Y206310D01*
X3414Y206085D01*
X3434Y205860D01*
X3461Y205637D01*
X3495Y205414D01*
X3537Y205192D01*
X3587Y204973D01*
X3644Y204754D01*
X3708Y204538D01*
X3780Y204325D01*
X3859Y204114D01*
X3946Y203906D01*
X4039Y203700D01*
X4139Y203499D01*
X4246Y203300D01*
X4360Y203106D01*
X4480Y202915D01*
X4607Y202729D01*
X4740Y202547D01*
X4880Y202370D01*
X5025Y202197D01*
X5176Y202030D01*
X5332Y201868D01*
X5494Y201711D01*
X5662Y201560D01*
X5834Y201415D01*
X6011Y201276D01*
X6193Y201143D01*
X6380Y201016D01*
X6570Y200895D01*
X6765Y200782D01*
X6963Y200675D01*
X7165Y200574D01*
X7370Y200481D01*
X7578Y200395D01*
X7790Y200316D01*
X8003Y200244D01*
X8219Y200179D01*
X8437Y200122D01*
X8657Y200073D01*
X8878Y200030D01*
X9101Y199996D01*
X9325Y199969D01*
X9550Y199950D01*
X9775Y199938D01*
X10000Y199934D01*
X10225Y199938D01*
X10451Y199950D01*
X10675Y199969D01*
X10899Y199996D01*
X11122Y200030D01*
X11343Y200073D01*
X11563Y200122D01*
X11781Y200179D01*
X11997Y200244D01*
X12211Y200316D01*
X12422Y200395D01*
X12630Y200481D01*
X12835Y200574D01*
X13037Y200675D01*
X13235Y200782D01*
X13430Y200895D01*
X13620Y201016D01*
X13807Y201143D01*
X13988Y201276D01*
X14166Y201415D01*
X14338Y201560D01*
X14505Y201711D01*
X14668Y201868D01*
X14824Y202030D01*
X14975Y202197D01*
X15120Y202370D01*
X15260Y202547D01*
X15393Y202729D01*
X15520Y202915D01*
X15640Y203106D01*
X15754Y203300D01*
X15861Y203499D01*
X15961Y203700D01*
X16055Y203906D01*
X16141Y204114D01*
X16220Y204325D01*
X16292Y204538D01*
X16356Y204754D01*
X16413Y204973D01*
X16463Y205192D01*
X16505Y205414D01*
X16540Y205637D01*
X16566Y205860D01*
X16586Y206085D01*
X16597Y206310D01*
X16601Y206535D01*
X16597Y206761D01*
X16586Y206986D01*
X16566Y207210D01*
X16540Y207434D01*
X16505Y207657D01*
X16463Y207878D01*
X16413Y208098D01*
X16356Y208316D01*
X16292Y208532D01*
X16220Y208746D01*
X16141Y208957D01*
X16055Y209165D01*
X15961Y209370D01*
X15861Y209572D01*
X15754Y209771D01*
X15640Y209965D01*
X15520Y210156D01*
X15393Y210342D01*
X15260Y210524D01*
X15120Y210701D01*
X14975Y210874D01*
X14824Y211041D01*
X14668Y211203D01*
X14505Y211360D01*
X14338Y211511D01*
X14166Y211656D01*
X13988Y211795D01*
X13807Y211928D01*
X13620Y212055D01*
X13430Y212175D01*
X13235Y212289D01*
X13037Y212396D01*
X12835Y212497D01*
X12630Y212590D01*
X12422Y212676D01*
X12211Y212755D01*
X11997Y212827D01*
X11781Y212892D01*
X11563Y212949D01*
X11343Y212998D01*
X11122Y213040D01*
X10899Y213075D01*
X10675Y213102D01*
X10451Y213121D01*
X10225Y213133D01*
X10000Y213136D01*
D02*
G37*
G36*
X186850Y213136D02*
X186625Y213133D01*
X186400Y213121D01*
X186175Y213102D01*
X185951Y213075D01*
X185729Y213040D01*
X185507Y212998D01*
X185287Y212949D01*
X185069Y212892D01*
X184853Y212827D01*
X184640Y212755D01*
X184429Y212676D01*
X184221Y212590D01*
X184015Y212497D01*
X183814Y212396D01*
X183615Y212289D01*
X183421Y212175D01*
X183230Y212055D01*
X183044Y211928D01*
X182862Y211795D01*
X182685Y211656D01*
X182512Y211511D01*
X182345Y211360D01*
X182183Y211203D01*
X182026Y211041D01*
X181875Y210874D01*
X181730Y210701D01*
X181591Y210524D01*
X181457Y210342D01*
X181331Y210156D01*
X181210Y209965D01*
X181096Y209771D01*
X180990Y209572D01*
X180889Y209370D01*
X180796Y209165D01*
X180710Y208957D01*
X180631Y208746D01*
X180559Y208532D01*
X180494Y208316D01*
X180437Y208098D01*
X180387Y207878D01*
X180345Y207657D01*
X180311Y207434D01*
X180284Y207210D01*
X180265Y206986D01*
X180253Y206761D01*
X180249Y206535D01*
X180253Y206310D01*
X180265Y206085D01*
X180284Y205860D01*
X180311Y205637D01*
X180345Y205414D01*
X180387Y205192D01*
X180437Y204973D01*
X180494Y204754D01*
X180559Y204538D01*
X180631Y204325D01*
X180710Y204114D01*
X180796Y203906D01*
X180889Y203700D01*
X180990Y203499D01*
X181096Y203300D01*
X181210Y203106D01*
X181331Y202915D01*
X181457Y202729D01*
X181591Y202547D01*
X181730Y202370D01*
X181875Y202197D01*
X182026Y202030D01*
X182183Y201868D01*
X182345Y201711D01*
X182512Y201560D01*
X182685Y201415D01*
X182862Y201276D01*
X183044Y201143D01*
X183230Y201016D01*
X183421Y200895D01*
X183615Y200782D01*
X183814Y200675D01*
X184015Y200574D01*
X184221Y200481D01*
X184429Y200395D01*
X184640Y200316D01*
X184853Y200244D01*
X185069Y200179D01*
X185287Y200122D01*
X185507Y200073D01*
X185729Y200030D01*
X185951Y199996D01*
X186175Y199969D01*
X186400Y199950D01*
X186625Y199938D01*
X186850Y199934D01*
X187076Y199938D01*
X187301Y199950D01*
X187525Y199969D01*
X187749Y199996D01*
X187972Y200030D01*
X188193Y200073D01*
X188413Y200122D01*
X188631Y200179D01*
X188847Y200244D01*
X189061Y200316D01*
X189272Y200395D01*
X189480Y200481D01*
X189685Y200574D01*
X189887Y200675D01*
X190085Y200782D01*
X190280Y200895D01*
X190471Y201016D01*
X190657Y201143D01*
X190839Y201276D01*
X191016Y201415D01*
X191189Y201560D01*
X191356Y201711D01*
X191518Y201868D01*
X191675Y202030D01*
X191826Y202197D01*
X191971Y202370D01*
X192110Y202547D01*
X192243Y202729D01*
X192370Y202915D01*
X192490Y203106D01*
X192604Y203300D01*
X192711Y203499D01*
X192812Y203700D01*
X192905Y203906D01*
X192991Y204114D01*
X193070Y204325D01*
X193142Y204538D01*
X193207Y204754D01*
X193264Y204973D01*
X193313Y205192D01*
X193355Y205414D01*
X193390Y205637D01*
X193417Y205860D01*
X193436Y206085D01*
X193447Y206310D01*
X193451Y206535D01*
X193447Y206761D01*
X193436Y206986D01*
X193417Y207210D01*
X193390Y207434D01*
X193355Y207657D01*
X193313Y207878D01*
X193264Y208098D01*
X193207Y208316D01*
X193142Y208532D01*
X193070Y208746D01*
X192991Y208957D01*
X192905Y209165D01*
X192812Y209370D01*
X192711Y209572D01*
X192604Y209771D01*
X192490Y209965D01*
X192370Y210156D01*
X192243Y210342D01*
X192110Y210524D01*
X191971Y210701D01*
X191826Y210874D01*
X191675Y211041D01*
X191518Y211203D01*
X191356Y211360D01*
X191189Y211511D01*
X191016Y211656D01*
X190839Y211795D01*
X190657Y211928D01*
X190471Y212055D01*
X190280Y212175D01*
X190085Y212289D01*
X189887Y212396D01*
X189685Y212497D01*
X189480Y212590D01*
X189272Y212676D01*
X189061Y212755D01*
X188847Y212827D01*
X188631Y212892D01*
X188413Y212949D01*
X188193Y212998D01*
X187972Y213040D01*
X187749Y213075D01*
X187525Y213102D01*
X187301Y213121D01*
X187076Y213133D01*
X186850Y213136D01*
D02*
G37*
G36*
X78789Y199140D02*
Y195482D01*
X82447D01*
X82431Y195590D01*
X82398Y195765D01*
X82358Y195938D01*
X82311Y196109D01*
X82257Y196278D01*
X82196Y196445D01*
X82128Y196609D01*
X82053Y196771D01*
X81972Y196929D01*
X81884Y197083D01*
X81790Y197234D01*
X81689Y197381D01*
X81583Y197524D01*
X81471Y197662D01*
X81353Y197795D01*
X81230Y197923D01*
X81102Y198046D01*
X80969Y198164D01*
X80831Y198276D01*
X80688Y198382D01*
X80541Y198483D01*
X80391Y198577D01*
X80236Y198664D01*
X80078Y198746D01*
X79917Y198821D01*
X79752Y198889D01*
X79585Y198950D01*
X79416Y199004D01*
X79245Y199051D01*
X79072Y199091D01*
X78897Y199124D01*
X78789Y199140D01*
D02*
G37*
G36*
X77589D02*
X77481Y199124D01*
X77306Y199091D01*
X77133Y199051D01*
X76962Y199004D01*
X76793Y198950D01*
X76626Y198889D01*
X76461Y198821D01*
X76300Y198746D01*
X76142Y198664D01*
X75987Y198577D01*
X75837Y198483D01*
X75690Y198382D01*
X75547Y198276D01*
X75409Y198164D01*
X75276Y198046D01*
X75148Y197923D01*
X75025Y197795D01*
X74907Y197662D01*
X74795Y197524D01*
X74689Y197381D01*
X74588Y197234D01*
X74494Y197083D01*
X74406Y196929D01*
X74325Y196771D01*
X74250Y196609D01*
X74182Y196445D01*
X74121Y196278D01*
X74067Y196109D01*
X74020Y195938D01*
X73980Y195765D01*
X73947Y195590D01*
X73931Y195482D01*
X77589D01*
Y199140D01*
D02*
G37*
G36*
X92089Y198782D02*
X84289D01*
Y190982D01*
X92089D01*
Y198782D01*
D02*
G37*
G36*
X82447Y194282D02*
X78789D01*
Y190624D01*
X78897Y190640D01*
X79072Y190673D01*
X79245Y190713D01*
X79416Y190760D01*
X79585Y190814D01*
X79752Y190875D01*
X79917Y190943D01*
X80078Y191018D01*
X80236Y191099D01*
X80391Y191187D01*
X80541Y191281D01*
X80688Y191382D01*
X80831Y191488D01*
X80969Y191600D01*
X81102Y191718D01*
X81230Y191841D01*
X81353Y191969D01*
X81471Y192102D01*
X81583Y192240D01*
X81689Y192383D01*
X81790Y192529D01*
X81884Y192680D01*
X81972Y192835D01*
X82053Y192993D01*
X82128Y193154D01*
X82196Y193318D01*
X82257Y193485D01*
X82311Y193655D01*
X82358Y193826D01*
X82398Y193999D01*
X82431Y194174D01*
X82447Y194282D01*
D02*
G37*
G36*
X77589D02*
X73931D01*
X73947Y194174D01*
X73980Y193999D01*
X74020Y193826D01*
X74067Y193655D01*
X74121Y193485D01*
X74182Y193318D01*
X74250Y193154D01*
X74325Y192993D01*
X74406Y192835D01*
X74494Y192680D01*
X74588Y192529D01*
X74689Y192383D01*
X74795Y192240D01*
X74907Y192102D01*
X75025Y191969D01*
X75148Y191841D01*
X75276Y191718D01*
X75409Y191600D01*
X75547Y191488D01*
X75690Y191382D01*
X75837Y191281D01*
X75987Y191187D01*
X76142Y191099D01*
X76300Y191018D01*
X76461Y190943D01*
X76626Y190875D01*
X76793Y190814D01*
X76962Y190760D01*
X77133Y190713D01*
X77306Y190673D01*
X77481Y190640D01*
X77589Y190624D01*
Y194282D01*
D02*
G37*
G36*
X34065Y184838D02*
Y174616D01*
X42340D01*
Y175984D01*
X42336Y176242D01*
X42325Y176500D01*
X42306Y176758D01*
X42279Y177015D01*
X42246Y177270D01*
X42205Y177525D01*
X42156Y177779D01*
X42100Y178031D01*
X42037Y178281D01*
X41967Y178530D01*
X41889Y178776D01*
X41804Y179020D01*
X41712Y179261D01*
X41614Y179499D01*
X41508Y179735D01*
X41396Y179967D01*
X41276Y180196D01*
X41151Y180422D01*
X41018Y180643D01*
X40879Y180861D01*
X40734Y181075D01*
X40583Y181284D01*
X40426Y181489D01*
X40263Y181689D01*
X40094Y181884D01*
X39920Y182075D01*
X39740Y182260D01*
X39555Y182440D01*
X39365Y182614D01*
X39169Y182783D01*
X38969Y182946D01*
X38764Y183103D01*
X38555Y183254D01*
X38341Y183399D01*
X38124Y183538D01*
X37902Y183670D01*
X37677Y183796D01*
X37448Y183915D01*
X37215Y184028D01*
X36980Y184133D01*
X36741Y184232D01*
X36500Y184324D01*
X36256Y184409D01*
X36010Y184486D01*
X35762Y184557D01*
X35511Y184620D01*
X35259Y184676D01*
X35006Y184724D01*
X34751Y184766D01*
X34495Y184799D01*
X34238Y184825D01*
X34065Y184838D01*
D02*
G37*
G36*
X32865Y184838D02*
X32691Y184825D01*
X32434Y184799D01*
X32178Y184766D01*
X31923Y184724D01*
X31670Y184676D01*
X31418Y184620D01*
X31168Y184557D01*
X30919Y184486D01*
X30673Y184409D01*
X30429Y184324D01*
X30188Y184232D01*
X29949Y184133D01*
X29714Y184028D01*
X29482Y183915D01*
X29252Y183796D01*
X29027Y183670D01*
X28805Y183538D01*
X28588Y183399D01*
X28374Y183254D01*
X28165Y183103D01*
X27960Y182946D01*
X27760Y182783D01*
X27564Y182614D01*
X27374Y182440D01*
X27189Y182260D01*
X27009Y182075D01*
X26835Y181884D01*
X26666Y181689D01*
X26503Y181489D01*
X26346Y181284D01*
X26195Y181075D01*
X26050Y180861D01*
X25911Y180643D01*
X25779Y180422D01*
X25653Y180196D01*
X25534Y179967D01*
X25421Y179735D01*
X25315Y179499D01*
X25217Y179261D01*
X25125Y179020D01*
X25040Y178776D01*
X24962Y178530D01*
X24892Y178281D01*
X24829Y178031D01*
X24773Y177779D01*
X24724Y177525D01*
X24683Y177270D01*
X24650Y177015D01*
X24623Y176758D01*
X24605Y176500D01*
X24593Y176242D01*
X24590Y175984D01*
Y174616D01*
X32865D01*
Y184838D01*
D02*
G37*
G36*
X59055Y184459D02*
X58799Y184455D01*
X58543Y184444D01*
X58288Y184424D01*
X58034Y184397D01*
X57780Y184363D01*
X57528Y184320D01*
X57276Y184271D01*
X57027Y184213D01*
X56779Y184148D01*
X56534Y184075D01*
X56291Y183996D01*
X56050Y183908D01*
X55812Y183814D01*
X55577Y183713D01*
X55345Y183604D01*
X55117Y183489D01*
X54892Y183366D01*
X54671Y183237D01*
X54454Y183101D01*
X54241Y182959D01*
X54032Y182810D01*
X53828Y182656D01*
X53629Y182495D01*
X53435Y182328D01*
X53246Y182155D01*
X53062Y181977D01*
X52884Y181793D01*
X52711Y181604D01*
X52545Y181410D01*
X52384Y181211D01*
X52229Y181007D01*
X52080Y180799D01*
X51938Y180586D01*
X51802Y180369D01*
X51673Y180148D01*
X51551Y179923D01*
X51435Y179694D01*
X51327Y179463D01*
X51225Y179227D01*
X51131Y178990D01*
X51044Y178749D01*
X50964Y178506D01*
X50891Y178260D01*
X50826Y178013D01*
X50769Y177763D01*
X50719Y177512D01*
X50677Y177259D01*
X50642Y177006D01*
X50615Y176751D01*
X50596Y176496D01*
X50584Y176240D01*
X50580Y175984D01*
Y172047D01*
X50584Y171791D01*
X50596Y171536D01*
X50615Y171280D01*
X50642Y171026D01*
X50677Y170772D01*
X50719Y170520D01*
X50769Y170268D01*
X50826Y170019D01*
X50891Y169771D01*
X50964Y169526D01*
X51044Y169283D01*
X51131Y169042D01*
X51225Y168804D01*
X51327Y168569D01*
X51435Y168337D01*
X51551Y168109D01*
X51673Y167884D01*
X51802Y167663D01*
X51938Y167446D01*
X52080Y167233D01*
X52229Y167024D01*
X52384Y166821D01*
X52545Y166621D01*
X52711Y166427D01*
X52884Y166238D01*
X53062Y166054D01*
X53246Y165876D01*
X53435Y165704D01*
X53629Y165537D01*
X53828Y165376D01*
X54032Y165221D01*
X54241Y165073D01*
X54454Y164930D01*
X54671Y164795D01*
X54892Y164665D01*
X55117Y164543D01*
X55345Y164427D01*
X55577Y164319D01*
X55812Y164217D01*
X56050Y164123D01*
X56291Y164036D01*
X56534Y163956D01*
X56779Y163883D01*
X57027Y163819D01*
X57276Y163761D01*
X57528Y163711D01*
X57780Y163669D01*
X58034Y163634D01*
X58288Y163607D01*
X58543Y163588D01*
X58799Y163576D01*
X59055Y163572D01*
X59311Y163576D01*
X59567Y163588D01*
X59822Y163607D01*
X60077Y163634D01*
X60330Y163669D01*
X60583Y163711D01*
X60834Y163761D01*
X61083Y163819D01*
X61331Y163883D01*
X61576Y163956D01*
X61820Y164036D01*
X62060Y164123D01*
X62298Y164217D01*
X62533Y164319D01*
X62765Y164427D01*
X62994Y164543D01*
X63218Y164665D01*
X63440Y164795D01*
X63657Y164930D01*
X63870Y165073D01*
X64078Y165221D01*
X64282Y165376D01*
X64481Y165537D01*
X64675Y165704D01*
X64864Y165876D01*
X65048Y166054D01*
X65226Y166238D01*
X65399Y166427D01*
X65566Y166621D01*
X65727Y166821D01*
X65881Y167024D01*
X66030Y167233D01*
X66172Y167446D01*
X66308Y167663D01*
X66437Y167884D01*
X66559Y168109D01*
X66675Y168337D01*
X66783Y168569D01*
X66885Y168804D01*
X66979Y169042D01*
X67067Y169283D01*
X67146Y169526D01*
X67219Y169771D01*
X67284Y170019D01*
X67341Y170268D01*
X67391Y170520D01*
X67434Y170772D01*
X67468Y171026D01*
X67495Y171280D01*
X67515Y171536D01*
X67526Y171791D01*
X67530Y172047D01*
Y175984D01*
X67526Y176240D01*
X67515Y176496D01*
X67495Y176751D01*
X67468Y177006D01*
X67434Y177259D01*
X67391Y177512D01*
X67341Y177763D01*
X67284Y178013D01*
X67219Y178260D01*
X67146Y178506D01*
X67067Y178749D01*
X66979Y178990D01*
X66885Y179227D01*
X66783Y179463D01*
X66675Y179694D01*
X66559Y179923D01*
X66437Y180148D01*
X66308Y180369D01*
X66172Y180586D01*
X66030Y180799D01*
X65881Y181007D01*
X65727Y181211D01*
X65566Y181410D01*
X65399Y181604D01*
X65226Y181793D01*
X65048Y181977D01*
X64864Y182155D01*
X64675Y182328D01*
X64481Y182495D01*
X64282Y182656D01*
X64078Y182810D01*
X63870Y182959D01*
X63657Y183101D01*
X63440Y183237D01*
X63218Y183366D01*
X62994Y183489D01*
X62765Y183604D01*
X62533Y183713D01*
X62298Y183814D01*
X62060Y183908D01*
X61820Y183996D01*
X61576Y184075D01*
X61331Y184148D01*
X61083Y184213D01*
X60834Y184271D01*
X60583Y184320D01*
X60330Y184363D01*
X60077Y184397D01*
X59822Y184424D01*
X59567Y184444D01*
X59311Y184455D01*
X59055Y184459D01*
D02*
G37*
G36*
X42340Y173416D02*
X34065D01*
Y163193D01*
X34238Y163206D01*
X34495Y163232D01*
X34751Y163266D01*
X35006Y163307D01*
X35259Y163356D01*
X35511Y163411D01*
X35762Y163475D01*
X36010Y163545D01*
X36256Y163623D01*
X36500Y163707D01*
X36741Y163799D01*
X36980Y163898D01*
X37215Y164004D01*
X37448Y164116D01*
X37677Y164235D01*
X37902Y164361D01*
X38124Y164494D01*
X38341Y164632D01*
X38555Y164777D01*
X38764Y164928D01*
X38969Y165086D01*
X39169Y165249D01*
X39365Y165417D01*
X39555Y165592D01*
X39740Y165772D01*
X39920Y165957D01*
X40094Y166147D01*
X40263Y166342D01*
X40426Y166543D01*
X40583Y166747D01*
X40734Y166957D01*
X40879Y167170D01*
X41018Y167388D01*
X41151Y167610D01*
X41276Y167835D01*
X41396Y168064D01*
X41508Y168297D01*
X41614Y168532D01*
X41712Y168771D01*
X41804Y169012D01*
X41889Y169256D01*
X41967Y169502D01*
X42037Y169750D01*
X42100Y170001D01*
X42156Y170253D01*
X42205Y170506D01*
X42246Y170761D01*
X42279Y171017D01*
X42306Y171274D01*
X42325Y171531D01*
X42336Y171789D01*
X42340Y172047D01*
Y173416D01*
D02*
G37*
G36*
X32865D02*
X24590D01*
Y172047D01*
X24593Y171789D01*
X24605Y171531D01*
X24623Y171274D01*
X24650Y171017D01*
X24683Y170761D01*
X24724Y170506D01*
X24773Y170253D01*
X24829Y170001D01*
X24892Y169750D01*
X24962Y169502D01*
X25040Y169256D01*
X25125Y169012D01*
X25217Y168771D01*
X25315Y168532D01*
X25421Y168297D01*
X25534Y168064D01*
X25653Y167835D01*
X25779Y167610D01*
X25911Y167388D01*
X26050Y167170D01*
X26195Y166957D01*
X26346Y166747D01*
X26503Y166543D01*
X26666Y166342D01*
X26835Y166147D01*
X27009Y165957D01*
X27189Y165772D01*
X27374Y165592D01*
X27564Y165417D01*
X27760Y165249D01*
X27960Y165086D01*
X28165Y164928D01*
X28374Y164777D01*
X28588Y164632D01*
X28805Y164494D01*
X29027Y164361D01*
X29252Y164235D01*
X29482Y164116D01*
X29714Y164004D01*
X29949Y163898D01*
X30188Y163799D01*
X30429Y163707D01*
X30673Y163623D01*
X30919Y163545D01*
X31168Y163475D01*
X31418Y163411D01*
X31670Y163356D01*
X31923Y163307D01*
X32178Y163266D01*
X32434Y163232D01*
X32691Y163206D01*
X32865Y163193D01*
Y173416D01*
D02*
G37*
G36*
X49213Y164387D02*
X47844D01*
Y156112D01*
X58066D01*
X58054Y156285D01*
X58028Y156542D01*
X57994Y156798D01*
X57953Y157053D01*
X57904Y157306D01*
X57848Y157558D01*
X57785Y157809D01*
X57715Y158057D01*
X57637Y158303D01*
X57552Y158547D01*
X57460Y158788D01*
X57362Y159027D01*
X57256Y159263D01*
X57144Y159495D01*
X57024Y159724D01*
X56899Y159949D01*
X56766Y160171D01*
X56628Y160389D01*
X56483Y160602D01*
X56331Y160811D01*
X56174Y161016D01*
X56011Y161216D01*
X55842Y161412D01*
X55668Y161602D01*
X55488Y161787D01*
X55303Y161967D01*
X55113Y162142D01*
X54917Y162310D01*
X54717Y162473D01*
X54512Y162630D01*
X54303Y162782D01*
X54089Y162927D01*
X53872Y163065D01*
X53650Y163198D01*
X53425Y163323D01*
X53196Y163443D01*
X52963Y163555D01*
X52728Y163661D01*
X52489Y163760D01*
X52248Y163851D01*
X52004Y163936D01*
X51758Y164014D01*
X51510Y164084D01*
X51259Y164147D01*
X51007Y164203D01*
X50754Y164252D01*
X50499Y164293D01*
X50243Y164327D01*
X49986Y164353D01*
X49729Y164372D01*
X49471Y164383D01*
X49213Y164387D01*
D02*
G37*
G36*
X46644D02*
X45276D01*
X45017Y164383D01*
X44760Y164372D01*
X44502Y164353D01*
X44245Y164327D01*
X43989Y164293D01*
X43734Y164252D01*
X43481Y164203D01*
X43229Y164147D01*
X42979Y164084D01*
X42730Y164014D01*
X42484Y163936D01*
X42240Y163851D01*
X41999Y163760D01*
X41760Y163661D01*
X41525Y163555D01*
X41293Y163443D01*
X41064Y163323D01*
X40838Y163198D01*
X40617Y163065D01*
X40399Y162927D01*
X40185Y162782D01*
X39976Y162630D01*
X39771Y162473D01*
X39571Y162310D01*
X39376Y162142D01*
X39185Y161967D01*
X39000Y161787D01*
X38820Y161602D01*
X38646Y161412D01*
X38477Y161216D01*
X38314Y161016D01*
X38157Y160811D01*
X38006Y160602D01*
X37861Y160389D01*
X37722Y160171D01*
X37590Y159949D01*
X37464Y159724D01*
X37345Y159495D01*
X37232Y159263D01*
X37126Y159027D01*
X37028Y158788D01*
X36936Y158547D01*
X36851Y158303D01*
X36773Y158057D01*
X36703Y157809D01*
X36640Y157558D01*
X36584Y157306D01*
X36536Y157053D01*
X36494Y156798D01*
X36461Y156542D01*
X36434Y156285D01*
X36422Y156112D01*
X46644D01*
Y164387D01*
D02*
G37*
G36*
X58066Y154912D02*
X47844D01*
Y146637D01*
X49213D01*
X49471Y146641D01*
X49729Y146652D01*
X49986Y146671D01*
X50243Y146697D01*
X50499Y146730D01*
X50754Y146772D01*
X51007Y146820D01*
X51259Y146876D01*
X51510Y146939D01*
X51758Y147010D01*
X52004Y147087D01*
X52248Y147172D01*
X52489Y147264D01*
X52728Y147363D01*
X52963Y147468D01*
X53196Y147581D01*
X53425Y147700D01*
X53650Y147826D01*
X53872Y147958D01*
X54089Y148097D01*
X54303Y148242D01*
X54512Y148393D01*
X54717Y148550D01*
X54917Y148713D01*
X55113Y148882D01*
X55303Y149056D01*
X55488Y149236D01*
X55668Y149421D01*
X55842Y149612D01*
X56011Y149807D01*
X56174Y150007D01*
X56331Y150212D01*
X56483Y150421D01*
X56628Y150635D01*
X56766Y150853D01*
X56899Y151074D01*
X57024Y151300D01*
X57144Y151529D01*
X57256Y151761D01*
X57362Y151997D01*
X57460Y152235D01*
X57552Y152476D01*
X57637Y152720D01*
X57715Y152966D01*
X57785Y153215D01*
X57848Y153465D01*
X57904Y153717D01*
X57953Y153971D01*
X57994Y154226D01*
X58028Y154481D01*
X58054Y154738D01*
X58066Y154912D01*
D02*
G37*
G36*
X46644D02*
X36422D01*
X36434Y154738D01*
X36461Y154481D01*
X36494Y154226D01*
X36536Y153971D01*
X36584Y153717D01*
X36640Y153465D01*
X36703Y153215D01*
X36773Y152966D01*
X36851Y152720D01*
X36936Y152476D01*
X37028Y152235D01*
X37126Y151997D01*
X37232Y151761D01*
X37345Y151529D01*
X37464Y151300D01*
X37590Y151074D01*
X37722Y150853D01*
X37861Y150635D01*
X38006Y150421D01*
X38157Y150212D01*
X38314Y150007D01*
X38477Y149807D01*
X38646Y149612D01*
X38820Y149421D01*
X39000Y149236D01*
X39185Y149056D01*
X39376Y148882D01*
X39571Y148713D01*
X39771Y148550D01*
X39976Y148393D01*
X40185Y148242D01*
X40399Y148097D01*
X40617Y147958D01*
X40838Y147826D01*
X41064Y147700D01*
X41293Y147581D01*
X41525Y147468D01*
X41760Y147363D01*
X41999Y147264D01*
X42240Y147172D01*
X42484Y147087D01*
X42730Y147010D01*
X42979Y146939D01*
X43229Y146876D01*
X43481Y146820D01*
X43734Y146772D01*
X43989Y146730D01*
X44245Y146697D01*
X44502Y146671D01*
X44760Y146652D01*
X45017Y146641D01*
X45276Y146637D01*
X46644D01*
Y154912D01*
D02*
G37*
G36*
X9340Y135411D02*
Y131702D01*
X13049D01*
X13032Y131818D01*
X12999Y131995D01*
X12958Y132170D01*
X12910Y132344D01*
X12855Y132515D01*
X12793Y132684D01*
X12725Y132850D01*
X12649Y133013D01*
X12567Y133173D01*
X12478Y133329D01*
X12383Y133482D01*
X12281Y133631D01*
X12174Y133775D01*
X12060Y133914D01*
X11941Y134049D01*
X11817Y134179D01*
X11687Y134303D01*
X11552Y134423D01*
X11413Y134536D01*
X11268Y134643D01*
X11120Y134745D01*
X10967Y134840D01*
X10811Y134929D01*
X10651Y135011D01*
X10488Y135087D01*
X10322Y135156D01*
X10153Y135217D01*
X9982Y135272D01*
X9808Y135320D01*
X9633Y135361D01*
X9456Y135394D01*
X9340Y135411D01*
D02*
G37*
G36*
X8140D02*
X8024Y135394D01*
X7847Y135361D01*
X7672Y135320D01*
X7499Y135272D01*
X7327Y135217D01*
X7159Y135156D01*
X6992Y135087D01*
X6829Y135011D01*
X6669Y134929D01*
X6513Y134840D01*
X6360Y134745D01*
X6212Y134643D01*
X6068Y134536D01*
X5928Y134423D01*
X5793Y134303D01*
X5664Y134179D01*
X5539Y134049D01*
X5420Y133914D01*
X5307Y133775D01*
X5199Y133631D01*
X5098Y133482D01*
X5003Y133329D01*
X4914Y133173D01*
X4831Y133013D01*
X4756Y132850D01*
X4687Y132684D01*
X4625Y132515D01*
X4570Y132344D01*
X4522Y132170D01*
X4482Y131995D01*
X4449Y131818D01*
X4432Y131702D01*
X8140D01*
Y135411D01*
D02*
G37*
G36*
X48110Y135053D02*
X47938Y135049D01*
X47766Y135038D01*
X47594Y135020D01*
X47424Y134993D01*
X47255Y134960D01*
X47088Y134919D01*
X46922Y134870D01*
X46759Y134815D01*
X46598Y134753D01*
X46441Y134683D01*
X46286Y134607D01*
X46135Y134524D01*
X45987Y134434D01*
X45844Y134339D01*
X45705Y134237D01*
X45571Y134129D01*
X45441Y134015D01*
X45316Y133896D01*
X45197Y133772D01*
X45084Y133642D01*
X44976Y133508D01*
X44874Y133369D01*
X44778Y133225D01*
X44689Y133078D01*
X44606Y132927D01*
X44530Y132772D01*
X44460Y132614D01*
X44398Y132454D01*
X44342Y132290D01*
X44294Y132125D01*
X44253Y131957D01*
X44219Y131788D01*
X44193Y131618D01*
X44174Y131447D01*
X44163Y131275D01*
X44159Y131102D01*
X44163Y130930D01*
X44174Y130758D01*
X44193Y130587D01*
X44219Y130416D01*
X44253Y130247D01*
X44294Y130080D01*
X44342Y129914D01*
X44398Y129751D01*
X44460Y129590D01*
X44530Y129433D01*
X44606Y129278D01*
X44689Y129127D01*
X44778Y128980D01*
X44874Y128836D01*
X44976Y128697D01*
X45084Y128563D01*
X45197Y128433D01*
X45316Y128309D01*
X45441Y128189D01*
X45571Y128076D01*
X45705Y127968D01*
X45844Y127866D01*
X45987Y127770D01*
X46135Y127681D01*
X46286Y127598D01*
X46441Y127522D01*
X46598Y127452D01*
X46759Y127390D01*
X46922Y127334D01*
X47088Y127286D01*
X47255Y127245D01*
X47424Y127211D01*
X47594Y127185D01*
X47766Y127166D01*
X47938Y127155D01*
X48110Y127151D01*
X48283Y127155D01*
X48455Y127166D01*
X48626Y127185D01*
X48796Y127211D01*
X48965Y127245D01*
X49133Y127286D01*
X49298Y127334D01*
X49461Y127390D01*
X49622Y127452D01*
X49780Y127522D01*
X49935Y127598D01*
X50086Y127681D01*
X50233Y127770D01*
X50376Y127866D01*
X50515Y127968D01*
X50650Y128076D01*
X50779Y128189D01*
X50904Y128309D01*
X51023Y128433D01*
X51137Y128563D01*
X51245Y128697D01*
X51347Y128836D01*
X51442Y128980D01*
X51532Y129127D01*
X51615Y129278D01*
X51691Y129433D01*
X51760Y129590D01*
X51823Y129751D01*
X51878Y129914D01*
X51926Y130080D01*
X51968Y130247D01*
X52001Y130416D01*
X52027Y130587D01*
X52046Y130758D01*
X52057Y130930D01*
X52061Y131102D01*
X52057Y131275D01*
X52046Y131447D01*
X52027Y131618D01*
X52001Y131788D01*
X51968Y131957D01*
X51926Y132125D01*
X51878Y132290D01*
X51823Y132454D01*
X51760Y132614D01*
X51691Y132772D01*
X51615Y132927D01*
X51532Y133078D01*
X51442Y133225D01*
X51347Y133369D01*
X51245Y133508D01*
X51137Y133642D01*
X51023Y133772D01*
X50904Y133896D01*
X50779Y134015D01*
X50650Y134129D01*
X50515Y134237D01*
X50376Y134339D01*
X50233Y134434D01*
X50086Y134524D01*
X49935Y134607D01*
X49780Y134683D01*
X49622Y134753D01*
X49461Y134815D01*
X49298Y134870D01*
X49133Y134919D01*
X48965Y134960D01*
X48796Y134993D01*
X48626Y135020D01*
X48455Y135038D01*
X48283Y135049D01*
X48110Y135053D01*
D02*
G37*
G36*
X13049Y130502D02*
X9340D01*
Y126794D01*
X9456Y126811D01*
X9633Y126844D01*
X9808Y126885D01*
X9982Y126932D01*
X10153Y126987D01*
X10322Y127049D01*
X10488Y127118D01*
X10651Y127193D01*
X10811Y127276D01*
X10967Y127365D01*
X11120Y127460D01*
X11268Y127561D01*
X11413Y127669D01*
X11552Y127782D01*
X11687Y127901D01*
X11817Y128026D01*
X11941Y128156D01*
X12060Y128290D01*
X12174Y128430D01*
X12281Y128574D01*
X12383Y128723D01*
X12478Y128875D01*
X12567Y129032D01*
X12649Y129192D01*
X12725Y129355D01*
X12793Y129521D01*
X12855Y129690D01*
X12910Y129861D01*
X12958Y130034D01*
X12999Y130210D01*
X13032Y130386D01*
X13049Y130502D01*
D02*
G37*
G36*
X8140D02*
X4432D01*
X4449Y130386D01*
X4482Y130210D01*
X4522Y130034D01*
X4570Y129861D01*
X4625Y129690D01*
X4687Y129521D01*
X4756Y129355D01*
X4831Y129192D01*
X4914Y129032D01*
X5003Y128875D01*
X5098Y128723D01*
X5199Y128574D01*
X5307Y128430D01*
X5420Y128290D01*
X5539Y128156D01*
X5664Y128026D01*
X5793Y127901D01*
X5928Y127782D01*
X6068Y127669D01*
X6212Y127561D01*
X6360Y127460D01*
X6513Y127365D01*
X6669Y127276D01*
X6829Y127193D01*
X6992Y127118D01*
X7159Y127049D01*
X7327Y126987D01*
X7499Y126932D01*
X7672Y126885D01*
X7847Y126844D01*
X8024Y126811D01*
X8140Y126794D01*
Y130502D01*
D02*
G37*
G36*
X96457Y102664D02*
X96231Y102660D01*
X96006Y102649D01*
X95782Y102629D01*
X95558Y102603D01*
X95335Y102568D01*
X95114Y102526D01*
X94894Y102476D01*
X94676Y102419D01*
X94460Y102355D01*
X94246Y102283D01*
X94035Y102204D01*
X93827Y102118D01*
X93622Y102024D01*
X93420Y101924D01*
X93221Y101817D01*
X93027Y101703D01*
X92836Y101583D01*
X92650Y101456D01*
X92468Y101323D01*
X92291Y101183D01*
X92119Y101038D01*
X91951Y100887D01*
X91789Y100731D01*
X91632Y100568D01*
X91482Y100401D01*
X91336Y100229D01*
X91197Y100051D01*
X91064Y99870D01*
X90937Y99683D01*
X90817Y99493D01*
X90703Y99298D01*
X90596Y99100D01*
X90496Y98898D01*
X90402Y98693D01*
X90316Y98485D01*
X90237Y98273D01*
X90165Y98060D01*
X90101Y97844D01*
X90043Y97626D01*
X89994Y97406D01*
X89952Y97185D01*
X89917Y96962D01*
X89890Y96738D01*
X89871Y96513D01*
X89860Y96288D01*
X89856Y96063D01*
X89860Y95838D01*
X89871Y95613D01*
X89890Y95388D01*
X89917Y95164D01*
X89952Y94941D01*
X89994Y94720D01*
X90043Y94500D01*
X90101Y94282D01*
X90165Y94066D01*
X90237Y93853D01*
X90316Y93641D01*
X90402Y93433D01*
X90496Y93228D01*
X90596Y93026D01*
X90703Y92828D01*
X90817Y92633D01*
X90937Y92443D01*
X91064Y92256D01*
X91197Y92075D01*
X91336Y91897D01*
X91482Y91725D01*
X91632Y91558D01*
X91789Y91395D01*
X91951Y91239D01*
X92119Y91088D01*
X92291Y90943D01*
X92468Y90803D01*
X92650Y90670D01*
X92836Y90543D01*
X93027Y90423D01*
X93221Y90309D01*
X93420Y90202D01*
X93622Y90102D01*
X93827Y90008D01*
X94035Y89922D01*
X94246Y89843D01*
X94460Y89771D01*
X94676Y89707D01*
X94894Y89650D01*
X95114Y89600D01*
X95335Y89558D01*
X95558Y89524D01*
X95782Y89497D01*
X96006Y89477D01*
X96231Y89466D01*
X96457Y89462D01*
X96682Y89466D01*
X96907Y89477D01*
X97132Y89497D01*
X97356Y89524D01*
X97578Y89558D01*
X97800Y89600D01*
X98020Y89650D01*
X98238Y89707D01*
X98454Y89771D01*
X98667Y89843D01*
X98878Y89922D01*
X99086Y90008D01*
X99292Y90102D01*
X99494Y90202D01*
X99692Y90309D01*
X99886Y90423D01*
X100077Y90543D01*
X100263Y90670D01*
X100445Y90803D01*
X100622Y90943D01*
X100795Y91088D01*
X100962Y91239D01*
X101124Y91395D01*
X101154Y91426D01*
X101156Y91428D01*
X101579Y91832D01*
X101997Y92178D01*
X102424Y92481D01*
X102860Y92743D01*
X103306Y92963D01*
X103763Y93142D01*
X104231Y93282D01*
X104711Y93382D01*
X105205Y93441D01*
X105727Y93462D01*
X160518D01*
X160610Y93403D01*
X160743Y93328D01*
X160879Y93260D01*
X161018Y93198D01*
X161160Y93143D01*
X161305Y93096D01*
X161451Y93055D01*
X161600Y93022D01*
X161750Y92996D01*
X161901Y92977D01*
X162053Y92966D01*
X162205Y92962D01*
X162357Y92966D01*
X162509Y92977D01*
X162660Y92996D01*
X162810Y93022D01*
X162958Y93055D01*
X163105Y93096D01*
X163249Y93143D01*
X163391Y93198D01*
X163531Y93260D01*
X163666Y93328D01*
X163799Y93403D01*
X163927Y93485D01*
X164052Y93572D01*
X164172Y93666D01*
X164287Y93765D01*
X164397Y93870D01*
X164502Y93980D01*
X164602Y94096D01*
X164695Y94216D01*
X164783Y94340D01*
X164865Y94469D01*
X164939Y94601D01*
X165008Y94737D01*
X165070Y94876D01*
X165124Y95018D01*
X165172Y95163D01*
X165213Y95310D01*
X165246Y95458D01*
X165272Y95608D01*
X165291Y95759D01*
X165302Y95911D01*
X165306Y96063D01*
X165302Y96215D01*
X165291Y96367D01*
X165272Y96518D01*
X165246Y96668D01*
X165213Y96816D01*
X165172Y96963D01*
X165124Y97108D01*
X165070Y97250D01*
X165008Y97389D01*
X164939Y97525D01*
X164865Y97657D01*
X164783Y97786D01*
X164695Y97910D01*
X164602Y98030D01*
X164502Y98146D01*
X164397Y98256D01*
X164287Y98361D01*
X164172Y98460D01*
X164052Y98554D01*
X163927Y98641D01*
X163799Y98723D01*
X163666Y98798D01*
X163531Y98866D01*
X163391Y98928D01*
X163249Y98983D01*
X163105Y99030D01*
X162958Y99071D01*
X162810Y99104D01*
X162660Y99130D01*
X162509Y99149D01*
X162357Y99160D01*
X162205Y99164D01*
X162053Y99160D01*
X161901Y99149D01*
X161750Y99130D01*
X161600Y99104D01*
X161451Y99071D01*
X161305Y99030D01*
X161160Y98983D01*
X161018Y98928D01*
X160879Y98866D01*
X160743Y98798D01*
X160610Y98723D01*
X160518Y98664D01*
X105727D01*
X105205Y98685D01*
X104711Y98744D01*
X104231Y98844D01*
X103763Y98984D01*
X103306Y99163D01*
X102860Y99383D01*
X102424Y99645D01*
X101997Y99948D01*
X101579Y100294D01*
X101156Y100698D01*
X101154Y100700D01*
X101124Y100731D01*
X100962Y100887D01*
X100795Y101038D01*
X100622Y101183D01*
X100445Y101323D01*
X100263Y101456D01*
X100077Y101583D01*
X99886Y101703D01*
X99692Y101817D01*
X99494Y101924D01*
X99292Y102024D01*
X99086Y102118D01*
X98878Y102204D01*
X98667Y102283D01*
X98454Y102355D01*
X98238Y102419D01*
X98020Y102476D01*
X97800Y102526D01*
X97578Y102568D01*
X97356Y102603D01*
X97132Y102629D01*
X96907Y102649D01*
X96682Y102660D01*
X96457Y102664D01*
D02*
G37*
G36*
X10457D02*
X10231Y102660D01*
X10006Y102649D01*
X9782Y102629D01*
X9558Y102603D01*
X9335Y102568D01*
X9114Y102526D01*
X8894Y102476D01*
X8676Y102419D01*
X8460Y102355D01*
X8246Y102283D01*
X8035Y102204D01*
X7827Y102118D01*
X7622Y102024D01*
X7420Y101924D01*
X7221Y101817D01*
X7027Y101703D01*
X6836Y101583D01*
X6650Y101456D01*
X6468Y101323D01*
X6291Y101183D01*
X6118Y101038D01*
X5951Y100887D01*
X5789Y100731D01*
X5632Y100568D01*
X5482Y100401D01*
X5336Y100229D01*
X5197Y100051D01*
X5064Y99870D01*
X4937Y99683D01*
X4817Y99493D01*
X4703Y99298D01*
X4596Y99100D01*
X4496Y98898D01*
X4402Y98693D01*
X4316Y98485D01*
X4237Y98273D01*
X4165Y98060D01*
X4101Y97844D01*
X4043Y97626D01*
X3994Y97406D01*
X3952Y97185D01*
X3917Y96962D01*
X3890Y96738D01*
X3871Y96513D01*
X3860Y96288D01*
X3856Y96063D01*
X3860Y95838D01*
X3871Y95613D01*
X3890Y95388D01*
X3917Y95164D01*
X3952Y94941D01*
X3994Y94720D01*
X4043Y94500D01*
X4101Y94282D01*
X4165Y94066D01*
X4237Y93853D01*
X4316Y93641D01*
X4402Y93433D01*
X4496Y93228D01*
X4596Y93026D01*
X4703Y92828D01*
X4817Y92633D01*
X4937Y92443D01*
X5064Y92256D01*
X5197Y92075D01*
X5336Y91897D01*
X5482Y91725D01*
X5632Y91558D01*
X5789Y91395D01*
X5951Y91239D01*
X6118Y91088D01*
X6291Y90943D01*
X6468Y90803D01*
X6650Y90670D01*
X6836Y90543D01*
X7027Y90423D01*
X7221Y90309D01*
X7420Y90202D01*
X7622Y90102D01*
X7827Y90008D01*
X8035Y89922D01*
X8246Y89843D01*
X8460Y89771D01*
X8676Y89707D01*
X8894Y89650D01*
X9114Y89600D01*
X9335Y89558D01*
X9558Y89524D01*
X9782Y89497D01*
X10006Y89477D01*
X10231Y89466D01*
X10457Y89462D01*
X10682Y89466D01*
X10907Y89477D01*
X11132Y89497D01*
X11355Y89524D01*
X11578Y89558D01*
X11800Y89600D01*
X12020Y89650D01*
X12238Y89707D01*
X12454Y89771D01*
X12667Y89843D01*
X12878Y89922D01*
X13086Y90008D01*
X13292Y90102D01*
X13494Y90202D01*
X13692Y90309D01*
X13886Y90423D01*
X14077Y90543D01*
X14263Y90670D01*
X14445Y90803D01*
X14623Y90943D01*
X14795Y91088D01*
X14962Y91239D01*
X15124Y91395D01*
X15281Y91558D01*
X15432Y91725D01*
X15577Y91897D01*
X15716Y92075D01*
X15849Y92256D01*
X15976Y92443D01*
X16097Y92633D01*
X16210Y92828D01*
X16318Y93026D01*
X16418Y93228D01*
X16511Y93433D01*
X16597Y93641D01*
X16677Y93853D01*
X16748Y94066D01*
X16813Y94282D01*
X16870Y94500D01*
X16920Y94720D01*
X16962Y94941D01*
X16996Y95164D01*
X17023Y95388D01*
X17042Y95613D01*
X17054Y95838D01*
X17058Y96063D01*
X17054Y96288D01*
X17042Y96513D01*
X17023Y96738D01*
X16996Y96962D01*
X16962Y97185D01*
X16920Y97406D01*
X16870Y97626D01*
X16813Y97844D01*
X16748Y98060D01*
X16677Y98273D01*
X16597Y98485D01*
X16511Y98693D01*
X16418Y98898D01*
X16318Y99100D01*
X16210Y99298D01*
X16097Y99493D01*
X15976Y99683D01*
X15849Y99870D01*
X15716Y100051D01*
X15577Y100229D01*
X15432Y100401D01*
X15281Y100568D01*
X15124Y100731D01*
X14962Y100887D01*
X14795Y101038D01*
X14623Y101183D01*
X14445Y101323D01*
X14263Y101456D01*
X14077Y101583D01*
X13886Y101703D01*
X13692Y101817D01*
X13494Y101924D01*
X13292Y102024D01*
X13086Y102118D01*
X12878Y102204D01*
X12667Y102283D01*
X12454Y102355D01*
X12238Y102419D01*
X12020Y102476D01*
X11800Y102526D01*
X11578Y102568D01*
X11355Y102603D01*
X11132Y102629D01*
X10907Y102649D01*
X10682Y102660D01*
X10457Y102664D01*
D02*
G37*
G36*
X40994Y62191D02*
Y58868D01*
X44317D01*
X44303Y58957D01*
X44269Y59127D01*
X44228Y59295D01*
X44179Y59461D01*
X44124Y59625D01*
X44061Y59787D01*
X43991Y59945D01*
X43915Y60101D01*
X43831Y60252D01*
X43742Y60400D01*
X43645Y60545D01*
X43543Y60684D01*
X43435Y60819D01*
X43320Y60949D01*
X43200Y61075D01*
X43075Y61194D01*
X42945Y61308D01*
X42810Y61417D01*
X42671Y61519D01*
X42527Y61616D01*
X42378Y61705D01*
X42227Y61789D01*
X42071Y61865D01*
X41913Y61935D01*
X41751Y61998D01*
X41587Y62053D01*
X41421Y62102D01*
X41253Y62143D01*
X41083Y62177D01*
X40994Y62191D01*
D02*
G37*
G36*
X39794D02*
X39704Y62177D01*
X39535Y62143D01*
X39366Y62102D01*
X39200Y62053D01*
X39036Y61998D01*
X38875Y61935D01*
X38716Y61865D01*
X38561Y61789D01*
X38409Y61705D01*
X38261Y61616D01*
X38117Y61519D01*
X37977Y61417D01*
X37842Y61308D01*
X37712Y61194D01*
X37587Y61075D01*
X37467Y60949D01*
X37353Y60819D01*
X37244Y60684D01*
X37142Y60545D01*
X37046Y60400D01*
X36956Y60252D01*
X36873Y60101D01*
X36796Y59945D01*
X36726Y59787D01*
X36664Y59625D01*
X36608Y59461D01*
X36560Y59295D01*
X36518Y59127D01*
X36485Y58957D01*
X36471Y58868D01*
X39794D01*
Y62191D01*
D02*
G37*
G36*
X33962Y61836D02*
X26825D01*
Y54699D01*
X33962D01*
Y61836D01*
D02*
G37*
G36*
X44317Y57668D02*
X40994D01*
Y54345D01*
X41083Y54359D01*
X41253Y54392D01*
X41421Y54434D01*
X41587Y54482D01*
X41751Y54538D01*
X41913Y54600D01*
X42071Y54670D01*
X42227Y54747D01*
X42378Y54830D01*
X42527Y54920D01*
X42671Y55016D01*
X42810Y55119D01*
X42945Y55227D01*
X43075Y55341D01*
X43200Y55461D01*
X43320Y55586D01*
X43435Y55716D01*
X43543Y55851D01*
X43645Y55991D01*
X43742Y56135D01*
X43831Y56283D01*
X43915Y56435D01*
X43991Y56590D01*
X44061Y56749D01*
X44124Y56910D01*
X44179Y57074D01*
X44228Y57240D01*
X44269Y57409D01*
X44303Y57578D01*
X44317Y57668D01*
D02*
G37*
G36*
X39794D02*
X36471D01*
X36485Y57578D01*
X36518Y57409D01*
X36560Y57240D01*
X36608Y57074D01*
X36664Y56910D01*
X36726Y56749D01*
X36796Y56590D01*
X36873Y56435D01*
X36956Y56283D01*
X37046Y56135D01*
X37142Y55991D01*
X37244Y55851D01*
X37353Y55716D01*
X37467Y55586D01*
X37587Y55461D01*
X37712Y55341D01*
X37842Y55227D01*
X37977Y55119D01*
X38117Y55016D01*
X38261Y54920D01*
X38409Y54830D01*
X38561Y54747D01*
X38716Y54670D01*
X38875Y54600D01*
X39036Y54538D01*
X39200Y54482D01*
X39366Y54434D01*
X39535Y54392D01*
X39704Y54359D01*
X39794Y54345D01*
Y57668D01*
D02*
G37*
G36*
X157687Y50543D02*
Y46978D01*
X161294D01*
X161274Y47107D01*
X161238Y47287D01*
X161195Y47465D01*
X161143Y47641D01*
X161084Y47815D01*
X161018Y47986D01*
X160944Y48153D01*
X160863Y48318D01*
X160775Y48478D01*
X160680Y48635D01*
X160578Y48788D01*
X160469Y48935D01*
X160355Y49078D01*
X160234Y49216D01*
X160107Y49349D01*
X159975Y49475D01*
X159837Y49596D01*
X159694Y49711D01*
X159546Y49819D01*
X159394Y49921D01*
X159237Y50016D01*
X159076Y50104D01*
X158912Y50185D01*
X158744Y50259D01*
X158573Y50326D01*
X158400Y50384D01*
X158224Y50436D01*
X158046Y50479D01*
X157866Y50515D01*
X157687Y50543D01*
D02*
G37*
G36*
X148511Y71467D02*
X47189D01*
X47172Y71466D01*
X47155D01*
X47045Y71460D01*
X47028Y71458D01*
X47011Y71457D01*
X46902Y71445D01*
X46885Y71442D01*
X46868Y71440D01*
X46759Y71421D01*
X46743Y71418D01*
X46726Y71415D01*
X46619Y71390D01*
X46602Y71386D01*
X46586Y71382D01*
X46480Y71351D01*
X46464Y71346D01*
X46448Y71341D01*
X46343Y71305D01*
X46328Y71298D01*
X46312Y71293D01*
X46210Y71250D01*
X46195Y71243D01*
X46179Y71237D01*
X46079Y71189D01*
X46065Y71180D01*
X46049Y71173D01*
X45953Y71120D01*
X45939Y71111D01*
X45924Y71103D01*
X45830Y71044D01*
X45817Y71034D01*
X45802Y71025D01*
X45712Y70961D01*
X45699Y70951D01*
X45685Y70941D01*
X45599Y70872D01*
X45586Y70861D01*
X45573Y70850D01*
X45491Y70777D01*
X45479Y70765D01*
X45466Y70754D01*
X45388Y70675D01*
X45377Y70663D01*
X45365Y70651D01*
X45291Y70569D01*
X45281Y70555D01*
X45270Y70543D01*
X45201Y70456D01*
X45191Y70443D01*
X45180Y70430D01*
X45117Y70340D01*
X45108Y70325D01*
X45098Y70311D01*
X45039Y70218D01*
X45031Y70203D01*
X45022Y70189D01*
X44969Y70092D01*
X44961Y70077D01*
X44953Y70062D01*
X44905Y69963D01*
X44899Y69947D01*
X44891Y69932D01*
X44849Y69830D01*
X44844Y69814D01*
X44837Y69798D01*
X44801Y69694D01*
X44796Y69678D01*
X44790Y69662D01*
X44760Y69556D01*
X44756Y69539D01*
X44751Y69523D01*
X44727Y69415D01*
X44724Y69399D01*
X44720Y69383D01*
X44702Y69274D01*
X44700Y69257D01*
X44697Y69240D01*
X44685Y69130D01*
X44684Y69114D01*
X44682Y69097D01*
X44676Y68986D01*
Y68970D01*
X44675Y68953D01*
Y68898D01*
Y16693D01*
Y16553D01*
X44675Y16544D01*
X44675Y16536D01*
X44683Y16255D01*
X44683Y16247D01*
Y16239D01*
X44699Y15958D01*
X44700Y15950D01*
X44700Y15942D01*
X44724Y15662D01*
X44725Y15654D01*
X44726Y15645D01*
X44757Y15367D01*
X44758Y15358D01*
X44759Y15350D01*
X44798Y15072D01*
X44800Y15064D01*
X44801Y15055D01*
X44848Y14779D01*
X44850Y14771D01*
X44851Y14762D01*
X44906Y14487D01*
X44908Y14479D01*
X44909Y14471D01*
X44972Y14197D01*
X44974Y14189D01*
X44976Y14181D01*
X45046Y13909D01*
X45048Y13901D01*
X45050Y13893D01*
X45128Y13623D01*
X45131Y13615D01*
X45133Y13607D01*
X45218Y13340D01*
X45221Y13332D01*
X45223Y13324D01*
X45316Y13059D01*
X45319Y13051D01*
X45322Y13043D01*
X45422Y12781D01*
X45425Y12774D01*
X45428Y12766D01*
X45535Y12506D01*
X45539Y12499D01*
X45542Y12491D01*
X45656Y12235D01*
X45660Y12228D01*
X45664Y12220D01*
X45785Y11967D01*
X45789Y11960D01*
X45793Y11952D01*
X45922Y11703D01*
X45926Y11695D01*
X45930Y11688D01*
X46065Y11442D01*
X46070Y11435D01*
X46074Y11428D01*
X46216Y11186D01*
X46221Y11179D01*
X46225Y11172D01*
X46374Y10934D01*
X46379Y10927D01*
X46383Y10920D01*
X46539Y10687D01*
X46544Y10680D01*
X46549Y10673D01*
X46711Y10444D01*
X46716Y10437D01*
X46721Y10430D01*
X46890Y10206D01*
X46895Y10200D01*
X46900Y10193D01*
X47075Y9974D01*
X47080Y9967D01*
X47086Y9961D01*
X47267Y9746D01*
X47272Y9740D01*
X47278Y9734D01*
X47464Y9524D01*
X47471Y9518D01*
X47476Y9512D01*
X47669Y9308D01*
X47675Y9302D01*
X47680Y9296D01*
X47879Y9098D01*
X47885Y9092D01*
X47891Y9086D01*
X48095Y8893D01*
X48101Y8888D01*
X48107Y8882D01*
X48316Y8695D01*
X48323Y8690D01*
X48329Y8684D01*
X48543Y8503D01*
X48550Y8498D01*
X48556Y8492D01*
X48776Y8317D01*
X48783Y8313D01*
X48789Y8307D01*
X49013Y8138D01*
X49020Y8134D01*
X49027Y8128D01*
X49255Y7966D01*
X49263Y7961D01*
X49269Y7956D01*
X49503Y7801D01*
X49510Y7796D01*
X49517Y7791D01*
X49754Y7642D01*
X49762Y7638D01*
X49769Y7633D01*
X50010Y7491D01*
X50018Y7487D01*
X50025Y7483D01*
X50270Y7347D01*
X50278Y7343D01*
X50285Y7339D01*
X50535Y7210D01*
X50542Y7207D01*
X50550Y7203D01*
X50802Y7081D01*
X50810Y7078D01*
X50818Y7074D01*
X51074Y6959D01*
X51082Y6956D01*
X51089Y6953D01*
X51348Y6845D01*
X51356Y6842D01*
X51364Y6839D01*
X51626Y6739D01*
X51634Y6736D01*
X51642Y6733D01*
X51907Y6640D01*
X51915Y6638D01*
X51923Y6635D01*
X52190Y6550D01*
X52198Y6548D01*
X52206Y6545D01*
X52476Y6467D01*
X52484Y6466D01*
X52492Y6463D01*
X52763Y6393D01*
X52772Y6391D01*
X52780Y6389D01*
X53053Y6327D01*
X53062Y6325D01*
X53070Y6323D01*
X53345Y6268D01*
X53353Y6267D01*
X53362Y6265D01*
X53638Y6218D01*
X53646Y6217D01*
X53655Y6216D01*
X53933Y6176D01*
X53941Y6176D01*
X53949Y6174D01*
X54228Y6143D01*
X54237Y6142D01*
X54245Y6141D01*
X54524Y6118D01*
X54533Y6117D01*
X54541Y6117D01*
X54821Y6101D01*
X54830D01*
X54838Y6100D01*
X55119Y6092D01*
X55127Y6092D01*
X55135Y6092D01*
X149674D01*
X149689Y6093D01*
X149703Y6093D01*
X149838Y6099D01*
X149853Y6101D01*
X149868Y6101D01*
X150003Y6115D01*
X150017Y6117D01*
X150032Y6118D01*
X150166Y6138D01*
X150180Y6141D01*
X150195Y6143D01*
X150328Y6170D01*
X150342Y6173D01*
X150356Y6176D01*
X150487Y6209D01*
X150502Y6213D01*
X150516Y6217D01*
X150645Y6256D01*
X150659Y6261D01*
X150673Y6265D01*
X150801Y6311D01*
X150814Y6317D01*
X150828Y6322D01*
X150953Y6373D01*
X150967Y6380D01*
X150980Y6385D01*
X151103Y6443D01*
X151116Y6450D01*
X151129Y6456D01*
X151248Y6520D01*
X151261Y6528D01*
X151274Y6535D01*
X151390Y6604D01*
X151402Y6613D01*
X151415Y6620D01*
X151528Y6695D01*
X151539Y6704D01*
X151552Y6712D01*
X151660Y6793D01*
X151672Y6802D01*
X151684Y6811D01*
X151788Y6897D01*
X151799Y6907D01*
X151810Y6916D01*
X151911Y7007D01*
X151921Y7017D01*
X151932Y7027D01*
X152028Y7123D01*
X152038Y7134D01*
X152048Y7144D01*
X152139Y7245D01*
X152148Y7256D01*
X152158Y7267D01*
X152244Y7372D01*
X152253Y7384D01*
X152262Y7395D01*
X152343Y7503D01*
X152351Y7516D01*
X152360Y7528D01*
X152435Y7640D01*
X152443Y7653D01*
X152451Y7665D01*
X152520Y7781D01*
X152527Y7794D01*
X152535Y7807D01*
X152599Y7926D01*
X152605Y7939D01*
X152612Y7952D01*
X152670Y8075D01*
X152675Y8088D01*
X152682Y8102D01*
X152734Y8227D01*
X152738Y8241D01*
X152744Y8254D01*
X152790Y8382D01*
X152794Y8396D01*
X152799Y8410D01*
X152838Y8539D01*
X152842Y8553D01*
X152846Y8568D01*
X152879Y8699D01*
X152882Y8713D01*
X152885Y8728D01*
X152912Y8860D01*
X152914Y8875D01*
X152917Y8889D01*
X152937Y9023D01*
X152938Y9038D01*
X152940Y9052D01*
X152954Y9187D01*
X152954Y9202D01*
X152956Y9217D01*
X152962Y9352D01*
X152962Y9366D01*
X152963Y9381D01*
Y9449D01*
Y15354D01*
X152979Y15291D01*
X153030Y15115D01*
X153089Y14941D01*
X153155Y14770D01*
X153229Y14603D01*
X153310Y14438D01*
X153398Y14277D01*
X153493Y14121D01*
X153595Y13968D01*
X153704Y13821D01*
X153819Y13678D01*
X153939Y13540D01*
X154066Y13407D01*
X154199Y13281D01*
X154336Y13160D01*
X154479Y13045D01*
X154627Y12937D01*
X154779Y12835D01*
X154936Y12740D01*
X155097Y12652D01*
X155261Y12571D01*
X155429Y12497D01*
X155600Y12430D01*
X155773Y12371D01*
X155949Y12320D01*
X156127Y12276D01*
X156307Y12241D01*
X156487Y12213D01*
Y16378D01*
Y20543D01*
X156307Y20515D01*
X156127Y20479D01*
X155949Y20436D01*
X155773Y20384D01*
X155600Y20326D01*
X155429Y20259D01*
X155261Y20185D01*
X155097Y20104D01*
X154936Y20016D01*
X154779Y19921D01*
X154627Y19819D01*
X154479Y19711D01*
X154336Y19596D01*
X154199Y19475D01*
X154066Y19349D01*
X153939Y19216D01*
X153819Y19078D01*
X153704Y18935D01*
X153595Y18788D01*
X153493Y18635D01*
X153398Y18478D01*
X153310Y18318D01*
X153229Y18153D01*
X153155Y17986D01*
X153089Y17815D01*
X153030Y17641D01*
X152979Y17465D01*
X152963Y17402D01*
Y25354D01*
X152979Y25291D01*
X153030Y25115D01*
X153089Y24941D01*
X153155Y24770D01*
X153229Y24602D01*
X153310Y24438D01*
X153398Y24277D01*
X153493Y24121D01*
X153595Y23968D01*
X153704Y23821D01*
X153819Y23678D01*
X153939Y23540D01*
X154066Y23407D01*
X154199Y23281D01*
X154336Y23160D01*
X154479Y23045D01*
X154627Y22937D01*
X154779Y22835D01*
X154936Y22740D01*
X155097Y22652D01*
X155261Y22571D01*
X155429Y22497D01*
X155600Y22430D01*
X155773Y22371D01*
X155949Y22320D01*
X156127Y22276D01*
X156307Y22241D01*
X156487Y22213D01*
Y26378D01*
Y30543D01*
X156307Y30515D01*
X156127Y30479D01*
X155949Y30436D01*
X155773Y30384D01*
X155600Y30326D01*
X155429Y30259D01*
X155261Y30185D01*
X155097Y30104D01*
X154936Y30016D01*
X154779Y29921D01*
X154627Y29819D01*
X154479Y29711D01*
X154336Y29596D01*
X154199Y29475D01*
X154066Y29348D01*
X153939Y29216D01*
X153819Y29078D01*
X153704Y28935D01*
X153595Y28787D01*
X153493Y28635D01*
X153398Y28478D01*
X153310Y28318D01*
X153229Y28153D01*
X153155Y27986D01*
X153089Y27815D01*
X153030Y27641D01*
X152979Y27465D01*
X152963Y27402D01*
Y35354D01*
X152979Y35291D01*
X153030Y35115D01*
X153089Y34941D01*
X153155Y34770D01*
X153229Y34602D01*
X153310Y34438D01*
X153398Y34277D01*
X153493Y34121D01*
X153595Y33968D01*
X153704Y33821D01*
X153819Y33678D01*
X153939Y33540D01*
X154066Y33407D01*
X154199Y33281D01*
X154336Y33160D01*
X154479Y33045D01*
X154627Y32937D01*
X154779Y32835D01*
X154936Y32740D01*
X155097Y32652D01*
X155261Y32570D01*
X155429Y32497D01*
X155600Y32430D01*
X155773Y32371D01*
X155949Y32320D01*
X156127Y32276D01*
X156307Y32241D01*
X156487Y32213D01*
Y36378D01*
Y40543D01*
X156307Y40515D01*
X156127Y40479D01*
X155949Y40436D01*
X155773Y40385D01*
X155600Y40326D01*
X155429Y40259D01*
X155261Y40185D01*
X155097Y40104D01*
X154936Y40016D01*
X154779Y39921D01*
X154627Y39819D01*
X154479Y39711D01*
X154336Y39596D01*
X154199Y39475D01*
X154066Y39349D01*
X153939Y39216D01*
X153819Y39078D01*
X153704Y38935D01*
X153595Y38787D01*
X153493Y38635D01*
X153398Y38478D01*
X153310Y38318D01*
X153229Y38153D01*
X153155Y37986D01*
X153089Y37815D01*
X153030Y37641D01*
X152979Y37465D01*
X152963Y37402D01*
Y45354D01*
X152979Y45291D01*
X153030Y45115D01*
X153089Y44941D01*
X153155Y44770D01*
X153229Y44603D01*
X153310Y44438D01*
X153398Y44277D01*
X153493Y44121D01*
X153595Y43968D01*
X153704Y43821D01*
X153819Y43678D01*
X153939Y43540D01*
X154066Y43407D01*
X154199Y43281D01*
X154336Y43160D01*
X154479Y43045D01*
X154627Y42937D01*
X154779Y42835D01*
X154936Y42740D01*
X155097Y42652D01*
X155261Y42570D01*
X155429Y42497D01*
X155600Y42430D01*
X155773Y42371D01*
X155949Y42320D01*
X156127Y42276D01*
X156307Y42241D01*
X156487Y42213D01*
Y46378D01*
Y50543D01*
X156307Y50515D01*
X156127Y50479D01*
X155949Y50436D01*
X155773Y50384D01*
X155600Y50326D01*
X155429Y50259D01*
X155261Y50185D01*
X155097Y50104D01*
X154936Y50016D01*
X154779Y49921D01*
X154627Y49819D01*
X154479Y49711D01*
X154336Y49596D01*
X154199Y49475D01*
X154066Y49349D01*
X153939Y49216D01*
X153819Y49078D01*
X153704Y48935D01*
X153595Y48788D01*
X153493Y48635D01*
X153398Y48478D01*
X153310Y48318D01*
X153229Y48153D01*
X153155Y47986D01*
X153089Y47815D01*
X153030Y47641D01*
X152979Y47465D01*
X152963Y47401D01*
Y66929D01*
Y67015D01*
X152962Y67028D01*
X152963Y67041D01*
X152955Y67213D01*
X152954Y67226D01*
X152953Y67239D01*
X152938Y67410D01*
X152936Y67423D01*
X152936Y67436D01*
X152913Y67607D01*
X152911Y67620D01*
X152909Y67633D01*
X152879Y67802D01*
X152876Y67814D01*
X152874Y67827D01*
X152837Y67995D01*
X152833Y68008D01*
X152831Y68021D01*
X152786Y68187D01*
X152782Y68199D01*
X152779Y68212D01*
X152727Y68376D01*
X152723Y68388D01*
X152719Y68401D01*
X152660Y68562D01*
X152655Y68574D01*
X152651Y68586D01*
X152585Y68745D01*
X152579Y68757D01*
X152574Y68769D01*
X152502Y68925D01*
X152496Y68936D01*
X152490Y68948D01*
X152411Y69101D01*
X152404Y69112D01*
X152398Y69124D01*
X152312Y69273D01*
X152305Y69283D01*
X152299Y69295D01*
X152206Y69440D01*
X152199Y69450D01*
X152192Y69462D01*
X152093Y69602D01*
X152085Y69613D01*
X152078Y69624D01*
X151973Y69760D01*
X151965Y69770D01*
X151957Y69780D01*
X151846Y69912D01*
X151837Y69921D01*
X151829Y69932D01*
X151713Y70058D01*
X151704Y70067D01*
X151695Y70077D01*
X151573Y70199D01*
X151564Y70207D01*
X151554Y70217D01*
X151428Y70333D01*
X151418Y70341D01*
X151408Y70350D01*
X151276Y70461D01*
X151266Y70468D01*
X151256Y70477D01*
X151120Y70582D01*
X151109Y70589D01*
X151098Y70597D01*
X150958Y70696D01*
X150947Y70703D01*
X150936Y70710D01*
X150791Y70803D01*
X150779Y70809D01*
X150769Y70816D01*
X150620Y70902D01*
X150608Y70908D01*
X150597Y70915D01*
X150444Y70994D01*
X150432Y70999D01*
X150421Y71006D01*
X150265Y71078D01*
X150253Y71083D01*
X150241Y71089D01*
X150082Y71154D01*
X150070Y71159D01*
X150058Y71164D01*
X149897Y71223D01*
X149884Y71227D01*
X149872Y71231D01*
X149708Y71283D01*
X149695Y71286D01*
X149683Y71290D01*
X149517Y71335D01*
X149504Y71337D01*
X149491Y71341D01*
X149323Y71378D01*
X149311Y71380D01*
X149298Y71383D01*
X149129Y71413D01*
X149116Y71415D01*
X149103Y71417D01*
X148932Y71439D01*
X148919Y71441D01*
X148906Y71442D01*
X148735Y71457D01*
X148722Y71458D01*
X148709Y71459D01*
X148537Y71466D01*
X148524Y71466D01*
X148511Y71467D01*
D02*
G37*
G36*
X161294Y45778D02*
X157687D01*
Y42213D01*
X157866Y42241D01*
X158046Y42276D01*
X158224Y42320D01*
X158400Y42371D01*
X158573Y42430D01*
X158744Y42497D01*
X158912Y42570D01*
X159076Y42652D01*
X159237Y42740D01*
X159394Y42835D01*
X159546Y42937D01*
X159694Y43045D01*
X159837Y43160D01*
X159975Y43281D01*
X160107Y43407D01*
X160234Y43540D01*
X160355Y43678D01*
X160469Y43821D01*
X160578Y43968D01*
X160680Y44121D01*
X160775Y44277D01*
X160863Y44438D01*
X160944Y44603D01*
X161018Y44770D01*
X161084Y44941D01*
X161143Y45115D01*
X161195Y45291D01*
X161238Y45469D01*
X161274Y45649D01*
X161294Y45778D01*
D02*
G37*
G36*
X157687Y40543D02*
Y36978D01*
X161294D01*
X161274Y37108D01*
X161238Y37287D01*
X161195Y37465D01*
X161143Y37641D01*
X161084Y37815D01*
X161018Y37986D01*
X160944Y38153D01*
X160863Y38318D01*
X160775Y38478D01*
X160680Y38635D01*
X160578Y38787D01*
X160469Y38935D01*
X160355Y39078D01*
X160234Y39216D01*
X160107Y39349D01*
X159975Y39475D01*
X159837Y39596D01*
X159694Y39711D01*
X159546Y39819D01*
X159394Y39921D01*
X159237Y40016D01*
X159076Y40104D01*
X158912Y40185D01*
X158744Y40259D01*
X158573Y40326D01*
X158400Y40385D01*
X158224Y40436D01*
X158046Y40479D01*
X157866Y40515D01*
X157687Y40543D01*
D02*
G37*
G36*
X161294Y35778D02*
X157687D01*
Y32213D01*
X157866Y32241D01*
X158046Y32276D01*
X158224Y32320D01*
X158400Y32371D01*
X158573Y32430D01*
X158744Y32497D01*
X158912Y32570D01*
X159076Y32652D01*
X159237Y32740D01*
X159394Y32835D01*
X159546Y32937D01*
X159694Y33045D01*
X159837Y33160D01*
X159975Y33281D01*
X160107Y33407D01*
X160234Y33540D01*
X160355Y33678D01*
X160469Y33821D01*
X160578Y33968D01*
X160680Y34121D01*
X160775Y34277D01*
X160863Y34438D01*
X160944Y34602D01*
X161018Y34770D01*
X161084Y34941D01*
X161143Y35115D01*
X161195Y35291D01*
X161238Y35469D01*
X161274Y35649D01*
X161294Y35778D01*
D02*
G37*
G36*
X157687Y30543D02*
Y26978D01*
X161294D01*
X161274Y27108D01*
X161238Y27287D01*
X161195Y27465D01*
X161143Y27641D01*
X161084Y27815D01*
X161018Y27986D01*
X160944Y28153D01*
X160863Y28318D01*
X160775Y28478D01*
X160680Y28635D01*
X160578Y28787D01*
X160469Y28935D01*
X160355Y29078D01*
X160234Y29216D01*
X160107Y29348D01*
X159975Y29475D01*
X159837Y29596D01*
X159694Y29711D01*
X159546Y29819D01*
X159394Y29921D01*
X159237Y30016D01*
X159076Y30104D01*
X158912Y30185D01*
X158744Y30259D01*
X158573Y30326D01*
X158400Y30384D01*
X158224Y30436D01*
X158046Y30479D01*
X157866Y30515D01*
X157687Y30543D01*
D02*
G37*
G36*
X161294Y25778D02*
X157687D01*
Y22213D01*
X157866Y22241D01*
X158046Y22276D01*
X158224Y22320D01*
X158400Y22371D01*
X158573Y22430D01*
X158744Y22497D01*
X158912Y22571D01*
X159076Y22652D01*
X159237Y22740D01*
X159394Y22835D01*
X159546Y22937D01*
X159694Y23045D01*
X159837Y23160D01*
X159975Y23281D01*
X160107Y23407D01*
X160234Y23540D01*
X160355Y23678D01*
X160469Y23821D01*
X160578Y23968D01*
X160680Y24121D01*
X160775Y24277D01*
X160863Y24438D01*
X160944Y24602D01*
X161018Y24770D01*
X161084Y24941D01*
X161143Y25115D01*
X161195Y25291D01*
X161238Y25469D01*
X161274Y25648D01*
X161294Y25778D01*
D02*
G37*
G36*
X157687Y20543D02*
Y16978D01*
X161294D01*
X161274Y17108D01*
X161238Y17287D01*
X161195Y17465D01*
X161143Y17641D01*
X161084Y17815D01*
X161018Y17986D01*
X160944Y18153D01*
X160863Y18318D01*
X160775Y18478D01*
X160680Y18635D01*
X160578Y18788D01*
X160469Y18935D01*
X160355Y19078D01*
X160234Y19216D01*
X160107Y19349D01*
X159975Y19475D01*
X159837Y19596D01*
X159694Y19711D01*
X159546Y19819D01*
X159394Y19921D01*
X159237Y20016D01*
X159076Y20104D01*
X158912Y20185D01*
X158744Y20259D01*
X158573Y20326D01*
X158400Y20384D01*
X158224Y20436D01*
X158046Y20479D01*
X157866Y20515D01*
X157687Y20543D01*
D02*
G37*
G36*
X161294Y15778D02*
X157687D01*
Y12213D01*
X157866Y12241D01*
X158046Y12276D01*
X158224Y12320D01*
X158400Y12371D01*
X158573Y12430D01*
X158744Y12497D01*
X158912Y12571D01*
X159076Y12652D01*
X159237Y12740D01*
X159394Y12835D01*
X159546Y12937D01*
X159694Y13045D01*
X159837Y13160D01*
X159975Y13281D01*
X160107Y13407D01*
X160234Y13540D01*
X160355Y13678D01*
X160469Y13821D01*
X160578Y13968D01*
X160680Y14121D01*
X160775Y14277D01*
X160863Y14438D01*
X160944Y14603D01*
X161018Y14770D01*
X161084Y14941D01*
X161143Y15115D01*
X161195Y15291D01*
X161238Y15469D01*
X161274Y15648D01*
X161294Y15778D01*
D02*
G37*
G36*
X186850Y16601D02*
X186625Y16597D01*
X186400Y16586D01*
X186175Y16566D01*
X185952Y16540D01*
X185729Y16505D01*
X185507Y16463D01*
X185287Y16413D01*
X185070Y16356D01*
X184853Y16292D01*
X184640Y16220D01*
X184429Y16141D01*
X184221Y16055D01*
X184015Y15961D01*
X183814Y15861D01*
X183615Y15754D01*
X183421Y15640D01*
X183230Y15520D01*
X183044Y15393D01*
X182862Y15260D01*
X182685Y15120D01*
X182512Y14975D01*
X182345Y14824D01*
X182183Y14668D01*
X182026Y14505D01*
X181875Y14338D01*
X181730Y14166D01*
X181591Y13988D01*
X181458Y13807D01*
X181331Y13620D01*
X181210Y13430D01*
X181097Y13235D01*
X180990Y13037D01*
X180889Y12835D01*
X180796Y12630D01*
X180710Y12422D01*
X180631Y12211D01*
X180559Y11997D01*
X180494Y11781D01*
X180437Y11563D01*
X180387Y11343D01*
X180345Y11122D01*
X180311Y10899D01*
X180284Y10675D01*
X180265Y10451D01*
X180253Y10225D01*
X180249Y10000D01*
X180253Y9775D01*
X180265Y9550D01*
X180284Y9325D01*
X180311Y9101D01*
X180345Y8878D01*
X180387Y8657D01*
X180437Y8437D01*
X180494Y8219D01*
X180559Y8003D01*
X180631Y7790D01*
X180710Y7578D01*
X180796Y7370D01*
X180889Y7165D01*
X180990Y6963D01*
X181097Y6765D01*
X181210Y6570D01*
X181331Y6380D01*
X181458Y6193D01*
X181591Y6011D01*
X181730Y5834D01*
X181875Y5662D01*
X182026Y5494D01*
X182183Y5332D01*
X182345Y5176D01*
X182512Y5025D01*
X182685Y4880D01*
X182862Y4740D01*
X183044Y4607D01*
X183230Y4480D01*
X183421Y4360D01*
X183615Y4246D01*
X183814Y4139D01*
X184015Y4039D01*
X184221Y3946D01*
X184429Y3859D01*
X184640Y3780D01*
X184853Y3708D01*
X185070Y3644D01*
X185287Y3587D01*
X185507Y3537D01*
X185729Y3495D01*
X185952Y3461D01*
X186175Y3434D01*
X186400Y3414D01*
X186625Y3403D01*
X186850Y3399D01*
X187076Y3403D01*
X187301Y3414D01*
X187525Y3434D01*
X187749Y3461D01*
X187972Y3495D01*
X188193Y3537D01*
X188413Y3587D01*
X188631Y3644D01*
X188847Y3708D01*
X189061Y3780D01*
X189272Y3859D01*
X189480Y3946D01*
X189685Y4039D01*
X189887Y4139D01*
X190086Y4246D01*
X190280Y4360D01*
X190471Y4480D01*
X190657Y4607D01*
X190839Y4740D01*
X191016Y4880D01*
X191189Y5025D01*
X191356Y5176D01*
X191518Y5332D01*
X191675Y5494D01*
X191826Y5662D01*
X191971Y5834D01*
X192110Y6011D01*
X192243Y6193D01*
X192370Y6380D01*
X192490Y6570D01*
X192604Y6765D01*
X192711Y6963D01*
X192812Y7165D01*
X192905Y7370D01*
X192991Y7578D01*
X193070Y7790D01*
X193142Y8003D01*
X193207Y8219D01*
X193264Y8437D01*
X193313Y8657D01*
X193355Y8878D01*
X193390Y9101D01*
X193417Y9325D01*
X193436Y9550D01*
X193447Y9775D01*
X193451Y10000D01*
X193447Y10225D01*
X193436Y10451D01*
X193417Y10675D01*
X193390Y10899D01*
X193355Y11122D01*
X193313Y11343D01*
X193264Y11563D01*
X193207Y11781D01*
X193142Y11997D01*
X193070Y12211D01*
X192991Y12422D01*
X192905Y12630D01*
X192812Y12835D01*
X192711Y13037D01*
X192604Y13235D01*
X192490Y13430D01*
X192370Y13620D01*
X192243Y13807D01*
X192110Y13988D01*
X191971Y14166D01*
X191826Y14338D01*
X191675Y14505D01*
X191518Y14668D01*
X191356Y14824D01*
X191189Y14975D01*
X191016Y15120D01*
X190839Y15260D01*
X190657Y15393D01*
X190471Y15520D01*
X190280Y15640D01*
X190086Y15754D01*
X189887Y15861D01*
X189685Y15961D01*
X189480Y16055D01*
X189272Y16141D01*
X189061Y16220D01*
X188847Y16292D01*
X188631Y16356D01*
X188413Y16413D01*
X188193Y16463D01*
X187972Y16505D01*
X187749Y16540D01*
X187525Y16566D01*
X187301Y16586D01*
X187076Y16597D01*
X186850Y16601D01*
D02*
G37*
G36*
X10000D02*
X9775Y16597D01*
X9550Y16586D01*
X9325Y16566D01*
X9101Y16540D01*
X8878Y16505D01*
X8657Y16463D01*
X8437Y16413D01*
X8219Y16356D01*
X8003Y16292D01*
X7790Y16220D01*
X7578Y16141D01*
X7370Y16055D01*
X7165Y15961D01*
X6963Y15861D01*
X6765Y15754D01*
X6570Y15640D01*
X6380Y15520D01*
X6193Y15393D01*
X6011Y15260D01*
X5834Y15120D01*
X5662Y14975D01*
X5494Y14824D01*
X5332Y14668D01*
X5176Y14505D01*
X5025Y14338D01*
X4880Y14166D01*
X4740Y13988D01*
X4607Y13807D01*
X4480Y13620D01*
X4360Y13430D01*
X4246Y13235D01*
X4139Y13037D01*
X4039Y12835D01*
X3946Y12630D01*
X3859Y12422D01*
X3780Y12211D01*
X3708Y11997D01*
X3644Y11781D01*
X3587Y11563D01*
X3537Y11343D01*
X3495Y11122D01*
X3461Y10899D01*
X3434Y10675D01*
X3414Y10451D01*
X3403Y10225D01*
X3399Y10000D01*
X3403Y9775D01*
X3414Y9550D01*
X3434Y9325D01*
X3461Y9101D01*
X3495Y8878D01*
X3537Y8657D01*
X3587Y8437D01*
X3644Y8219D01*
X3708Y8003D01*
X3780Y7790D01*
X3859Y7578D01*
X3946Y7370D01*
X4039Y7165D01*
X4139Y6963D01*
X4246Y6765D01*
X4360Y6570D01*
X4480Y6380D01*
X4607Y6193D01*
X4740Y6011D01*
X4880Y5834D01*
X5025Y5662D01*
X5176Y5494D01*
X5332Y5332D01*
X5494Y5176D01*
X5662Y5025D01*
X5834Y4880D01*
X6011Y4740D01*
X6193Y4607D01*
X6380Y4480D01*
X6570Y4360D01*
X6765Y4246D01*
X6963Y4139D01*
X7165Y4039D01*
X7370Y3946D01*
X7578Y3859D01*
X7790Y3780D01*
X8003Y3708D01*
X8219Y3644D01*
X8437Y3587D01*
X8657Y3537D01*
X8878Y3495D01*
X9101Y3461D01*
X9325Y3434D01*
X9550Y3414D01*
X9775Y3403D01*
X10000Y3399D01*
X10225Y3403D01*
X10451Y3414D01*
X10675Y3434D01*
X10899Y3461D01*
X11122Y3495D01*
X11343Y3537D01*
X11563Y3587D01*
X11781Y3644D01*
X11997Y3708D01*
X12211Y3780D01*
X12422Y3859D01*
X12630Y3946D01*
X12835Y4039D01*
X13037Y4139D01*
X13235Y4246D01*
X13430Y4360D01*
X13620Y4480D01*
X13807Y4607D01*
X13988Y4740D01*
X14166Y4880D01*
X14338Y5025D01*
X14505Y5176D01*
X14668Y5332D01*
X14824Y5494D01*
X14975Y5662D01*
X15120Y5834D01*
X15260Y6011D01*
X15393Y6193D01*
X15520Y6380D01*
X15640Y6570D01*
X15754Y6765D01*
X15861Y6963D01*
X15961Y7165D01*
X16055Y7370D01*
X16141Y7578D01*
X16220Y7790D01*
X16292Y8003D01*
X16356Y8219D01*
X16413Y8437D01*
X16463Y8657D01*
X16505Y8878D01*
X16540Y9101D01*
X16566Y9325D01*
X16586Y9550D01*
X16597Y9775D01*
X16601Y10000D01*
X16597Y10225D01*
X16586Y10451D01*
X16566Y10675D01*
X16540Y10899D01*
X16505Y11122D01*
X16463Y11343D01*
X16413Y11563D01*
X16356Y11781D01*
X16292Y11997D01*
X16220Y12211D01*
X16141Y12422D01*
X16055Y12630D01*
X15961Y12835D01*
X15861Y13037D01*
X15754Y13235D01*
X15640Y13430D01*
X15520Y13620D01*
X15393Y13807D01*
X15260Y13988D01*
X15120Y14166D01*
X14975Y14338D01*
X14824Y14505D01*
X14668Y14668D01*
X14505Y14824D01*
X14338Y14975D01*
X14166Y15120D01*
X13988Y15260D01*
X13807Y15393D01*
X13620Y15520D01*
X13430Y15640D01*
X13235Y15754D01*
X13037Y15861D01*
X12835Y15961D01*
X12630Y16055D01*
X12422Y16141D01*
X12211Y16220D01*
X11997Y16292D01*
X11781Y16356D01*
X11563Y16413D01*
X11343Y16463D01*
X11122Y16505D01*
X10899Y16540D01*
X10675Y16566D01*
X10451Y16586D01*
X10225Y16597D01*
X10000Y16601D01*
D02*
G37*
%LPD*%
G36*
X101179Y99845D02*
X101630Y99471D01*
X102095Y99141D01*
X102572Y98855D01*
X103063Y98613D01*
X103567Y98415D01*
X104084Y98261D01*
X104614Y98151D01*
X105157Y98085D01*
X105713Y98063D01*
Y94063D01*
X105157Y94041D01*
X104614Y93975D01*
X104084Y93865D01*
X103567Y93711D01*
X103063Y93513D01*
X102572Y93271D01*
X102095Y92985D01*
X101630Y92655D01*
X101179Y92281D01*
X100742Y91863D01*
Y100263D01*
X101179Y99845D01*
D02*
G37*
G36*
X148683Y70859D02*
X148854Y70844D01*
X149024Y70821D01*
X149194Y70791D01*
X149361Y70754D01*
X149527Y70710D01*
X149691Y70658D01*
X149852Y70599D01*
X150011Y70534D01*
X150167Y70461D01*
X150319Y70382D01*
X150468Y70296D01*
X150613Y70203D01*
X150754Y70105D01*
X150890Y70000D01*
X151022Y69890D01*
X151148Y69774D01*
X151270Y69652D01*
X151386Y69526D01*
X151496Y69394D01*
X151601Y69258D01*
X151699Y69117D01*
X151792Y68972D01*
X151878Y68823D01*
X151957Y68671D01*
X152030Y68515D01*
X152095Y68356D01*
X152154Y68195D01*
X152206Y68031D01*
X152250Y67865D01*
X152287Y67697D01*
X152317Y67528D01*
X152340Y67358D01*
X152355Y67187D01*
X152362Y67015D01*
Y66929D01*
Y9449D01*
Y9381D01*
X152356Y9246D01*
X152342Y9111D01*
X152322Y8978D01*
X152296Y8845D01*
X152263Y8714D01*
X152224Y8584D01*
X152178Y8457D01*
X152127Y8332D01*
X152069Y8209D01*
X152005Y8090D01*
X151935Y7974D01*
X151860Y7862D01*
X151779Y7753D01*
X151694Y7648D01*
X151603Y7548D01*
X151507Y7452D01*
X151407Y7361D01*
X151302Y7276D01*
X151194Y7195D01*
X151081Y7120D01*
X150965Y7050D01*
X150846Y6986D01*
X150723Y6929D01*
X150598Y6877D01*
X150471Y6831D01*
X150341Y6792D01*
X150210Y6759D01*
X150078Y6733D01*
X149944Y6713D01*
X149809Y6700D01*
X149674Y6693D01*
X55135D01*
X54855Y6701D01*
X54575Y6717D01*
X54295Y6740D01*
X54017Y6771D01*
X53739Y6811D01*
X53462Y6858D01*
X53187Y6912D01*
X52914Y6975D01*
X52642Y7045D01*
X52372Y7123D01*
X52105Y7208D01*
X51840Y7300D01*
X51578Y7400D01*
X51319Y7508D01*
X51063Y7622D01*
X50810Y7744D01*
X50561Y7873D01*
X50316Y8009D01*
X50074Y8151D01*
X49837Y8300D01*
X49603Y8456D01*
X49374Y8619D01*
X49150Y8787D01*
X48931Y8962D01*
X48717Y9143D01*
X48507Y9330D01*
X48304Y9523D01*
X48105Y9721D01*
X47913Y9925D01*
X47726Y10134D01*
X47545Y10348D01*
X47370Y10568D01*
X47201Y10792D01*
X47039Y11021D01*
X46883Y11254D01*
X46734Y11491D01*
X46591Y11733D01*
X46455Y11979D01*
X46327Y12228D01*
X46205Y12480D01*
X46090Y12736D01*
X45983Y12996D01*
X45883Y13258D01*
X45790Y13522D01*
X45705Y13790D01*
X45628Y14059D01*
X45557Y14331D01*
X45495Y14604D01*
X45440Y14880D01*
X45393Y15156D01*
X45354Y15434D01*
X45323Y15713D01*
X45299Y15992D01*
X45283Y16272D01*
X45276Y16553D01*
Y16693D01*
Y68898D01*
Y68953D01*
X45282Y69063D01*
X45294Y69173D01*
X45313Y69282D01*
X45337Y69389D01*
X45368Y69496D01*
X45404Y69600D01*
X45447Y69702D01*
X45494Y69801D01*
X45548Y69898D01*
X45607Y69992D01*
X45671Y70082D01*
X45739Y70168D01*
X45813Y70250D01*
X45891Y70329D01*
X45974Y70402D01*
X46060Y70471D01*
X46150Y70535D01*
X46244Y70594D01*
X46340Y70647D01*
X46440Y70695D01*
X46542Y70737D01*
X46646Y70774D01*
X46752Y70805D01*
X46860Y70829D01*
X46969Y70848D01*
X47079Y70860D01*
X47189Y70866D01*
X148511D01*
X148683Y70859D01*
D02*
G37*
%LPC*%
G36*
X50994Y62191D02*
Y58868D01*
X54317D01*
X54303Y58957D01*
X54269Y59127D01*
X54228Y59295D01*
X54179Y59461D01*
X54124Y59625D01*
X54061Y59787D01*
X53991Y59945D01*
X53915Y60101D01*
X53831Y60252D01*
X53742Y60400D01*
X53645Y60545D01*
X53543Y60684D01*
X53434Y60819D01*
X53320Y60949D01*
X53201Y61075D01*
X53075Y61194D01*
X52945Y61308D01*
X52810Y61417D01*
X52671Y61519D01*
X52526Y61616D01*
X52378Y61705D01*
X52227Y61789D01*
X52071Y61865D01*
X51913Y61935D01*
X51751Y61998D01*
X51587Y62053D01*
X51421Y62102D01*
X51253Y62143D01*
X51083Y62177D01*
X50994Y62191D01*
D02*
G37*
G36*
X49794D02*
X49704Y62177D01*
X49535Y62143D01*
X49366Y62102D01*
X49200Y62053D01*
X49036Y61998D01*
X48875Y61935D01*
X48716Y61865D01*
X48561Y61789D01*
X48409Y61705D01*
X48261Y61616D01*
X48117Y61519D01*
X47977Y61417D01*
X47842Y61308D01*
X47712Y61194D01*
X47587Y61075D01*
X47467Y60949D01*
X47353Y60819D01*
X47245Y60684D01*
X47142Y60545D01*
X47046Y60400D01*
X46956Y60252D01*
X46873Y60101D01*
X46796Y59945D01*
X46726Y59787D01*
X46664Y59625D01*
X46608Y59461D01*
X46560Y59295D01*
X46518Y59127D01*
X46485Y58957D01*
X46471Y58868D01*
X49794D01*
Y62191D01*
D02*
G37*
G36*
X54317Y57668D02*
X50994D01*
Y54345D01*
X51083Y54359D01*
X51253Y54392D01*
X51421Y54434D01*
X51587Y54482D01*
X51751Y54538D01*
X51913Y54600D01*
X52071Y54670D01*
X52227Y54747D01*
X52378Y54830D01*
X52526Y54920D01*
X52671Y55016D01*
X52810Y55119D01*
X52945Y55227D01*
X53075Y55341D01*
X53201Y55461D01*
X53320Y55586D01*
X53434Y55716D01*
X53543Y55851D01*
X53645Y55991D01*
X53742Y56135D01*
X53831Y56283D01*
X53915Y56435D01*
X53991Y56590D01*
X54061Y56749D01*
X54124Y56910D01*
X54179Y57074D01*
X54228Y57240D01*
X54269Y57409D01*
X54303Y57578D01*
X54317Y57668D01*
D02*
G37*
G36*
X49794D02*
X46471D01*
X46485Y57578D01*
X46518Y57409D01*
X46560Y57240D01*
X46608Y57074D01*
X46664Y56910D01*
X46726Y56749D01*
X46796Y56590D01*
X46873Y56435D01*
X46956Y56283D01*
X47046Y56135D01*
X47142Y55991D01*
X47245Y55851D01*
X47353Y55716D01*
X47467Y55586D01*
X47587Y55461D01*
X47712Y55341D01*
X47842Y55227D01*
X47977Y55119D01*
X48117Y55016D01*
X48261Y54920D01*
X48409Y54830D01*
X48561Y54747D01*
X48716Y54670D01*
X48875Y54600D01*
X49036Y54538D01*
X49200Y54482D01*
X49366Y54434D01*
X49535Y54392D01*
X49704Y54359D01*
X49794Y54345D01*
Y57668D01*
D02*
G37*
G36*
X147687Y50543D02*
Y46978D01*
X151294D01*
X151274Y47107D01*
X151238Y47287D01*
X151195Y47465D01*
X151143Y47641D01*
X151084Y47815D01*
X151018Y47986D01*
X150944Y48153D01*
X150863Y48318D01*
X150775Y48478D01*
X150680Y48635D01*
X150578Y48788D01*
X150470Y48935D01*
X150355Y49078D01*
X150234Y49216D01*
X150107Y49349D01*
X149975Y49475D01*
X149837Y49596D01*
X149694Y49711D01*
X149546Y49819D01*
X149394Y49921D01*
X149237Y50016D01*
X149076Y50104D01*
X148912Y50185D01*
X148744Y50259D01*
X148573Y50326D01*
X148400Y50384D01*
X148224Y50436D01*
X148046Y50479D01*
X147866Y50515D01*
X147687Y50543D01*
D02*
G37*
G36*
X146487Y50543D02*
X146307Y50515D01*
X146127Y50479D01*
X145949Y50436D01*
X145773Y50384D01*
X145600Y50326D01*
X145429Y50259D01*
X145261Y50185D01*
X145097Y50104D01*
X144936Y50016D01*
X144779Y49921D01*
X144627Y49819D01*
X144479Y49711D01*
X144336Y49596D01*
X144199Y49475D01*
X144066Y49349D01*
X143939Y49216D01*
X143818Y49078D01*
X143704Y48935D01*
X143595Y48788D01*
X143493Y48635D01*
X143398Y48478D01*
X143310Y48318D01*
X143229Y48153D01*
X143155Y47986D01*
X143089Y47815D01*
X143030Y47641D01*
X142979Y47465D01*
X142935Y47287D01*
X142899Y47107D01*
X142879Y46978D01*
X146487D01*
Y50543D01*
D02*
G37*
G36*
Y45778D02*
X142879D01*
X142899Y45649D01*
X142935Y45469D01*
X142979Y45291D01*
X143030Y45115D01*
X143089Y44941D01*
X143155Y44770D01*
X143229Y44603D01*
X143310Y44438D01*
X143398Y44277D01*
X143493Y44121D01*
X143595Y43968D01*
X143704Y43821D01*
X143818Y43678D01*
X143939Y43540D01*
X144066Y43407D01*
X144199Y43281D01*
X144336Y43160D01*
X144479Y43045D01*
X144627Y42937D01*
X144779Y42835D01*
X144936Y42740D01*
X145097Y42652D01*
X145261Y42570D01*
X145429Y42497D01*
X145600Y42430D01*
X145773Y42371D01*
X145949Y42320D01*
X146127Y42276D01*
X146307Y42241D01*
X146487Y42213D01*
Y45778D01*
D02*
G37*
G36*
X151294D02*
X147687D01*
Y42213D01*
X147866Y42241D01*
X148046Y42276D01*
X148224Y42320D01*
X148400Y42371D01*
X148573Y42430D01*
X148744Y42497D01*
X148912Y42570D01*
X149076Y42652D01*
X149237Y42740D01*
X149394Y42835D01*
X149546Y42937D01*
X149694Y43045D01*
X149837Y43160D01*
X149975Y43281D01*
X150107Y43407D01*
X150234Y43540D01*
X150355Y43678D01*
X150470Y43821D01*
X150578Y43968D01*
X150680Y44121D01*
X150775Y44277D01*
X150863Y44438D01*
X150944Y44603D01*
X151018Y44770D01*
X151084Y44941D01*
X151143Y45115D01*
X151195Y45291D01*
X151238Y45469D01*
X151274Y45649D01*
X151294Y45778D01*
D02*
G37*
G36*
X147687Y40543D02*
Y36978D01*
X151294D01*
X151274Y37108D01*
X151238Y37287D01*
X151195Y37465D01*
X151143Y37641D01*
X151084Y37815D01*
X151018Y37986D01*
X150944Y38153D01*
X150863Y38318D01*
X150775Y38478D01*
X150680Y38635D01*
X150578Y38787D01*
X150470Y38935D01*
X150355Y39078D01*
X150234Y39216D01*
X150107Y39349D01*
X149975Y39475D01*
X149837Y39596D01*
X149694Y39711D01*
X149546Y39819D01*
X149394Y39921D01*
X149237Y40016D01*
X149076Y40104D01*
X148912Y40185D01*
X148744Y40259D01*
X148573Y40326D01*
X148400Y40385D01*
X148224Y40436D01*
X148046Y40479D01*
X147866Y40515D01*
X147687Y40543D01*
D02*
G37*
G36*
X146487Y40543D02*
X146307Y40515D01*
X146127Y40479D01*
X145949Y40436D01*
X145773Y40385D01*
X145600Y40326D01*
X145429Y40259D01*
X145261Y40185D01*
X145097Y40104D01*
X144936Y40016D01*
X144779Y39921D01*
X144627Y39819D01*
X144479Y39711D01*
X144336Y39596D01*
X144199Y39475D01*
X144066Y39349D01*
X143939Y39216D01*
X143818Y39078D01*
X143704Y38935D01*
X143595Y38787D01*
X143493Y38635D01*
X143398Y38478D01*
X143310Y38318D01*
X143229Y38153D01*
X143155Y37986D01*
X143089Y37815D01*
X143030Y37641D01*
X142979Y37465D01*
X142935Y37287D01*
X142899Y37108D01*
X142879Y36978D01*
X146487D01*
Y40543D01*
D02*
G37*
G36*
Y35778D02*
X142879D01*
X142899Y35649D01*
X142935Y35469D01*
X142979Y35291D01*
X143030Y35115D01*
X143089Y34941D01*
X143155Y34770D01*
X143229Y34602D01*
X143310Y34438D01*
X143398Y34277D01*
X143493Y34121D01*
X143595Y33968D01*
X143704Y33821D01*
X143818Y33678D01*
X143939Y33540D01*
X144066Y33407D01*
X144199Y33281D01*
X144336Y33160D01*
X144479Y33045D01*
X144627Y32937D01*
X144779Y32835D01*
X144936Y32740D01*
X145097Y32652D01*
X145261Y32570D01*
X145429Y32497D01*
X145600Y32430D01*
X145773Y32371D01*
X145949Y32320D01*
X146127Y32276D01*
X146307Y32241D01*
X146487Y32213D01*
Y35778D01*
D02*
G37*
G36*
X151294D02*
X147687D01*
Y32213D01*
X147866Y32241D01*
X148046Y32276D01*
X148224Y32320D01*
X148400Y32371D01*
X148573Y32430D01*
X148744Y32497D01*
X148912Y32570D01*
X149076Y32652D01*
X149237Y32740D01*
X149394Y32835D01*
X149546Y32937D01*
X149694Y33045D01*
X149837Y33160D01*
X149975Y33281D01*
X150107Y33407D01*
X150234Y33540D01*
X150355Y33678D01*
X150470Y33821D01*
X150578Y33968D01*
X150680Y34121D01*
X150775Y34277D01*
X150863Y34438D01*
X150944Y34602D01*
X151018Y34770D01*
X151084Y34941D01*
X151143Y35115D01*
X151195Y35291D01*
X151238Y35469D01*
X151274Y35649D01*
X151294Y35778D01*
D02*
G37*
G36*
X147687Y30543D02*
Y26978D01*
X151294D01*
X151274Y27108D01*
X151238Y27287D01*
X151195Y27465D01*
X151143Y27641D01*
X151084Y27815D01*
X151018Y27986D01*
X150944Y28153D01*
X150863Y28318D01*
X150775Y28478D01*
X150680Y28635D01*
X150578Y28787D01*
X150470Y28935D01*
X150355Y29078D01*
X150234Y29216D01*
X150107Y29348D01*
X149975Y29475D01*
X149837Y29596D01*
X149694Y29711D01*
X149546Y29819D01*
X149394Y29921D01*
X149237Y30016D01*
X149076Y30104D01*
X148912Y30185D01*
X148744Y30259D01*
X148573Y30326D01*
X148400Y30384D01*
X148224Y30436D01*
X148046Y30479D01*
X147866Y30515D01*
X147687Y30543D01*
D02*
G37*
G36*
X146487Y30543D02*
X146307Y30515D01*
X146127Y30479D01*
X145949Y30436D01*
X145773Y30384D01*
X145600Y30326D01*
X145429Y30259D01*
X145261Y30185D01*
X145097Y30104D01*
X144936Y30016D01*
X144779Y29921D01*
X144627Y29819D01*
X144479Y29711D01*
X144336Y29596D01*
X144199Y29475D01*
X144066Y29348D01*
X143939Y29216D01*
X143818Y29078D01*
X143704Y28935D01*
X143595Y28787D01*
X143493Y28635D01*
X143398Y28478D01*
X143310Y28318D01*
X143229Y28153D01*
X143155Y27986D01*
X143089Y27815D01*
X143030Y27641D01*
X142979Y27465D01*
X142935Y27287D01*
X142899Y27108D01*
X142879Y26978D01*
X146487D01*
Y30543D01*
D02*
G37*
G36*
Y25778D02*
X142879D01*
X142899Y25648D01*
X142935Y25469D01*
X142979Y25291D01*
X143030Y25115D01*
X143089Y24941D01*
X143155Y24770D01*
X143229Y24602D01*
X143310Y24438D01*
X143398Y24277D01*
X143493Y24121D01*
X143595Y23968D01*
X143704Y23821D01*
X143818Y23678D01*
X143939Y23540D01*
X144066Y23407D01*
X144199Y23281D01*
X144336Y23160D01*
X144479Y23045D01*
X144627Y22937D01*
X144779Y22835D01*
X144936Y22740D01*
X145097Y22652D01*
X145261Y22571D01*
X145429Y22497D01*
X145600Y22430D01*
X145773Y22371D01*
X145949Y22320D01*
X146127Y22276D01*
X146307Y22241D01*
X146487Y22213D01*
Y25778D01*
D02*
G37*
G36*
X151294D02*
X147687D01*
Y22213D01*
X147866Y22241D01*
X148046Y22276D01*
X148224Y22320D01*
X148400Y22371D01*
X148573Y22430D01*
X148744Y22497D01*
X148912Y22571D01*
X149076Y22652D01*
X149237Y22740D01*
X149394Y22835D01*
X149546Y22937D01*
X149694Y23045D01*
X149837Y23160D01*
X149975Y23281D01*
X150107Y23407D01*
X150234Y23540D01*
X150355Y23678D01*
X150470Y23821D01*
X150578Y23968D01*
X150680Y24121D01*
X150775Y24277D01*
X150863Y24438D01*
X150944Y24602D01*
X151018Y24770D01*
X151084Y24941D01*
X151143Y25115D01*
X151195Y25291D01*
X151238Y25469D01*
X151274Y25648D01*
X151294Y25778D01*
D02*
G37*
G36*
X147687Y20543D02*
Y16978D01*
X151294D01*
X151274Y17108D01*
X151238Y17287D01*
X151195Y17465D01*
X151143Y17641D01*
X151084Y17815D01*
X151018Y17986D01*
X150944Y18153D01*
X150863Y18318D01*
X150775Y18478D01*
X150680Y18635D01*
X150578Y18788D01*
X150470Y18935D01*
X150355Y19078D01*
X150234Y19216D01*
X150107Y19349D01*
X149975Y19475D01*
X149837Y19596D01*
X149694Y19711D01*
X149546Y19819D01*
X149394Y19921D01*
X149237Y20016D01*
X149076Y20104D01*
X148912Y20185D01*
X148744Y20259D01*
X148573Y20326D01*
X148400Y20384D01*
X148224Y20436D01*
X148046Y20479D01*
X147866Y20515D01*
X147687Y20543D01*
D02*
G37*
G36*
X146487Y20543D02*
X146307Y20515D01*
X146127Y20479D01*
X145949Y20436D01*
X145773Y20384D01*
X145600Y20326D01*
X145429Y20259D01*
X145261Y20185D01*
X145097Y20104D01*
X144936Y20016D01*
X144779Y19921D01*
X144627Y19819D01*
X144479Y19711D01*
X144336Y19596D01*
X144199Y19475D01*
X144066Y19349D01*
X143939Y19216D01*
X143818Y19078D01*
X143704Y18935D01*
X143595Y18788D01*
X143493Y18635D01*
X143398Y18478D01*
X143310Y18318D01*
X143229Y18153D01*
X143155Y17986D01*
X143089Y17815D01*
X143030Y17641D01*
X142979Y17465D01*
X142935Y17287D01*
X142899Y17108D01*
X142879Y16978D01*
X146487D01*
Y20543D01*
D02*
G37*
G36*
Y15778D02*
X142879D01*
X142899Y15648D01*
X142935Y15469D01*
X142979Y15291D01*
X143030Y15115D01*
X143089Y14941D01*
X143155Y14770D01*
X143229Y14603D01*
X143310Y14438D01*
X143398Y14277D01*
X143493Y14121D01*
X143595Y13968D01*
X143704Y13821D01*
X143818Y13678D01*
X143939Y13540D01*
X144066Y13407D01*
X144199Y13281D01*
X144336Y13160D01*
X144479Y13045D01*
X144627Y12937D01*
X144779Y12835D01*
X144936Y12740D01*
X145097Y12652D01*
X145261Y12571D01*
X145429Y12497D01*
X145600Y12430D01*
X145773Y12371D01*
X145949Y12320D01*
X146127Y12276D01*
X146307Y12241D01*
X146487Y12213D01*
Y15778D01*
D02*
G37*
G36*
X151294D02*
X147687D01*
Y12213D01*
X147866Y12241D01*
X148046Y12276D01*
X148224Y12320D01*
X148400Y12371D01*
X148573Y12430D01*
X148744Y12497D01*
X148912Y12571D01*
X149076Y12652D01*
X149237Y12740D01*
X149394Y12835D01*
X149546Y12937D01*
X149694Y13045D01*
X149837Y13160D01*
X149975Y13281D01*
X150107Y13407D01*
X150234Y13540D01*
X150355Y13678D01*
X150470Y13821D01*
X150578Y13968D01*
X150680Y14121D01*
X150775Y14277D01*
X150863Y14438D01*
X150944Y14603D01*
X151018Y14770D01*
X151084Y14941D01*
X151143Y15115D01*
X151195Y15291D01*
X151238Y15469D01*
X151274Y15648D01*
X151294Y15778D01*
D02*
G37*
%LPD*%
D44*
X96457Y96063D02*
X162205D01*
D47*
X186850Y10000D02*
D03*
X186850Y206535D02*
D03*
X10000Y206535D02*
D03*
Y10000D02*
D03*
X10457Y96063D02*
D03*
X96457D02*
D03*
D48*
X88189Y194882D02*
D03*
D49*
X78189D02*
D03*
D50*
X157087Y46378D02*
D03*
Y36378D02*
D03*
Y26378D02*
D03*
Y16378D02*
D03*
X147087Y46378D02*
D03*
Y36378D02*
D03*
Y26378D02*
D03*
Y16378D02*
D03*
D51*
X30394Y58268D02*
D03*
D52*
X40394D02*
D03*
X50394D02*
D03*
D53*
X33465Y174016D02*
D03*
X59055D02*
D03*
D54*
X47244Y155512D02*
D03*
D55*
X48110Y131102D02*
D03*
X8740D02*
D03*
D56*
X162205Y96063D02*
D03*
M02*
