M48
;Layer_Color=9474304
;FILE_FORMAT=2:5
INCH,LZ
;TYPE=PLATED
T1F00S00C0.03150
T2F00S00C0.03500
T3F00S00C0.03800
T4F00S00C0.03937
T5F00S00C0.04200
T6F00S00C0.05200
T7F00S00C0.10000
T8F00S00C0.10630
T9F00S00C0.12598
%
T01
X0245504Y0279
X0264717
T02
X0073Y0123
Y0143
T03
X0188Y0023
Y0033
X0198
X0208
Y0023
X0198
X0218
Y0033
T04
X0105Y0031
Y0041
Y0051
T05
X013611Y0218
Y0228
X014611
Y0218
X015611
Y0228
T06
X003Y0093
Y0179
T07
X003Y0039409
T08
X0048504Y0053189
T09
X003Y0065
M30
